<svg width="117" height="22" viewBox="0 0 117 22" fill="none" xmlns="http://www.w3.org/2000/svg">
<g clip-path="url(#clip0_1456_4982)">
<path d="M12.5779 19.3307H0.25V0.649292H4.78565V15.034H12.5779V19.3307Z" fill="#989898"/>
<path d="M19.8345 7.82854H27.3589V12.1252H19.8345V15.034H28.0799V19.3307H15.2988V0.649292H28.0799V4.91975H19.8345V7.82854Z" fill="#989898"/>
<path d="M40.0986 0.506958C42.8683 0.506958 45.2129 1.53712 47.1306 3.59742L44.1998 6.31516C43.0631 5.285 41.5087 4.76993 39.9113 4.76993C38.49 4.76993 37.4975 5.25316 36.5555 6.22151C35.6135 7.18984 35.1434 8.456 35.1434 10.0181C35.1434 11.5821 35.6135 12.8426 36.5555 13.8016C37.4956 14.7606 38.6773 15.24 40.0986 15.24C41.005 15.24 41.8383 15.0621 42.6024 14.7081V12.1477H40.0986V8.73881H47.1306V16.4369C45.2129 18.4972 42.8683 19.5274 40.0986 19.5274C37.4713 19.5274 35.2334 18.6002 33.3869 16.7441C31.5404 14.8879 30.6172 12.6459 30.6172 10.0181C30.6172 7.39027 31.5404 5.14828 33.3869 3.29212C35.2334 1.43597 37.4693 0.506958 40.0986 0.506958Z" fill="#989898"/>
<path d="M54.5943 7.82854H62.1187V12.1252H54.5943V15.034H62.8397V19.3307H50.0586V0.649292H62.8397V4.91975H54.5943V7.82854Z" fill="#989898"/>
<path d="M80.561 19.3307H77.8399L70.1022 9.0572V19.3326H65.5664V0.649292H68.2875L76.0253 10.9246V0.649292H80.561V19.3307Z" fill="#989898"/>
<path d="M83.2871 0.649292H90.0905C92.7403 0.649292 94.9876 1.54271 96.8285 3.33144C98.6693 5.12016 99.5906 7.33966 99.5906 9.98998C99.5906 12.659 98.6693 14.8823 96.8285 16.6616C94.9876 18.441 92.742 19.3307 90.0905 19.3307H83.2871V0.649292ZM87.8223 15.034H90.0905C91.5491 15.034 92.7403 14.5939 93.6651 13.7135C94.5906 12.8332 95.053 11.5914 95.053 9.98998C95.053 8.38858 94.5906 7.14304 93.6651 6.25333C92.7403 5.36365 91.5473 4.91975 90.0905 4.91975H87.8223V15.034Z" fill="#989898"/>
<path d="M104.877 16.7422L103.916 19.3307H98.873L106.504 0.649292H109.226L116.75 19.3307H111.706L110.746 16.7422H104.877ZM107.811 8.81558L106.45 12.4455H109.171L107.811 8.81558Z" fill="#989898"/>
</g>
<defs>
<clipPath id="clip0_1456_4982">
<rect width="116.5" height="20.8036" fill="white" transform="translate(0.25 0.506958)"/>
</clipPath>
</defs>
</svg>
