<svg width="117" height="29" viewBox="0 0 117 29" fill="none" xmlns="http://www.w3.org/2000/svg">
<path d="M48.4492 28.7748V1.64258H53.2735V28.7748H48.4492Z" fill="#989898"/>
<path d="M19.938 28.7261C19.938 28.7261 10.669 20.3753 10.7177 20.3753C15.0651 18.8991 18.092 15.6223 18.092 11.1938C18.092 5.38003 13.1282 1.688 6.41249 1.64258H0.125V28.7748H4.9493V1.82426H6.36706C10.9513 1.86968 14.546 5.65255 14.546 11.3301C14.546 17.0953 11 20.6965 6.41249 20.7873L6.3184 20.9722L14.8769 28.7261H19.938Z" fill="#989898"/>
<path d="M42.489 21.0209C42.489 25.5435 38.8002 28.7748 32.6555 28.7748H24.2852V1.64258H32.2759C37.1943 1.64258 40.6917 3.71895 40.6917 7.78083C40.6917 10.0843 39.2252 12.6246 35.0174 13.546C40.5976 14.516 42.489 18.2535 42.489 21.0209ZM38.6121 21.0209C38.6121 18.7174 37.7621 14.1916 32.9378 13.6401V13.4097C36.1529 13.0853 37.9016 10.6391 37.9016 7.68674C37.9016 5.01018 35.5397 1.82751 31.1858 1.82751H29.1095V28.4504H31.1404C37.3825 28.4504 38.6121 23.5612 38.6121 21.0209Z" fill="#989898"/>
<path d="M78.3129 2.70681C77.5836 2.17479 76.7076 1.88128 75.805 1.86653C75.0912 1.86653 74.3353 2.0547 74.3353 2.84632C74.3353 3.21941 74.5235 3.64118 75.0912 4.33871L77.8878 7.32672C78.6924 8.21242 79.2148 9.14678 79.2148 10.0325C79.2148 11.713 77.5569 12.4138 75.9932 12.4138C74.1926 12.4138 72.9111 11.6676 71.8242 10.4056L72.4406 9.75347C73.2939 10.6878 74.4781 11.3854 75.6622 11.3854C76.7978 11.3854 77.4628 10.8273 77.4628 9.98706C77.4628 9.33495 76.8918 8.58551 76.5609 8.21242L73.813 5.22764C73.1966 4.52687 72.5347 3.6866 72.5347 2.75548C72.5347 1.96062 73.2452 0.980835 75.3768 0.980835C76.7037 0.980835 77.9365 1.35393 78.8806 2.14879L78.3129 2.70681Z" fill="#989898"/>
<path d="M81.3926 1.21448H83.0018V12.1803H81.3926V1.21448Z" fill="#989898"/>
<path d="M86.132 2.05151L85.5156 1.21448H87.553L94.1844 10.1753V1.21448H95.1318V12.1803H93.7108L87.0794 3.31355V12.1803H86.132V2.05151Z" fill="#989898"/>
<path d="M108.252 9.79889C107.21 11.2913 105.598 12.4138 103.327 12.4138C100.105 12.4138 97.4512 10.0779 97.4512 6.72003C97.4512 3.36216 99.9169 0.980835 103.323 0.980835C105.409 0.980835 107.067 1.9152 108.255 3.07991L107.684 3.59251C106.879 2.8009 105.504 1.82111 103.752 1.82111C101.146 1.82111 99.3459 3.87477 99.3459 6.72003C99.3459 9.61396 101.429 11.4794 103.8 11.4794C105.646 11.4794 106.736 10.5483 107.729 9.38037L108.252 9.79889Z" fill="#989898"/>
<path d="M110.102 1.21448H116.876V2.10017H111.665V5.18228H116.071V6.1134H111.665V11.2946H116.876V12.1803H110.102V1.21448Z" fill="#989898"/>
<path d="M72.5827 19.5548L72.2031 18.9481L74.4741 17.6406H75.3306V28.6064H73.7182V18.9481L72.5827 19.5548Z" fill="#989898"/>
<path d="M78.8839 28.8365L78.6957 28.2298C81.0154 27.7172 82.7187 26.1307 82.9588 23.3795C82.391 24.2652 81.2068 24.5929 80.5417 24.5929C78.6925 24.5929 77.4629 23.1913 77.4629 21.3259C77.4629 19.3663 78.7412 17.4521 81.0641 17.4521C83.0042 17.4521 84.8048 18.9932 84.8048 22.1661C84.7594 25.2904 82.7674 28.3239 78.8839 28.8365ZM81.0154 23.7007C82.0568 23.7007 82.9101 22.7663 82.9101 21.089C82.9101 19.5512 82.2937 18.1529 81.1095 18.1529C80.0713 18.1529 79.2602 19.2235 79.2602 20.9949C79.2602 22.6268 79.8312 23.7007 81.0154 23.7007Z" fill="#989898"/>
<path d="M87.7902 28.8365L87.602 28.2298C89.9217 27.7172 91.6249 26.1307 91.865 23.3795C91.2973 24.2652 90.1131 24.5929 89.448 24.5929C87.5987 24.5929 86.3691 23.1913 86.3691 21.3259C86.3691 19.3663 87.6474 17.4521 89.9703 17.4521C91.9104 17.4521 93.711 18.9932 93.711 22.1661C93.6656 25.2904 91.6736 28.3239 87.7902 28.8365ZM89.9703 23.7007C91.015 23.7007 91.8683 22.7663 91.8683 21.089C91.8683 19.5512 91.2518 18.1529 90.0644 18.1529C89.023 18.1529 88.2152 19.2235 88.2152 20.9949C88.2152 22.6268 88.7375 23.7007 89.9703 23.7007Z" fill="#989898"/>
<path d="M96.6928 21.7447L99.2526 19.133H95.1777V17.6406H101.952L98.2079 21.4689C98.3993 21.4689 98.5875 21.4203 98.7789 21.4203C100.388 21.4203 101.952 22.5395 101.952 24.4537C101.952 26.1342 100.862 27.3476 99.298 27.9997C98.2598 28.4669 97.027 28.7005 95.6968 28.7459L95.3659 28.0451C97.7343 27.8602 100.057 26.8772 100.057 24.5932C100.057 23.2403 99.1098 22.3546 97.877 22.3546C97.4033 22.3546 97.1665 22.4 96.9783 22.4455L96.6928 21.7447Z" fill="#989898"/>
</svg>
