<svg width="137" height="36" viewBox="0 0 137 36" fill="none" xmlns="http://www.w3.org/2000/svg">
<g clip-path="url(#clip0_1456_4992)">
<path d="M18.6114 26.4641C18.8153 26.3535 18.999 26.2093 19.1549 26.0376C19.3138 25.8581 19.3961 25.6235 19.3842 25.384C19.382 25.1997 19.3271 25.0199 19.226 24.8658C19.1066 24.6828 18.9504 24.5266 18.7674 24.4072C18.5558 24.2667 18.3237 24.16 18.0794 24.0907C17.8008 24.0099 17.5119 23.9698 17.2218 23.9715H14.5137V28.9635H15.2016V26.7851H16.8641L16.9077 26.8379L18.6894 28.9635H19.4048L17.724 26.9823L17.5704 26.7989L17.7997 26.7484C18.0825 26.6929 18.3558 26.5972 18.6114 26.4641ZM17.2218 26.487H15.2016V24.2742H17.2241C17.4114 24.2736 17.5978 24.3014 17.7767 24.3567C17.9398 24.4107 18.0943 24.4879 18.2354 24.586C18.3686 24.6787 18.4811 24.7982 18.5656 24.9369C18.6504 25.0748 18.6948 25.2336 18.694 25.3955C18.6953 25.5574 18.6508 25.7164 18.5656 25.8541C18.481 25.9921 18.3685 26.1108 18.2354 26.2027C18.0948 26.3016 17.9402 26.3789 17.7767 26.432C17.5955 26.4774 17.4085 26.496 17.2218 26.487Z" fill="#989898"/>
<path d="M25.6606 27.9477C25.7847 27.7399 25.8489 27.5018 25.8463 27.2598V23.9761H25.1584V27.2644C25.1652 27.4757 25.1178 27.6854 25.0207 27.8732C24.9235 28.0611 24.7799 28.2209 24.6034 28.3375C24.1841 28.603 23.6935 28.7334 23.1978 28.7113C22.7017 28.7336 22.2108 28.6023 21.7921 28.3352C21.6164 28.2183 21.4731 28.0588 21.3756 27.8715C21.2782 27.6843 21.2298 27.4754 21.2349 27.2644V23.9761H20.547V27.2644C20.5441 27.5064 20.6084 27.7446 20.7327 27.9523C20.8698 28.1723 21.0528 28.36 21.2693 28.5026C21.5262 28.6718 21.8088 28.7981 22.1063 28.8764C22.822 29.0568 23.5713 29.0568 24.287 28.8764C24.5853 28.7985 24.8688 28.6722 25.1263 28.5026C25.3436 28.36 25.5262 28.1703 25.6606 27.9477Z" fill="#989898"/>
<path d="M43.0918 23.9761H42.3764L39.5742 26.4274L42.6172 28.9681H43.3211L40.3539 26.542L40.2209 26.4343L40.3516 26.3219L43.0918 23.9761Z" fill="#989898"/>
<path d="M39.2107 28.9681V26.4297V23.9761H38.5273V28.9681H39.2107Z" fill="#989898"/>
<path d="M44.7254 23.9761H44.1797V28.9681H44.7254V23.9761Z" fill="#989898"/>
<path d="M48.1124 28.9681H48.798V27.0557V27.0075L48.8278 26.9709L51.0842 23.9761H50.4055L48.571 26.4297L48.4563 26.5833L48.3417 26.4297L46.5049 23.9761H45.8262L48.0849 26.9709L48.1124 27.0075V27.0557V28.9681Z" fill="#989898"/>
<path d="M52.0312 28.9681H56.7229V28.67H52.8613H52.7169V28.5256V26.6796V26.5375H52.8613H56.2964V26.2394H52.8613H52.7169V26.0949V24.4163V24.2742H52.8613H56.5991V23.9761H52.0312V28.9681Z" fill="#989898"/>
<path d="M65.5288 27.0854C65.3228 26.9001 65.083 26.7561 64.8226 26.6612C64.5122 26.5443 64.1922 26.4545 63.8663 26.3929C63.4972 26.3173 63.1784 26.2439 62.8803 26.1636C62.6042 26.0935 62.3388 25.9863 62.0915 25.8449C61.9779 25.7837 61.8832 25.6926 61.8177 25.5815C61.7522 25.4703 61.7184 25.3433 61.72 25.2143C61.7232 25.072 61.7705 24.9342 61.8553 24.8199C61.9503 24.694 62.0706 24.5893 62.2084 24.5126C62.3697 24.4202 62.5435 24.3514 62.7244 24.3085C62.9391 24.2566 63.1593 24.2312 63.3802 24.2328H65.7834V23.9347H63.3802C63.0547 23.9317 62.7302 23.971 62.4148 24.0517C62.1513 24.1162 61.8987 24.219 61.665 24.3567C61.4799 24.4619 61.3183 24.6039 61.1903 24.774C61.0924 24.9002 61.0377 25.0546 61.0344 25.2143C61.028 25.3344 61.0478 25.4545 61.0926 25.5662C61.1374 25.6779 61.2059 25.7785 61.2935 25.8609C61.5005 26.045 61.74 26.1889 61.9998 26.2852C62.3089 26.4011 62.6272 26.4908 62.9514 26.5534C63.3275 26.6291 63.6508 26.7025 63.9397 26.7828C64.215 26.8511 64.4797 26.9568 64.7263 27.0969C64.8401 27.158 64.9351 27.249 65.001 27.3601C65.0669 27.4713 65.1011 27.5983 65.1 27.7275C65.0953 27.8774 65.0502 28.0231 64.9695 28.1495C64.8887 28.2758 64.7754 28.378 64.6414 28.4452C64.2561 28.6441 63.8245 28.736 63.3917 28.7112H61.0344V29.0093H63.3802C63.7274 29.0127 64.0738 28.975 64.4121 28.897C64.6798 28.8353 64.937 28.7349 65.1757 28.5989C65.3562 28.4974 65.5126 28.3582 65.6343 28.1907C65.7304 28.0569 65.7832 27.8968 65.7857 27.7321C65.7925 27.6121 65.7731 27.4921 65.7287 27.3804C65.6843 27.2687 65.6161 27.168 65.5288 27.0854Z" fill="#989898"/>
<path d="M31.4456 27.0857C31.2399 26.8999 31 26.7558 30.7394 26.6615C30.4295 26.5464 30.1104 26.4582 29.7854 26.3978C29.414 26.3221 29.0975 26.2487 28.7971 26.1685C28.5211 26.0979 28.2558 25.9907 28.0083 25.8498C27.8947 25.7886 27.8 25.6975 27.7345 25.5863C27.669 25.4752 27.6352 25.3482 27.6368 25.2192C27.64 25.0769 27.6873 24.939 27.7721 24.8247C27.8671 24.6988 27.9874 24.5942 28.1252 24.5175C28.2865 24.425 28.4603 24.3563 28.6412 24.3134C28.8559 24.2618 29.0761 24.2364 29.297 24.2377H31.7116V23.9396H29.297C28.9715 23.9367 28.647 23.976 28.3316 24.0566C28.0692 24.1199 27.8173 24.2211 27.5841 24.3569C27.3994 24.4628 27.238 24.6047 27.1094 24.7743C27.0114 24.9005 26.9568 25.0549 26.9535 25.2146C26.9471 25.3347 26.9669 25.4548 27.0117 25.5665C27.0564 25.6782 27.125 25.7787 27.2126 25.8612C27.4196 26.0453 27.6591 26.1891 27.9189 26.2854C28.228 26.4013 28.5463 26.4911 28.8705 26.5537C29.2466 26.6294 29.5699 26.7028 29.8588 26.783C30.1348 26.8514 30.4002 26.9571 30.6476 27.0972C30.7618 27.1581 30.8571 27.2491 30.9234 27.3602C30.9897 27.4713 31.0243 27.5984 31.0237 27.7278C31.019 27.8776 30.9739 28.0234 30.8931 28.1498C30.8124 28.2761 30.6991 28.3783 30.5651 28.4455C30.179 28.6444 29.7467 28.7362 29.3131 28.7115H26.9512V29.0096H29.297C29.6442 29.0131 29.9906 28.9754 30.3289 28.8973C30.5974 28.836 30.8555 28.7355 31.0948 28.5992C31.2748 28.4971 31.4311 28.358 31.5534 28.191C31.6488 28.057 31.7008 27.8969 31.7025 27.7324C31.7093 27.6124 31.6899 27.4924 31.6455 27.3807C31.6011 27.269 31.5329 27.1683 31.4456 27.0857Z" fill="#989898"/>
<path d="M37.1616 27.0857C36.9559 26.8999 36.7161 26.7558 36.4554 26.6615C36.1455 26.5464 35.8264 26.4582 35.5014 26.3978C35.13 26.3221 34.8135 26.2487 34.5154 26.1685C34.2387 26.0979 33.9727 25.9907 33.7243 25.8497C33.6107 25.7886 33.516 25.6975 33.4505 25.5863C33.385 25.4751 33.3512 25.3482 33.3528 25.2191C33.3551 25.0763 33.4034 24.938 33.4904 24.8247C33.584 24.6984 33.7037 24.5936 33.8412 24.5175C34.0036 24.4254 34.178 24.3567 34.3595 24.3134C34.5734 24.2616 34.7929 24.2362 35.013 24.2377H37.4185V23.9396H35.013C34.6875 23.9368 34.363 23.9761 34.0476 24.0565C33.7841 24.1211 33.5315 24.2238 33.2978 24.3615C33.1133 24.4667 32.9525 24.6088 32.8254 24.7789C32.7268 24.9048 32.6713 25.0592 32.6672 25.2191C32.6608 25.3393 32.6807 25.4594 32.7254 25.571C32.7702 25.6827 32.8387 25.7833 32.9263 25.8658C33.1342 26.0499 33.3744 26.1937 33.6349 26.29C33.9432 26.4059 34.2608 26.4957 34.5842 26.5583C34.9603 26.634 35.2721 26.7074 35.5725 26.7876C35.8487 26.8555 36.1141 26.9612 36.3614 27.1018C36.4746 27.1633 36.5691 27.2545 36.6345 27.3656C36.6999 27.4767 36.7339 27.6034 36.7328 27.7324C36.7286 27.8823 36.6837 28.0283 36.6029 28.1547C36.5221 28.2812 36.4085 28.3833 36.2742 28.4501C35.8881 28.6489 35.4558 28.7408 35.0222 28.7161H32.6672V29.0142H35.013C35.361 29.0176 35.7081 28.9798 36.0472 28.9018C36.3149 28.8402 36.5721 28.7397 36.8108 28.6037C36.9908 28.5017 37.1471 28.3625 37.2694 28.1956C37.3648 28.0615 37.4168 27.9015 37.4185 27.7369C37.4265 27.6162 37.4076 27.4951 37.3632 27.3825C37.3188 27.2699 37.2499 27.1685 37.1616 27.0857Z" fill="#989898"/>
<path d="M98.9315 28.1909C99.0269 28.0568 99.0789 27.8967 99.0806 27.7322C99.0876 27.6126 99.0682 27.4928 99.0238 27.3815C98.9794 27.2702 98.9111 27.1699 98.8238 27.0879C98.618 26.902 98.3782 26.758 98.1175 26.6637C97.8078 26.547 97.4886 26.4572 97.1636 26.3954C96.7921 26.3197 96.4756 26.2463 96.1775 26.1661C95.9014 26.0959 95.636 25.9887 95.3887 25.8473C95.2745 25.7867 95.1792 25.6957 95.1133 25.5845C95.0473 25.4733 95.0133 25.346 95.0149 25.2167C95.0172 25.0739 95.0655 24.9356 95.1525 24.8223C95.247 24.6959 95.3674 24.5911 95.5057 24.515C95.667 24.4226 95.8407 24.3539 96.0216 24.3109C96.2355 24.2592 96.455 24.2338 96.6751 24.2353H99.0806V23.9372H96.6751C96.3504 23.9342 96.0266 23.9735 95.712 24.0541C95.4477 24.1183 95.1943 24.221 94.9599 24.3591C94.7754 24.4643 94.6146 24.6064 94.4875 24.7764C94.3889 24.9024 94.3334 25.0568 94.3293 25.2167C94.3229 25.3369 94.3428 25.4569 94.3875 25.5686C94.4323 25.6803 94.5008 25.7809 94.5884 25.8634C94.7963 26.0475 95.0365 26.1913 95.297 26.2876C95.6053 26.4035 95.9229 26.4933 96.2463 26.5559C96.6224 26.6315 96.9457 26.7049 97.2346 26.7852C97.5108 26.8531 97.7762 26.9588 98.0235 27.0993C98.1367 27.1609 98.2312 27.2521 98.2966 27.3632C98.362 27.4742 98.396 27.601 98.3949 27.7299C98.3907 27.8799 98.3458 28.0259 98.265 28.1523C98.1843 28.2787 98.0706 28.3808 97.9363 28.4477C97.5502 28.6465 97.1179 28.7383 96.6843 28.7137H94.3293V29.0118H96.6751C97.0231 29.0153 97.3702 28.9775 97.7093 28.8994C97.977 28.8377 98.2342 28.7373 98.4729 28.6013C98.6532 28.4986 98.8095 28.3586 98.9315 28.1909Z" fill="#989898"/>
<path d="M72.7792 28.9681L70.0275 23.9761H69.3396L66.5879 28.9681H67.2919L67.9798 27.7436L68.0211 27.6702H71.3415L71.3827 27.7436L72.0707 28.9681H72.7792ZM70.9608 27.363H68.1724L68.2894 27.1497L69.5643 24.8566L69.6904 24.6273L69.8166 24.8566L71.0892 27.1497L71.2085 27.363H70.9608Z" fill="#989898"/>
<path d="M79.8754 28.9681H80.561V23.9761H79.9923L77.1787 28.1449L77.0595 28.3215L76.9402 28.1449L74.1312 23.9761H73.5625V28.9681H74.2481V25.5514V25.0745L74.5118 25.4712L76.8347 28.9681H77.2842L79.6117 25.4712L79.8754 25.0768V25.5514V28.9681Z" fill="#989898"/>
<path d="M87.9781 27.4524C88.1615 27.1581 88.2577 26.8178 88.2556 26.471C88.2551 26.126 88.1591 25.7879 87.9781 25.4941C87.7834 25.1767 87.5287 24.9002 87.2283 24.6801C86.8943 24.4389 86.5233 24.2538 86.1299 24.132C85.2752 23.8691 84.3612 23.8691 83.5066 24.132C83.1127 24.2529 82.7416 24.4381 82.4082 24.6801C82.1065 24.8994 81.8509 25.176 81.656 25.4941C81.4767 25.7885 81.3816 26.1263 81.3809 26.471C81.3792 26.8174 81.4745 27.1574 81.656 27.4524C81.8523 27.7689 82.1076 28.0445 82.4082 28.2642C82.7416 28.5062 83.1127 28.6914 83.5066 28.8122C84.3612 29.0752 85.2752 29.0752 86.1299 28.8122C86.5233 28.6905 86.8943 28.5053 87.2283 28.2642C87.5287 28.0451 87.7835 27.7693 87.9781 27.4524ZM87.3314 27.3791C87.1738 27.6537 86.9634 27.8945 86.7123 28.0876C86.4485 28.2904 86.1513 28.4456 85.8341 28.5462C85.1734 28.7633 84.4607 28.7633 83.8001 28.5462C83.4826 28.4447 83.1848 28.2896 82.9195 28.0876C82.6674 27.8967 82.4567 27.6564 82.3004 27.3814C82.147 27.1029 82.0666 26.7901 82.0666 26.4721C82.0666 26.1542 82.147 25.8414 82.3004 25.5629C82.4567 25.2872 82.6673 25.0462 82.9195 24.8544C83.185 24.6528 83.4828 24.4978 83.8001 24.3957C84.4607 24.1787 85.1734 24.1787 85.8341 24.3957C86.1513 24.4963 86.4485 24.6515 86.7123 24.8544C86.964 25.0468 87.1745 25.2878 87.3314 25.5629C87.4881 25.8428 87.5673 26.1595 87.5608 26.4802C87.5632 26.7946 87.4842 27.1043 87.3314 27.3791Z" fill="#989898"/>
<path d="M90.635 28.9681H91.3183V24.4163V24.2742H91.4628H93.6252V23.9761H88.3281V24.2742H90.4905H90.635V24.4163V28.9681Z" fill="#989898"/>
<path d="M102.366 28.4568L102.24 28.2114L100.041 23.9761H99.3281L101.974 28.9681H102.768L105.407 23.9761H104.701L102.495 28.2114L102.366 28.4568Z" fill="#989898"/>
<path d="M106.307 28.9681H110.998V28.67H107.134H106.992V28.5256V26.6796V26.5375H107.134H110.572V26.2394H107.134H106.992V26.0949V24.4163V24.2742H107.134H110.874V23.9761H106.307V28.9681Z" fill="#989898"/>
<path d="M113.514 28.9681H114.197V24.4163V24.2742H114.342H116.504V23.9761H111.207V24.2742H113.369H113.514V24.4163V28.9681Z" fill="#989898"/>
<path d="M119.517 28.9681H120.202V27.0557V27.0075L120.23 26.9709L122.489 23.9761H121.81L119.973 26.4297L119.858 26.5833L119.744 26.4297L117.907 23.9761H117.23L119.487 26.9709L119.517 27.0075V27.0557V28.9681Z" fill="#989898"/>
<path d="M75.244 5.94086V3.54688L69.791 8.9494L75.244 5.94086ZM75.0789 5.84226L70.7587 8.22478L75.0858 3.94817L75.0789 5.84226Z" fill="#D9D9D9"/>
<path d="M75.2073 15.4802V13.0862L69.791 10.041L75.2073 15.4802ZM75.0514 15.0789L70.7633 10.7725L75.0514 13.1848V15.0789Z" fill="#D9D9D9"/>
<path d="M75.4473 6.28965V12.6392H75.4702L76.9469 10.7107L77.9697 9.47246L75.4473 6.28735V6.28965ZM75.6147 6.76202L77.7564 9.47475L76.8162 10.6213L75.6147 12.1668V6.76202Z" fill="#D9D9D9"/>
<path d="M77.9696 12.4374V9.86914L75.6582 12.7928L77.9696 12.4374ZM77.8022 12.2952L76.0503 12.5635L77.8022 10.3461V12.2952Z" fill="#D9D9D9"/>
<path d="M75.4668 13.0471V15.3906L75.5012 15.3746L77.9021 12.6619L75.492 13.0196L75.4668 13.0471ZM75.6342 13.1663L77.4687 12.8935L75.6342 14.9733V13.1663Z" fill="#D9D9D9"/>
<path d="M75.6582 6.16577L77.9696 9.08946V6.52349L75.6582 6.16577ZM77.8022 8.6125L76.0503 6.39508L77.8022 6.67713V8.6125Z" fill="#D9D9D9"/>
<path d="M77.9007 6.30104L75.509 3.58832L75.4746 3.57227V5.91581L75.4998 5.94562L77.9007 6.30104ZM75.6328 3.98961L77.4673 6.06944L75.6328 5.79886V3.98961Z" fill="#D9D9D9"/>
<path d="M61.752 13.0975V15.4915L67.237 10.0798L61.752 13.0975ZM61.9193 13.1961L66.251 10.8045L61.9079 15.0811L61.9193 13.1961Z" fill="#D9D9D9"/>
<path d="M61.7852 3.54688V5.94086L67.2312 8.99985L61.7852 3.54688ZM61.948 3.94817L66.2567 8.26606L61.9411 5.84455L61.948 3.94817Z" fill="#D9D9D9"/>
<path d="M59.0293 9.53432L61.5517 12.7034V6.34692L59.0293 9.53432ZM61.3889 12.2287L59.2426 9.53432L61.3889 6.8193V12.2287Z" fill="#D9D9D9"/>
<path d="M59.0293 9.92651V12.4948L61.3453 12.8502L59.0293 9.92651ZM59.1967 10.4058L60.9509 12.6209L59.1967 12.3526V10.4058Z" fill="#D9D9D9"/>
<path d="M59.1055 12.7192L61.5063 15.432L61.5384 15.448V13.0976L61.5155 13.0701L59.1055 12.7192ZM61.371 15.0307L59.5366 12.9508L61.371 13.2237V15.0307Z" fill="#D9D9D9"/>
<path d="M59.0293 6.58081V9.14678L61.3453 6.21851L59.0293 6.58081ZM59.1967 6.72299L60.9509 6.44781L59.1967 8.66523V6.72299Z" fill="#D9D9D9"/>
<path d="M61.5384 5.97318V3.62964L61.5063 3.64569L59.1055 6.35842L61.5224 6.00299L61.5384 5.97318ZM61.371 5.85623L59.5366 6.12682L61.371 4.04698V5.85623Z" fill="#D9D9D9"/>
<path d="M69.0391 8.24097L74.492 2.80176H72.1003L69.0391 8.24097ZM74.0839 2.96686L69.7774 7.27558L72.2012 2.95998L74.0839 2.96686Z" fill="#D9D9D9"/>
<path d="M64.9116 2.79272H62.5176L67.9728 8.23194L64.9116 2.79272ZM64.8153 2.96012L67.2391 7.27572L62.9189 2.967L64.8153 2.96012Z" fill="#D9D9D9"/>
<path d="M71.694 2.5495L68.5066 0.0270996L65.3398 2.5495H71.694ZM68.5089 0.256409L71.2216 2.39586H65.8145L68.5089 0.256409Z" fill="#D9D9D9"/>
<path d="M68.1151 0.0270996H65.5491L65.1914 2.34312L68.1151 0.0270996ZM65.6913 0.187616H67.6381L65.4207 1.951L65.6913 0.187616Z" fill="#D9D9D9"/>
<path d="M64.9622 2.51038L65.3222 0.100342L62.6095 2.5035L62.5957 2.5356H64.9392L64.9622 2.51038ZM63.0085 2.36821L65.086 0.533736L64.8154 2.36821H63.0085Z" fill="#D9D9D9"/>
<path d="M71.4628 0.0270996H68.8945L71.8182 2.34312L71.4628 0.0270996ZM71.3206 0.194495L71.5912 1.951L69.3715 0.199081L71.3206 0.194495Z" fill="#D9D9D9"/>
<path d="M72.0708 2.5356H74.4143L74.4006 2.5035L71.6855 0.100342L72.041 2.51038L72.0708 2.5356ZM73.997 2.36821H72.19L71.9171 0.533736L73.997 2.36821Z" fill="#D9D9D9"/>
<path d="M72.1008 16.2644H74.4925L69.0625 10.7563L72.1008 16.2644ZM72.1994 16.0992L69.7917 11.7424L74.0958 16.1153L72.1994 16.0992Z" fill="#D9D9D9"/>
<path d="M68.0112 10.7886L62.5605 16.2278H64.9545L68.0112 10.7886ZM62.9664 16.0627L67.2866 11.7563L64.8559 16.0787L62.9664 16.0627Z" fill="#D9D9D9"/>
<path d="M65.3691 16.4663L68.5542 18.9887L71.7233 16.4663H65.3691ZM68.5542 18.7823L65.8392 16.6314H71.2486L68.5542 18.7823Z" fill="#D9D9D9"/>
<path d="M68.9473 18.9932H71.5155L71.871 16.6794L68.9473 18.9932ZM71.3825 18.8304H69.4357L71.6531 17.0716L71.3825 18.8304Z" fill="#D9D9D9"/>
<path d="M72.0976 16.5076L71.7422 18.9176L74.4549 16.5167L74.4687 16.4846H72.1251L72.0976 16.5076ZM74.0513 16.6497L71.9715 18.4842L72.2444 16.6497H74.0513Z" fill="#D9D9D9"/>
<path d="M65.6012 18.9911H68.1717L65.248 16.675L65.6012 18.9911ZM65.7434 18.826L65.4728 17.0695L67.6902 18.8306L65.7434 18.826Z" fill="#D9D9D9"/>
<path d="M64.9959 16.4846H62.6523L62.6661 16.5167L65.3788 18.9176L65.0234 16.5076L64.9959 16.4846ZM63.0697 16.6497H64.8766L65.1472 18.4842L63.0697 16.6497Z" fill="#D9D9D9"/>
<path d="M68.7436 8.37166L71.7475 2.79257L65.3062 2.77881L68.2666 8.38083C68.0403 8.42613 67.8324 8.5374 67.6692 8.70062C67.506 8.86385 67.3947 9.07172 67.3494 9.29807L61.7749 6.29412L61.752 12.7354L67.3654 9.76815C67.4161 9.99428 67.5331 10.2002 67.7013 10.3595C67.8696 10.5188 68.0816 10.6243 68.3102 10.6625L65.3062 16.237L71.7475 16.2622L68.7803 10.6464C68.9975 10.5927 69.1947 10.4777 69.3483 10.315C69.502 10.1524 69.6057 9.94905 69.6471 9.72917L75.2193 12.7285L75.2445 6.28724L69.6379 9.2545C69.5883 9.03749 69.4778 8.83914 69.3194 8.68275C69.161 8.52637 68.9612 8.41844 68.7436 8.37166ZM68.4432 8.34873L65.5837 2.93474L71.4701 2.95767L68.567 8.34873H68.4432ZM61.9171 12.4579L61.94 6.57158L67.3356 9.47464C67.3345 9.48761 67.3345 9.50065 67.3356 9.51362C67.3356 9.54343 67.3356 9.56865 67.3356 9.59617L61.9171 12.4579ZM68.6083 10.6785L71.4701 16.0948L65.5837 16.0787L68.4868 10.69H68.5028L68.6083 10.6785ZM68.7 10.4974C68.635 10.5092 68.569 10.5154 68.5028 10.5157C68.4638 10.5157 68.4294 10.5157 68.3927 10.5157C68.2084 10.4953 68.0334 10.424 67.8873 10.3099C67.7411 10.1957 67.6296 10.0432 67.5652 9.86929C67.5008 9.6954 67.486 9.50702 67.5225 9.3252C67.559 9.14339 67.6454 8.97531 67.7719 8.83976C67.8984 8.7042 68.0602 8.6065 68.239 8.55759C68.4179 8.50868 68.6069 8.51049 68.7848 8.5628C68.9627 8.61511 69.1225 8.71587 69.2465 8.85381C69.3704 8.99176 69.4535 9.16145 69.4865 9.34393C69.4926 9.38573 69.4965 9.42783 69.498 9.47005C69.4991 9.48761 69.4991 9.50523 69.498 9.52279C69.4958 9.56886 69.4912 9.61478 69.4843 9.66038C69.4546 9.86326 69.3636 10.0522 69.2234 10.2018C69.0832 10.3514 68.9005 10.4546 68.7 10.4974ZM69.6654 9.42877L75.0771 6.56929L75.0519 12.4579L69.6677 9.55948C69.6688 9.54421 69.6688 9.52888 69.6677 9.51362C69.6692 9.48532 69.6684 9.45695 69.6654 9.42877Z" fill="#D9D9D9"/>
<path d="M68.5014 8.74097C68.3462 8.74052 68.1943 8.78613 68.0651 8.87202C67.9358 8.95792 67.8349 9.08024 67.7752 9.2235C67.7155 9.36676 67.6996 9.52452 67.7296 9.67679C67.7596 9.82907 67.8341 9.96902 67.9437 10.0789C68.0533 10.1888 68.1931 10.2638 68.3452 10.2942C68.4974 10.3247 68.6552 10.3093 68.7987 10.25C68.9421 10.1907 69.0647 10.0902 69.151 9.96114C69.2373 9.83213 69.2833 9.68041 69.2833 9.52521C69.2833 9.31761 69.201 9.11848 69.0544 8.97148C68.9079 8.82447 68.709 8.74158 68.5014 8.74097ZM68.5014 10.1443C68.3788 10.1448 68.2589 10.1089 68.1568 10.0411C68.0547 9.97336 67.9749 9.87682 67.9277 9.76373C67.8805 9.65064 67.8679 9.52608 67.8916 9.40583C67.9152 9.28558 67.974 9.17505 68.0605 9.08823C68.147 9.00141 68.2573 8.94222 68.3774 8.91814C68.4976 8.89407 68.6222 8.90619 68.7355 8.95299C68.8487 8.99978 68.9456 9.07913 69.0137 9.181C69.0818 9.28286 69.1182 9.40266 69.1182 9.52521C69.1152 9.68702 69.049 9.84123 68.9337 9.95481C68.8184 10.0684 68.6632 10.1323 68.5014 10.1329V10.1443Z" fill="#D9D9D9"/>
<path d="M65.0208 33.1279V35.7994H64.6035V33.5063L63.8353 33.6874L63.7344 33.4169L64.8672 33.1348L65.0208 33.1279Z" fill="#989898"/>
<path d="M67.6722 33.2011C67.8431 33.2692 67.9933 33.3806 68.1079 33.5245C68.2131 33.654 68.2698 33.8162 68.2684 33.9831C68.2692 34.0843 68.248 34.1844 68.2065 34.2766C68.1683 34.3589 68.1198 34.436 68.062 34.5059C68.007 34.5747 67.913 34.6802 67.7823 34.8247L66.9063 35.7992H66.4156L67.3122 34.8224C67.2151 34.8487 67.1147 34.861 67.0141 34.8591C66.8187 34.8603 66.6251 34.8212 66.4454 34.7444C66.2806 34.6768 66.1355 34.5688 66.0235 34.4302C65.9204 34.3059 65.8644 34.1492 65.8652 33.9877C65.8643 33.8205 65.9219 33.6582 66.0281 33.5291C66.144 33.3857 66.2948 33.2743 66.466 33.2057C66.8528 33.0489 67.2854 33.0489 67.6722 33.2057V33.2011ZM67.0714 34.577C67.2093 34.5783 67.3459 34.551 67.4727 34.4967C67.5856 34.447 67.683 34.3678 67.7548 34.2674C67.8215 34.1785 67.8577 34.0703 67.8577 33.959C67.8577 33.8478 67.8215 33.7395 67.7548 33.6506C67.6829 33.5531 67.5852 33.4776 67.4727 33.4328C67.2153 33.3287 66.9275 33.3287 66.6701 33.4328C66.5557 33.4776 66.4558 33.5529 66.3812 33.6506C66.313 33.7389 66.2759 33.8474 66.2759 33.959C66.2759 34.0706 66.313 34.1791 66.3812 34.2674C66.4557 34.3679 66.5554 34.447 66.6701 34.4967C66.7964 34.5532 66.9331 34.5828 67.0714 34.5839V34.577Z" fill="#989898"/>
<path d="M69.9876 33.1279V35.7994H69.5703V33.5063L68.8021 33.6874L68.7012 33.4169L69.8317 33.1348L69.9876 33.1279Z" fill="#989898"/>
<path d="M73.2677 35.5081V35.7993H70.8164V35.719L72.0707 34.7101C72.2397 34.5813 72.3971 34.4378 72.5408 34.2813C72.6329 34.1817 72.6858 34.0522 72.6899 33.9167C72.6901 33.8438 72.6736 33.7719 72.6418 33.7063C72.6101 33.6407 72.5637 33.5833 72.5064 33.5383C72.3652 33.429 72.1895 33.3737 72.0111 33.3824C71.8266 33.3734 71.6451 33.4312 71.4997 33.5452C71.44 33.5906 71.3916 33.6493 71.3582 33.7165C71.3248 33.7837 71.3073 33.8577 71.3071 33.9327C71.3066 34.0103 71.3174 34.0876 71.3392 34.162H70.9242C70.8983 34.0884 70.8851 34.0108 70.8852 33.9327C70.8868 33.7873 70.936 33.6464 71.0251 33.5314C71.1283 33.3962 71.265 33.2903 71.4218 33.2242C71.6115 33.1431 71.8163 33.1032 72.0226 33.1072C72.2195 33.1037 72.4152 33.1396 72.5981 33.2127C72.752 33.275 72.8877 33.3752 72.9926 33.5039C73.0852 33.6206 73.1353 33.7654 73.1347 33.9144C73.134 34.0394 73.0982 34.1617 73.0315 34.2675C72.9643 34.3828 72.8809 34.4878 72.7839 34.5794C72.6853 34.6734 72.5546 34.7835 72.3963 34.9096L71.6167 35.531L73.2677 35.5081Z" fill="#989898"/>
</g>
<defs>
<clipPath id="clip0_1456_4992">
<rect width="137" height="35.7631" fill="white" transform="translate(0 0.0270996)"/>
</clipPath>
</defs>
</svg>
