<svg width="57" height="72" viewBox="0 0 57 72" fill="none" xmlns="http://www.w3.org/2000/svg">
<path d="M1.23047 1.89673H55.7136V56.4931H1.23047V1.89673Z" fill="#989898"/>
<path d="M49.7132 12.326L43.614 22.1755C42.9488 23.2793 43.0479 24.1567 43.3592 24.9916L52.6143 48.667H14.278C10.8392 48.667 8.17869 45.9075 8.17869 42.6243L8.15039 11.0949C8.2353 7.03339 14.1789 6.96263 14.278 11.0807V40.629C14.278 41.563 15.0988 42.6243 16.1743 42.596H44.2508L36.9911 25.4869C36.793 24.8359 36.6656 24.185 36.6656 23.5198C36.6656 22.7981 36.9911 21.6377 37.4581 20.7037L44.1376 9.72217C44.6187 8.73157 45.6235 8.06645 46.8122 8.00984C48.4679 7.95324 49.8972 9.08535 49.968 10.8543C49.968 11.2081 49.8831 11.9723 49.7132 12.326Z" fill="white"/>
<path d="M28.5714 32.2232V11.0809C28.5714 6.96279 34.5858 6.93449 34.6565 11.0809V32.4637C34.6565 37.346 31.0054 40.5725 26.5336 40.5725C22.0476 40.5725 18.3965 37.2752 18.3965 32.4637V11.0809C18.3965 6.96279 24.4816 6.96279 24.4816 11.0809V32.2232C24.4816 35.0676 28.5714 35.2374 28.5714 32.2232Z" fill="white"/>
<path d="M9.41043 61.6301V70.2908H6.99053V63.6962H5.26405V67.1209C5.26405 68.3662 5.13668 70.3899 2.10827 70.3899C1.75448 70.3899 1.48561 70.3899 1.10352 70.2908V68.2106C1.28748 68.253 1.4573 68.2955 1.62712 68.2955C2.70263 68.2955 2.82999 67.6304 2.82999 66.3992V61.6301H9.41043Z" fill="#989898"/>
<path d="M13.1613 61.6301L14.8595 65.2671L16.2463 61.6301H18.8785L14.9869 70.2908H12.383L13.5576 67.8992L10.3027 61.6301H13.1613Z" fill="#989898"/>
<path d="M19.6836 61.6301H22.1035V65.2671L24.7215 61.6301H27.566L24.2687 65.819L27.6509 70.2908H24.6225L22.1035 66.5548V70.2908H19.6836V61.6301Z" fill="#989898"/>
<path d="M40.855 61.6299V66.8235L44.2089 61.6299H46.5722V70.2906H44.2372V65.0828L40.8833 70.2906H38.5059V61.6299H40.855ZM45.1429 59.7619C44.6759 60.7808 43.5721 61.1487 42.539 61.1487C41.5201 61.1487 40.4163 60.7808 39.9493 59.7619L41.3362 59.2524C41.5484 59.8468 42.1003 59.9742 42.539 59.9742C42.9919 59.9742 43.5296 59.8468 43.7561 59.2524L45.1429 59.7619Z" fill="#989898"/>
<path d="M55.8133 61.6301V70.2908H53.3792V63.6962H51.6527V67.1209C51.6527 68.3662 51.5254 70.3899 48.5111 70.3899C48.1573 70.3899 47.8743 70.3899 47.4922 70.2908V68.2106C47.6762 68.253 47.8601 68.2955 48.0299 68.2955C49.0913 68.2955 49.2328 67.6304 49.2328 66.3992V61.6301H55.8133Z" fill="#989898"/>
<path fill-rule="evenodd" clip-rule="evenodd" d="M27.75 65.9607C27.75 63.5833 29.2784 61.2625 32.5332 61.2625C35.7739 61.2625 37.3022 63.5833 37.3022 65.9607C37.3022 68.3382 35.7739 70.659 32.5332 70.659C29.2784 70.659 27.75 68.3382 27.75 65.9607ZM34.7408 65.9607C34.7408 64.2484 33.6795 63.3852 32.5332 63.3852C31.3728 63.3852 30.3114 64.2484 30.3114 65.9607C30.3114 67.6731 31.3728 68.5222 32.5332 68.5222C33.6795 68.5222 34.7408 67.6731 34.7408 65.9607Z" fill="#989898"/>
</svg>
