<svg width="109" height="48" viewBox="0 0 109 48" fill="none" xmlns="http://www.w3.org/2000/svg">
<g clip-path="url(#clip0_1456_486)">
<path fill-rule="evenodd" clip-rule="evenodd" d="M78.0046 24.8576C78.0046 26.5296 78.1483 27.9155 78.4827 29.1108C78.7714 30.2093 79.2509 31.1655 79.8257 31.833C80.4488 32.5501 81.0719 33.0752 81.7917 33.4096C82.5087 33.7574 83.2954 33.9374 84.0922 33.936C84.9558 33.936 85.7226 33.7453 86.4424 33.4096C87.2207 32.9952 87.9062 32.4262 88.4569 31.7376V31.6906C89.0787 30.9735 89.5111 30.0186 89.8468 28.8704C90.1826 27.6295 90.3733 26.1952 90.3733 24.4279C90.3733 22.8029 90.2296 21.37 89.8938 20.2231C89.5581 19.0762 89.1283 18.1683 88.5039 17.4512C87.8807 16.7354 87.2576 16.162 86.5378 15.8262C85.8373 15.4794 85.0659 15.3001 84.2843 15.3025C83.4691 15.3025 82.7506 15.4932 82.0308 15.8262C81.2245 16.2608 80.5214 16.8641 79.9694 17.5949C79.2979 18.3604 78.8184 19.3622 78.4827 20.5575C78.1602 21.968 77.9998 23.4107 78.0046 24.8576ZM71.4832 42.441V11.1447C71.4832 10.4759 72.011 9.94943 72.6825 9.94943C74.2645 9.94943 76.4696 10.5229 78.0516 11.6228C78.5794 11.193 79.1072 10.8103 79.682 10.5229C79.682 10.5229 79.7303 10.5229 79.7303 10.4759C80.4567 10.0911 81.23 9.80221 82.0308 9.61638C82.9286 9.42131 83.845 9.32494 84.7637 9.32898C86.0113 9.32898 87.2093 9.47268 88.3602 9.80708C89.5111 10.1415 90.5653 10.6196 91.5725 11.2884C92.5559 11.9435 93.4298 12.7498 94.1618 13.6775C94.8802 14.5853 95.5047 15.6355 95.9828 16.8308C96.4622 17.9776 96.8463 19.2199 97.0854 20.4621C97.3258 21.7514 97.4695 23.0419 97.4695 24.4279C97.4695 25.9092 97.3258 27.2938 97.0854 28.6313C96.798 29.9703 96.4139 31.2125 95.8875 32.4064C95.8875 32.4064 95.8875 32.4548 95.8391 32.4548C95.3382 33.5943 94.6766 34.6562 93.8744 35.608C93.0592 36.5642 92.1473 37.3767 91.0931 37.9985L91.0447 38.0455C90.0375 38.6659 88.9833 39.144 87.8807 39.4784C86.7756 39.8043 85.6285 39.9654 84.4763 39.9565C83.6529 39.9609 82.8321 39.8643 82.0321 39.6691C78.3874 38.8096 78.484 38.5706 78.484 40.1956V43.7786C78.484 44.2083 78.2437 44.6381 77.8596 44.8301L73.3056 47.5536C73.0367 47.7114 72.7174 47.7596 72.4139 47.6884C72.1103 47.6171 71.8459 47.4318 71.6752 47.1709C71.5799 46.9802 71.4832 46.7882 71.4832 46.5505V42.441ZM11.2649 33.6486C12.0614 33.867 12.8832 33.9799 13.7091 33.9844C14.6693 33.9844 15.4845 33.8877 16.1546 33.697C16.7791 33.5063 17.2585 33.2672 17.6412 32.9798C18.0253 32.6455 18.3127 32.3111 18.5048 31.9767C18.6968 31.6423 18.7438 31.2595 18.7438 30.8781C18.7438 30.5424 18.6968 30.2563 18.5518 30.0656C18.3973 29.7985 18.1842 29.5698 17.9286 29.3968C17.6896 29.2531 17.2572 29.0611 16.5857 28.8717C15.6043 28.568 14.6131 28.297 13.6137 28.0592C11.888 27.6295 10.4497 27.2468 9.25178 26.864C8.00417 26.4826 7.04529 26.0999 6.37381 25.7655C5.63616 25.4499 4.95591 25.0142 4.36072 24.4762C3.80193 23.9606 3.30321 23.3835 2.87406 22.7559C2.49132 22.1341 2.20258 21.417 1.96353 20.7012C1.77076 19.9843 1.67411 19.245 1.67614 18.5027C1.67614 17.0698 2.01188 15.7792 2.63501 14.5853C2.63501 14.5853 2.63501 14.537 2.68336 14.537C2.97075 13.9635 3.35484 13.4384 3.78459 12.9603C4.21702 12.4823 4.69646 12.0042 5.27124 11.6228C5.74822 11.3053 6.24476 11.0182 6.7579 10.7633C7.3482 10.4957 7.9573 10.2718 8.5803 10.0931H8.6273C9.29878 9.90243 9.97026 9.75873 10.6901 9.66338C11.4213 9.56796 12.1578 9.51996 12.8952 9.51968C13.9965 9.51968 15.052 9.61503 16.0592 9.75873C17.0665 9.95077 18.0253 10.1885 18.9359 10.5242C21.6218 11.5274 24.1627 13.9635 24.8328 16.8308C25.0732 17.9293 24.6891 18.7418 23.1071 18.7418H20.0854C18.8875 18.7418 18.2644 18.7418 17.7849 17.8823C16.8744 16.209 14.9083 15.6839 13.1343 15.5402C11.2165 15.3495 8.91604 15.6355 8.67565 17.2605C8.2929 19.7933 12.6078 20.3184 14.0461 20.7012H14.0931C15.7235 21.1309 17.1148 21.5123 18.2644 21.8964C19.4153 22.2778 20.3742 22.6122 21.0443 22.8982C21.7634 23.2104 22.4402 23.612 23.0587 24.0935C23.6349 24.5702 24.1627 25.0967 24.5938 25.7655C25.0248 26.3859 25.3606 27.1031 25.601 27.9155C25.7917 28.681 25.9367 29.4922 25.9367 30.4C25.9367 31.2595 25.7917 32.119 25.5526 32.9798C25.2977 33.8325 24.9092 34.6393 24.4017 35.3703L24.3534 35.4173C23.8326 36.1747 23.2027 36.8508 22.484 37.4237C21.7136 38.0268 20.8769 38.54 19.9901 38.9533C19.0796 39.3347 18.0723 39.6691 17.0181 39.8612C15.9422 40.0554 14.8507 40.1511 13.7574 40.1472C10.8808 40.1472 7.86181 39.7175 5.46329 38.0455C3.64223 36.8033 2.10723 34.9392 1.62779 32.8375C1.38875 31.7376 1.77149 30.9265 3.3535 30.9265H6.37516C7.57308 30.9265 8.19621 30.9265 8.67565 31.786C9.20343 32.6938 10.1623 33.3142 11.2649 33.6486ZM41.4224 34.0314V37.4237C41.4224 40.0519 36.628 39.8142 34.9493 39.5738C31.8806 38.9533 30.2986 36.8503 29.9629 33.8393C29.858 32.6641 29.81 31.4845 29.8192 30.3047V17.4042C29.8192 16.2573 29.7239 15.9229 28.5246 15.9229H27.6141C27.4564 15.9249 27.2999 15.8953 27.1537 15.836C27.0076 15.7767 26.8748 15.6888 26.7631 15.5775C26.6514 15.4662 26.563 15.3336 26.5032 15.1877C26.4434 15.0418 26.4134 14.8854 26.4148 14.7277V11.1447C26.4148 10.4759 26.9426 9.94943 27.6141 9.94943H28.4776C29.7709 9.94943 29.8205 9.37733 29.8205 8.13509V6.12602C29.8205 5.69628 30.0596 5.26653 30.4423 5.07583L34.9977 2.3523C35.2664 2.19443 35.5856 2.14598 35.8891 2.21698C36.1926 2.28798 36.4572 2.47299 36.628 2.73371C36.7234 2.92441 36.8187 3.11645 36.8187 3.3555V8.65884C36.8187 9.71038 37.2511 9.94809 38.2584 9.94809H40.2715C40.9429 9.94809 41.4694 10.4745 41.4694 11.1433V14.7263C41.4694 15.3965 40.9429 15.9216 40.2715 15.9216H38.3537C37.3465 15.9216 36.8187 15.9216 36.8187 17.6889V30.5894C36.8187 31.7363 36.8671 32.4051 36.9637 32.6441C37.2028 33.1705 37.7789 33.1705 38.257 33.1705C38.7365 33.1705 39.3609 33.1222 40.1278 32.9785C40.4373 32.9539 40.7445 33.0494 40.9855 33.2452C41.2265 33.441 41.383 33.7234 41.4224 34.0314ZM52.0653 20.9402H60.1204C61.1746 20.9402 61.8945 20.3668 61.7024 19.3622C61.4634 18.0246 59.7847 16.5917 58.6821 16.0666C57.9153 15.6839 57.0034 15.4932 55.9962 15.4932C55.087 15.4932 54.2718 15.6355 53.5036 15.9229C52.209 16.448 50.6754 17.6419 50.2443 19.0278C49.8602 20.2701 50.7237 20.9886 52.0653 20.9402ZM67.312 30.0173C68.5582 30.0173 68.847 30.6377 68.6549 31.4972C67.8397 35.0332 63.7169 38.4269 60.4091 39.4287C59.0178 39.8585 57.9153 40.0505 56.1896 40.0505C54.0798 40.0505 52.1137 39.7148 50.388 39.0473C48.6682 38.3879 47.1134 37.3602 45.8327 36.0364C44.538 34.6988 43.5792 33.0739 42.956 31.2112C42.3329 29.3471 41.9972 27.2924 41.9972 24.953C41.9972 22.5625 42.3329 20.4138 42.956 18.5014C43.5438 16.6457 44.5438 14.947 45.881 13.5324C47.1756 12.1465 48.6609 11.095 50.3396 10.4262C52.1097 9.72558 53.9972 9.36914 55.9008 9.37599C57.8669 9.37599 59.688 9.71038 61.3197 10.3792C62.977 11.0722 64.465 12.1153 65.6816 13.4371C66.9762 14.7747 67.8881 16.4467 68.5582 18.3107C69.6138 21.5607 70.1886 27.0534 65.2022 27.0534H51.9216C49.6682 27.0534 48.6623 27.3891 50.2913 30.447C50.58 30.9721 50.9158 31.4502 51.3469 31.88C51.97 32.5488 52.6898 33.0752 53.5036 33.4096C53.552 33.4096 53.552 33.4566 53.6003 33.4566C54.4276 33.7707 55.3047 33.9327 56.1896 33.9347C56.908 33.9347 57.5795 33.8393 58.204 33.6473C59.5926 33.2176 60.3608 32.4534 61.223 31.3065C61.7991 30.5894 62.3256 29.9689 63.9089 29.9689C65.4909 30.0159 66.6888 29.9219 67.312 30.0173ZM107.681 16.6857V11.193C102.792 11.193 98.8124 7.22725 98.8124 2.35365H93.2499C93.2705 6.16574 94.8007 9.81438 97.5054 12.5008C100.21 15.1872 103.869 16.6911 107.681 16.6857Z" fill="#989898"/>
<path fill-rule="evenodd" clip-rule="evenodd" d="M107.681 9.95076C106.681 9.95394 105.691 9.75975 104.766 9.37932C103.841 8.99888 103.001 8.43969 102.293 7.73379C101.585 7.02789 101.023 6.18916 100.639 5.2657C100.256 4.34223 100.059 3.35218 100.059 2.35229H107.681V9.94942V9.95076Z" fill="#989898"/>
</g>
<defs>
<clipPath id="clip0_1456_486">
<rect width="108.78" height="47.0036" fill="white" transform="translate(0.109375 0.740967)"/>
</clipPath>
</defs>
</svg>
