<svg width="39" height="49" viewBox="0 0 39 49" fill="none" xmlns="http://www.w3.org/2000/svg">
<g clip-path="url(#clip0_1456_4769)">
<path d="M0.947266 1.54333H38.012V38.6851H0.947266V1.54333Z" fill="#989898"/>
<path d="M33.9313 8.63836L29.782 15.3389C29.3295 16.0898 29.3969 16.6867 29.6087 17.2547L35.9049 33.361H9.82483C7.48542 33.361 5.6755 31.4837 5.6755 29.2502L5.65625 7.80079C5.71401 5.03779 9.75744 4.98965 9.82483 7.79117V27.8928C9.82483 28.5281 10.3832 29.2502 11.1149 29.2309H30.2152L25.2765 17.5917C25.1417 17.1488 25.0551 16.706 25.0551 16.2535C25.0551 15.7625 25.2765 14.9731 25.5942 14.3377L30.1382 6.86695C30.4655 6.19305 31.1491 5.74057 31.9578 5.70206C33.0841 5.66356 34.0565 6.43373 34.1046 7.63713C34.1046 7.87781 34.0469 8.39768 33.9313 8.63836Z" fill="white"/>
<path d="M19.547 22.1744V7.79135C19.547 4.98983 23.6385 4.97058 23.6867 7.79135V22.338C23.6867 25.6594 21.2028 27.8544 18.1606 27.8544C15.1088 27.8544 12.625 25.6113 12.625 22.338V7.79135C12.625 4.98983 16.7647 4.98983 16.7647 7.79135V22.1744C16.7647 24.1094 19.547 24.225 19.547 22.1744Z" fill="white"/>
<path d="M6.51249 42.1798V48.0717H4.86624V43.5854H3.69172V45.9152C3.69172 46.7624 3.60508 48.139 1.54486 48.139C1.30418 48.139 1.12126 48.139 0.861328 48.0717V46.6565C0.986482 46.6853 1.10201 46.7142 1.21753 46.7142C1.9492 46.7142 2.03585 46.2617 2.03585 45.4242V42.1798H6.51249Z" fill="#989898"/>
<path d="M9.06383 42.1798L10.2191 44.654L11.1626 42.1798H12.9532L10.3057 48.0717H8.53434L9.3334 46.4447L7.11914 42.1798H9.06383Z" fill="#989898"/>
<path d="M13.502 42.1798H15.1482V44.654L16.9292 42.1798H18.8643L16.6212 45.0295L18.9221 48.0717H16.8618L15.1482 45.5301V48.0717H13.502V42.1798Z" fill="#989898"/>
<path d="M27.9048 42.1796V45.7128L30.1864 42.1796H31.7941V48.0715H30.2057V44.5287L27.924 48.0715H26.3066V42.1796H27.9048ZM30.8218 40.9088C30.5041 41.602 29.7532 41.8523 29.0504 41.8523C28.3572 41.8523 27.6063 41.602 27.2886 40.9088L28.2321 40.5623C28.3765 40.9666 28.7519 41.0532 29.0504 41.0532C29.3585 41.0532 29.7243 40.9666 29.8783 40.5623L30.8218 40.9088Z" fill="#989898"/>
<path d="M38.0807 42.1798V48.0717H36.4248V43.5854H35.2503V45.9152C35.2503 46.7624 35.1637 48.139 33.1131 48.139C32.8724 48.139 32.6799 48.139 32.4199 48.0717V46.6565C32.5451 46.6853 32.6702 46.7142 32.7858 46.7142C33.5078 46.7142 33.6041 46.2617 33.6041 45.4242V42.1798H38.0807Z" fill="#989898"/>
<path fill-rule="evenodd" clip-rule="evenodd" d="M18.9902 45.1259C18.9902 43.5085 20.03 41.9297 22.2442 41.9297C24.4489 41.9297 25.4886 43.5085 25.4886 45.1259C25.4886 46.7433 24.4489 48.3221 22.2442 48.3221C20.03 48.3221 18.9902 46.7433 18.9902 45.1259ZM23.7461 45.1259C23.7461 43.961 23.024 43.3738 22.2442 43.3738C21.4548 43.3738 20.7328 43.961 20.7328 45.1259C20.7328 46.2908 21.4548 46.8684 22.2442 46.8684C23.024 46.8684 23.7461 46.2908 23.7461 45.1259Z" fill="#989898"/>
</g>
<defs>
<clipPath id="clip0_1456_4769">
<rect width="38.5088" height="48.136" fill="white" transform="translate(0.246094 0.840698)"/>
</clipPath>
</defs>
</svg>
