<svg width="101" height="17" viewBox="0 0 101 17" fill="none" xmlns="http://www.w3.org/2000/svg">
<path fill-rule="evenodd" clip-rule="evenodd" d="M99.3305 1.51178V4.48991C97.7876 3.90746 96.4139 3.61296 95.2117 3.61296C94.4995 3.61296 93.9325 3.74483 93.5061 3.99978C93.0797 4.25693 92.8621 4.57345 92.8621 4.94709C92.8621 5.44381 93.3434 5.88556 94.3127 6.28122L97.1128 7.64391C99.3767 8.72308 100.5 10.1561 100.5 11.9562C100.5 13.4529 99.9042 14.6464 98.7019 15.5299C97.5084 16.4223 95.9018 16.8641 93.9017 16.8641C92.9786 16.8641 92.15 16.8245 91.4137 16.741C90.6774 16.6619 89.8312 16.4992 88.8927 16.2662V13.1496C90.6136 13.7321 92.1808 14.0266 93.5918 14.0266C95.2754 14.0266 96.1128 13.5387 96.1128 12.554C96.1128 12.0639 95.7699 11.6683 95.0732 11.3583L91.9632 10.033C90.8159 9.5143 89.9631 8.88571 89.4048 8.14063C88.8553 7.38896 88.5762 6.52738 88.5762 5.54273C88.5762 4.16461 89.1564 3.05467 90.3037 2.21068C91.4598 1.37327 92.994 0.953491 94.9017 0.953491C95.5215 0.953491 96.2359 1.00842 97.0271 1.10953C97.8249 1.21723 98.592 1.3491 99.3305 1.51178Z" fill="#989898"/>
<path fill-rule="evenodd" clip-rule="evenodd" d="M11.2477 1.51166V4.48979C9.70478 3.90734 8.33331 3.61284 7.13105 3.61284C6.41672 3.61284 5.85189 3.74471 5.42548 3.99966C4.99911 4.25681 4.78151 4.57333 4.78151 4.94697C4.78151 5.44369 5.26944 5.88544 6.23872 6.2811L9.03884 7.64379C11.2939 8.72296 12.4192 10.156 12.4192 11.956C12.4192 13.4528 11.8214 14.6463 10.6279 15.5298C9.42567 16.4222 7.8278 16.8639 5.82114 16.8639C4.898 16.8639 4.06718 16.8244 3.33089 16.7409C2.59459 16.6618 1.75718 16.4991 0.812124 16.2661V13.1495C2.53967 13.732 4.10678 14.0265 5.50901 14.0265C7.19261 14.0265 8.03002 13.5385 8.03002 12.5539C8.03002 12.0638 7.68934 11.6681 6.99918 11.3582L3.88917 10.0329C2.73305 9.51418 1.88027 8.88559 1.33082 8.14051C0.772528 7.38883 0.5 6.52726 0.5 5.5426C0.5 4.16448 1.07586 3.05455 2.22974 2.21055C3.37707 1.37315 4.91337 0.953369 6.82117 0.953369C7.44757 0.953369 8.1531 1.00829 8.95311 1.10941C9.74438 1.21711 10.5114 1.34898 11.2477 1.51166Z" fill="#989898"/>
<path fill-rule="evenodd" clip-rule="evenodd" d="M14.457 1.23181H19.0177V16.5842H14.457V1.23181Z" fill="#989898"/>
<path fill-rule="evenodd" clip-rule="evenodd" d="M33.7102 1.23181V4.06934H26.9341V7.47384H32.8113V10.0322H26.9341V13.606H33.8487V16.5842H22.5449V1.23181H33.7102Z" fill="#989898"/>
<path fill-rule="evenodd" clip-rule="evenodd" d="M55.0007 1.23181V16.5842H50.7431V6.45843L46.3256 16.7248H43.6969L39.4484 6.45843V16.5842H36.3691V1.23181H41.9364L45.7366 10.63L49.7126 1.23181H55.0007Z" fill="#989898"/>
<path fill-rule="evenodd" clip-rule="evenodd" d="M69.6887 1.23181V4.06934H62.9496V7.47384H68.8268V10.0322H62.9496V13.606H69.8272V16.5842H58.5234V1.23181H69.6887Z" fill="#989898"/>
<path fill-rule="evenodd" clip-rule="evenodd" d="M85.691 1.23181V16.5842H80.8535L75.425 6.73755V16.5842H72.3477V1.23181H77.3261L82.6142 10.9092V1.23181H85.691Z" fill="#989898"/>
</svg>
