<svg width="53" height="72" viewBox="0 0 53 72" fill="none" xmlns="http://www.w3.org/2000/svg">
<g clip-path="url(#clip0_1456_628)">
<path d="M52.4436 9.15962C34.5218 9.60225 26.4952 0.993408 26.4952 0.993408C26.4952 0.993408 18.4765 9.60225 0.556366 9.15962L0.384766 35.9612C0.40401 44.6102 1.67738 52.7555 8.56381 59.3212C14.7205 65.1861 22.5067 69.6829 26.4839 71.4839V71.492H26.4936H26.5032V71.4839C30.4804 69.6829 38.2666 65.1861 44.4233 59.3212C51.3194 52.7555 52.5879 44.6102 52.6023 35.9612L52.4436 9.15962Z" fill="#989898"/>
<path d="M26.5056 2.72876C26.5056 2.72876 19.0178 10.3096 1.73438 10.3481L1.7456 36.8642C1.76485 45.5132 3.41669 52.985 10.5485 59.2909C15.9803 64.1021 23.117 68.2044 26.5056 69.8835C29.8927 68.2044 37.0293 64.0956 42.4628 59.2909C49.593 52.985 51.2464 45.5132 51.2657 36.8642L51.2769 10.3481C33.9935 10.3096 26.5056 2.72876 26.5056 2.72876Z" fill="white"/>
<path d="M26.5048 4.6582C26.5048 4.6582 19.5061 11.7563 3.36133 11.7916L3.37095 37.1017C3.39019 45.1814 4.93459 52.1608 11.5933 58.0513C16.6691 62.5418 23.339 66.3907 26.508 67.9656C29.6722 66.3971 36.3421 62.5402 41.4227 58.0513C48.075 52.1608 49.6194 45.1814 49.6355 37.1017L49.6483 11.7916C33.5035 11.7563 26.5048 4.6582 26.5048 4.6582Z" fill="#989898"/>
<path d="M17.7813 30.2198L17.9225 29.9408L18.6971 28.414L18.843 28.1494L18.75 27.8591L18.2689 26.334L18.0427 25.6219L17.3323 25.8481L15.8376 26.3292L15.1159 26.5457L15.342 27.2561L15.5024 27.7373L12.7488 28.6081L10.4362 21.3352L13.1802 20.4627L13.3406 20.9695L13.5667 21.6816L14.2788 21.4554L15.7735 20.9743L16.4839 20.7482L16.2578 20.0393L15.3966 17.3306L15.1705 16.6202L14.46 16.8463L12.9653 17.3274L12.2549 17.5536L12.303 17.7043L12.1073 17.5969L11.8122 17.6915L8.26157 18.8141L7.96648 18.9071L7.82535 19.1829L7.0748 20.6407L7.03792 20.7129L7.01707 20.7899V20.7979L6.96094 21.008L7.02669 21.2165L10.0161 30.6208L10.1091 30.9159L10.3833 31.0586L11.9165 31.8508L12.1907 31.992L12.4842 31.899L17.4846 30.3097L17.7813 30.2198ZM25.9844 26.1175H25.4183V25.6011L26.4367 24.1433L27.1824 26.1175H26.8136V29.1742H31.2431V26.1175H30.4556L28.5584 21.1058L30.3899 18.4853H31.2415V15.427H26.8152V18.3137L25.4183 20.3152V18.4853H25.9828V15.427H21.6431V18.4853H22.198V26.1191H21.6431V29.1758H25.9828L25.9844 26.1175ZM44.0745 18.527L40.3186 17.3403L39.6082 17.1157L39.3836 17.8262L38.9121 19.3193L38.6876 20.0313L39.0404 20.142L34.7681 26.7959L34.1378 26.597L33.9133 27.3075L33.437 28.8021L33.2125 29.5126L33.9229 29.7371L36.7246 30.624L37.4351 30.8485L37.6596 30.1381L38.1311 28.645L38.3556 27.9345L37.7799 27.7517L38.1167 27.2273L40.1871 27.8816L40.1727 28.5022L39.5969 28.321L39.3708 29.0315L38.8897 30.5246L38.6652 31.235L39.3756 31.4595L42.1773 32.3448L42.8878 32.5693L43.1123 31.8589L43.5838 30.3658L43.8083 29.6553L43.1781 29.4565L43.4988 21.5549L43.8516 21.6671L44.0761 20.9567L44.5476 19.4636L44.7722 18.7531L44.0745 18.527ZM40.3122 25.0141L39.6707 24.8121L40.3667 23.7247L40.3122 25.0141ZM29.5383 42.6712L26.4912 33.3102L23.4441 42.6712H13.6116L21.5693 48.4575L18.5223 57.8201L26.4848 52.0338L34.4602 57.8185L31.4131 48.4575L39.3756 42.6728L29.5383 42.6712Z" fill="white"/>
<path d="M25.237 26.8663H24.6725V25.3684L26.6338 22.5619L28.2648 26.8663H27.5624V28.4332H30.5004V26.8663H29.9439L27.7244 21.0047L30.0049 17.7411H30.5004V16.1742H27.5608V17.7411H28.1285L24.6725 22.6854V17.7395H25.237V16.1726H22.3887V17.7395H22.9436V26.8663H22.3887V28.4332H25.237V26.8663ZM43.38 20.7304L43.8515 19.2373L40.094 18.0458L39.6225 19.5388L40.1934 19.7201L35.0871 27.6746L34.6236 27.5286L34.1521 29.0233L36.9522 29.9134L37.4253 28.4203L36.6315 28.1701L37.8006 26.3451L40.96 27.3442L40.8686 29.5109L40.0763 29.2607L39.6048 30.7538L42.4065 31.639L42.878 30.1459L42.4146 30L42.8059 20.554L43.38 20.7304ZM41.0161 26.0227L38.5175 25.2337L41.2294 20.9998L41.0161 26.0227ZM18.0314 28.0787L17.5503 26.5536L16.0556 27.0347L16.4341 28.2263L12.2644 29.5494L9.50113 20.8555L13.6708 19.5308L14.0589 20.7497L15.5536 20.2685L14.6876 17.5646L13.1929 18.0458L13.326 18.4611L12.5883 18.6873L12.0431 18.4018L8.49078 19.5244L7.74023 20.9822V20.9902L10.7216 30.3945L12.2563 31.1868L17.2568 29.5975L18.0314 28.0787ZM28.7299 43.8146L26.4959 36.9377L24.2619 43.8146H17.0323L22.8811 48.0645L20.6471 54.9316L26.4959 50.6817L32.3463 54.9316L30.1123 48.0548L35.9611 43.8049L28.7299 43.8146Z" fill="#D9D9D9"/>
<path d="M25.362 26.7396H24.7975V25.4053L26.6033 22.8216L28.0868 26.7396H27.4453V28.5534H30.6303V26.7396H30.0353L27.8686 21.019L30.0706 17.8629H30.6255V16.0491H27.4388V17.8629H27.8927L24.7959 22.2924V17.8629H25.3604V16.0491H22.2652V17.8629H22.8201V26.7396H22.2652V28.5534H25.3604L25.362 26.7396ZM25.115 28.3096H22.5138V26.9913H23.0687V17.6143H22.5138V16.2944H25.115V17.6143H24.5505V23.067L28.3674 17.6143H27.6858V16.2944H30.3769V17.6143H29.9423L27.5864 20.9822L29.8589 26.9833H30.3769V28.3096H27.6858V26.9913H28.4444L26.6691 22.302L24.5505 25.3267V26.9865H25.115V28.3096ZM43.4601 20.8891L44.007 19.1603L40.0137 17.895L39.4669 19.6238L40.0009 19.7938L35.0293 27.5334L34.5386 27.373L33.9981 29.1115L37.0356 30.0737L37.5825 28.3433L36.8255 28.1043L37.8583 26.5006L40.8364 27.442L40.7563 29.352L39.9993 29.1131L39.454 30.8419L42.4915 31.8042L43.0384 30.0753L42.5476 29.915L42.9293 20.7256L43.4601 20.8891ZM42.2942 29.9935V30.0882L42.7304 30.2261L42.3327 31.4834L39.7667 30.6719L40.1645 29.4146L40.9936 29.6776L41.0962 27.256L37.7573 26.2007L36.4486 28.2423L37.2778 28.5037L36.8736 29.753L34.3076 28.9415L34.7054 27.6826L35.14 27.8205L40.3858 19.6495L39.7796 19.457L40.1741 18.2061L43.7023 19.3175L43.3046 20.5748L42.6968 20.384L42.2942 29.9935ZM41.1363 26.1847L41.3753 20.5427L38.3282 25.2978L41.1363 26.1847ZM40.9022 25.8511L38.7115 25.1583L41.0898 21.4456L40.9022 25.8511ZM17.3465 29.7001L18.1677 28.0835L17.6304 26.3932L15.9 26.9448L16.2785 28.1364L12.3493 29.3857L9.65825 20.9324L13.5874 19.6831L13.9739 20.9004L15.7043 20.3487L14.7693 17.4042L13.0389 17.9543L13.1704 18.3697L12.5899 18.5541L12.0446 18.2686L8.39451 19.4297L7.62632 20.9324L7.60547 20.9998L10.6061 30.4394L10.6221 30.4875L12.2467 31.3262L17.2968 29.7225L17.3465 29.7001ZM12.2691 31.06L10.8258 30.3143L7.86688 21.0126L8.58054 19.6334L12.0334 18.5349L12.5786 18.8203L13.488 18.53L13.3565 18.1147L14.6154 17.7137L15.4012 20.1867L14.1423 20.5876L13.7558 19.3688L9.34873 20.7721L12.1873 29.7017L16.588 28.3032L16.2095 27.1116L17.4684 26.7107L17.8998 28.0691L17.1717 29.5028L12.2691 31.06ZM26.8118 37.3675L26.491 36.4053L26.1703 37.3675L24.1368 43.6477H16.519L17.3385 44.2443L22.6934 48.1254L20.6534 54.4056L20.3327 55.3678L21.1538 54.7728L26.4958 50.8918L31.8347 54.7712L32.6558 55.3662L32.335 54.404L30.2951 48.1237L35.6371 44.2427L36.4566 43.6461H28.8517L26.8118 37.3675ZM29.9198 48.0003L32.0351 54.5082L26.4991 50.486L20.9614 54.5082L23.0767 48.0003L17.5406 43.9781H24.3837L26.4991 37.4701L28.6144 43.9781H35.4575L29.9198 48.0003Z" fill="#989898"/>
</g>
<defs>
<clipPath id="clip0_1456_628">
<rect width="52.2288" height="70.4985" fill="white" transform="translate(0.384766 0.993408)"/>
</clipPath>
</defs>
</svg>
