<svg width="111" height="24" viewBox="0 0 111 24" fill="none" xmlns="http://www.w3.org/2000/svg">
<path d="M89.3872 4.95966C89.3337 4.6033 89.2625 4.55579 89.1556 4.55579H77.9896C76.2613 4.55579 74.919 4.76366 74.8655 5.03093L71.6523 22.9321C71.6523 23.033 71.7533 23.1103 71.878 23.1518C72.8456 23.4086 73.8481 23.5109 74.8477 23.4547H85.7107C85.8117 23.4547 85.9008 23.3597 85.978 23.2409C86.3029 22.6155 86.5161 21.9381 86.6076 21.2394C86.7507 20.5965 86.7947 19.9356 86.7382 19.2794C86.6789 18.9052 86.6076 18.8518 86.4888 18.8518H78.6667L79.1953 15.9177H85.6038C85.6989 15.9177 85.788 15.8286 85.8592 15.7158C86.1633 15.1184 86.3641 14.4738 86.4532 13.8093C86.5927 13.2001 86.6325 12.5723 86.5719 11.9503C86.5185 11.5939 86.4532 11.5464 86.3403 11.5464H79.9793L80.4544 8.92713H88.4072C88.463 8.91769 88.5159 8.89417 88.561 8.85889C88.6056 8.82361 88.6406 8.77764 88.6626 8.7252C88.9726 8.13019 89.174 7.48453 89.2565 6.81867C89.3955 6.20941 89.4377 5.58204 89.3813 4.95966" fill="#989898"/>
<path d="M62.5238 22.8964C62.5713 23.0152 62.5891 23.0567 62.7792 23.1399C63.8827 23.3941 65.0153 23.5019 66.1468 23.4606C67.3804 23.5214 68.6169 23.4176 69.8232 23.1518C69.9954 23.0864 70.1142 23.033 70.0548 22.8667L65.4043 12.7104L72.4246 5.16153C72.5375 5.03087 72.4959 4.96553 72.389 4.9002C72.0029 4.66857 70.6725 4.5379 69.1461 4.5379C68.1329 4.4908 67.1184 4.59284 66.1349 4.84081C66.0202 4.88743 65.9187 4.96072 65.8379 5.05462L59.6016 11.7364L60.7895 5.0665C60.7895 4.91802 60.6291 4.86457 60.4806 4.81111C59.4959 4.58619 58.4844 4.49627 57.4753 4.54384C56.572 4.5202 55.6698 4.61404 54.7908 4.82299C54.6542 4.87644 54.5354 4.9299 54.5057 5.07838L51.3281 22.8964C51.3281 23.0449 51.3638 23.0864 51.4707 23.1339C52.4143 23.402 53.395 23.5163 54.375 23.4725C55.3912 23.5243 56.4086 23.4181 57.3922 23.1577C57.4872 23.1102 57.5644 23.0805 57.5941 22.9736L59.1027 14.5338L62.5238 22.8964Z" fill="#989898"/>
<path d="M110.637 4.811C109.652 4.58608 108.641 4.49616 107.632 4.54373C106.728 4.52063 105.826 4.61447 104.947 4.82288C104.865 4.84996 104.79 4.89457 104.727 4.95354L97.0064 14.4921L97.1845 13.7675L98.7585 5.07827C98.7585 4.92979 98.5981 4.87633 98.4496 4.82288C97.4649 4.59796 96.4534 4.50804 95.4443 4.55561C94.5433 4.53185 93.6423 4.62569 92.7657 4.83476C92.6291 4.88821 92.5044 4.94167 92.4806 5.09015L89.2793 22.9081C89.2793 23.0566 89.3149 23.0982 89.4218 23.1457C90.3656 23.4133 91.3462 23.5276 92.3262 23.4843C93.3424 23.5366 94.3598 23.4304 95.3433 23.1695C95.4033 23.1473 95.458 23.1129 95.5037 23.0685L103.183 13.625L103.005 14.3317L101.467 22.8963C101.437 23.0447 101.502 23.0863 101.609 23.1338C102.553 23.4019 103.534 23.5162 104.514 23.4724C105.53 23.5242 106.547 23.418 107.531 23.1576C107.626 23.1101 107.703 23.0804 107.733 22.9735L110.946 5.07827C110.946 4.92979 110.786 4.87633 110.637 4.82288" fill="#989898"/>
<path d="M103.475 0.0298741C102.906 0.0170333 102.338 0.0870758 101.788 0.237757C101.628 0.291211 101.462 0.3803 101.432 0.493147L100.244 6.09394C100.244 6.14145 100.244 6.17115 100.321 6.21272C100.577 6.32046 100.852 6.37118 101.129 6.36121C101.404 6.37107 101.678 6.33899 101.943 6.26618C102.043 6.24194 102.13 6.18029 102.186 6.09394L105.489 0.65351C105.514 0.60647 105.52 0.551769 105.507 0.500097C105.494 0.448484 105.462 0.403642 105.417 0.374361C104.81 0.101746 104.145 -0.0165892 103.481 0.0298741" fill="#989898"/>
<path d="M52.9849 0.0298741C52.4156 0.0170333 51.8473 0.0870758 51.2981 0.237757C51.1437 0.291211 50.9774 0.3803 50.9418 0.493147L49.7539 6.09394C49.7539 6.14145 49.7539 6.17115 49.8311 6.21272C50.0866 6.31975 50.3621 6.37041 50.6389 6.36121C50.9114 6.37047 51.1837 6.3384 51.4466 6.26618C51.4966 6.25507 51.5439 6.23411 51.5857 6.20453C51.6275 6.17495 51.663 6.13735 51.6901 6.09394L54.9924 0.65351C55.0173 0.60647 55.0239 0.551769 55.0108 0.500097C54.9977 0.448484 54.9657 0.403642 54.9211 0.374361C54.3141 0.101746 53.6489 -0.0165892 52.9849 0.0298741Z" fill="#989898"/>
<path d="M49.5756 11.3979C49.837 19.119 43.565 23.7873 37.4594 23.7873C32.3694 23.7873 29.1859 21.1681 29.0315 16.4819C28.788 9.30128 34.1037 3.93213 41.118 3.93213C46.8732 3.93213 49.4331 7.33537 49.5756 11.3979ZM35.3806 15.8227C35.44 17.6045 36.1587 19.1784 38.3503 19.1784C41.415 19.1784 43.4047 15.692 43.2799 11.974C43.2146 10.0853 42.3653 8.54105 40.2331 8.54105C36.6695 8.54105 35.3153 12.9421 35.4103 15.8227" fill="#989898"/>
<path d="M9.33656 23.6388C8.74262 23.7042 8.14869 23.7576 7.55476 23.7873C7.55476 23.7873 -0.0238305 20.4791 0.0711988 13.3697C0.142471 7.85206 2.70826 6.2425 2.70826 6.2425C3.96989 6.80929 5.11565 7.60474 6.08774 8.58853C6.87155 9.46102 7.52019 10.446 8.01208 11.5107C8.68804 8.77319 10.2218 6.32363 12.3894 4.52009C17.7942 -0.373887 23.6385 0.0358975 23.6385 0.0358975C24.465 2.16117 24.8957 4.4196 24.9095 6.69983C25.0045 15.686 19.5641 22.1718 11.0708 23.4131C10.4769 23.4963 9.93049 23.5735 9.35437 23.6388" fill="#989898"/>
<path d="M8.74889 23.2647C10.9031 22.9872 12.971 22.2438 14.809 21.0865C16.6469 19.9292 18.2109 18.3855 19.3921 16.5628C20.5734 14.74 21.3435 12.682 21.6492 10.5316C21.9549 8.38121 21.7886 6.19001 21.1621 4.11035C18.4828 4.23276 15.886 5.0752 13.6451 6.54892C11.4042 8.02265 9.60195 10.0732 8.42816 12.4848C7.98824 13.5057 7.62493 14.5579 7.34127 15.6327C7.33485 15.673 7.32493 15.7128 7.31157 15.7514C7.22248 16.0246 7.16902 16.1137 7.13933 16.0959C6.65628 18.4968 6.77465 20.98 7.48381 23.3241C7.90621 23.3264 8.3285 23.3066 8.74889 23.2647Z" fill="#D9D9D9"/>
<path d="M8.74889 23.2647C10.9031 22.9872 12.971 22.2438 14.809 21.0865C16.647 19.9292 18.2109 18.3855 19.3921 16.5628C20.5734 14.74 21.3435 12.682 21.6492 10.5316C21.9549 8.38121 21.7886 6.19001 21.1621 4.11035C18.4828 4.23276 15.886 5.0752 13.6451 6.54892C11.4042 8.02265 9.60195 10.0732 8.42816 12.4848C7.98824 13.5057 7.62493 14.5579 7.34127 15.6327C7.33485 15.673 7.32493 15.7128 7.31157 15.7514C7.22248 16.0246 7.16902 16.1137 7.13933 16.0959C6.65628 18.4968 6.77465 20.98 7.48381 23.3241C7.90621 23.3264 8.3285 23.3066 8.74889 23.2647Z" fill="#D9D9D9"/>
<path d="M7.48864 23.3239C6.77949 20.9798 6.66118 18.4967 7.14416 16.0958C7.1188 15.6242 7.15272 15.1513 7.24513 14.6881C7.34016 14.0526 7.44113 13.5003 7.55992 12.9063C6.48941 11.3508 5.04556 10.0887 3.36081 9.23584C2.6061 10.4079 2.1129 11.7289 1.91482 13.1088C1.71674 14.4886 1.81842 15.8951 2.21303 17.2321C2.60758 18.5691 3.28574 19.8054 4.20128 20.8566C5.11683 21.9079 6.24821 22.7494 7.51834 23.3239H7.48864Z" fill="#D9D9D9"/>
</svg>
