<svg width="33" height="44" viewBox="0 0 33 44" fill="none" xmlns="http://www.w3.org/2000/svg">
<g clip-path="url(#clip0_1456_5047)">
<path d="M32.3261 5.38695C21.3932 5.65697 16.4966 0.405273 16.4966 0.405273C16.4966 0.405273 11.6049 5.65697 0.673042 5.38695L0.568359 21.7369C0.580099 27.013 1.3569 31.982 5.55786 35.9873C9.31369 39.5651 14.0635 42.3083 16.4898 43.407V43.4119H16.4956H16.5015V43.407C18.9278 42.3083 23.6776 39.5651 27.4334 35.9873C31.6403 31.982 32.4141 27.013 32.4229 21.7369L32.3261 5.38695Z" fill="#989898"/>
<path d="M16.502 1.46387C16.502 1.46387 11.9341 6.08845 1.39062 6.11193L1.39747 22.2877C1.40921 27.5639 2.4169 32.1219 6.76755 35.9687C10.0812 38.9037 14.4348 41.4063 16.502 42.4306C18.5682 41.4063 22.9218 38.8998 26.2364 35.9687C30.5861 32.1219 31.5947 27.5639 31.6065 22.2877L31.6133 6.11193C21.0698 6.08845 16.502 1.46387 16.502 1.46387Z" fill="white"/>
<path d="M16.5031 2.64087C16.5031 2.64087 12.2337 6.97098 2.38477 6.9925L2.39064 22.4326C2.40238 27.3614 3.34451 31.6191 7.40655 35.2125C10.503 37.9519 14.5719 40.2999 16.5051 41.2606C18.4353 40.3038 22.5042 37.9509 25.6036 35.2125C29.6617 31.6191 30.6038 27.3614 30.6136 22.4326L30.6214 6.9925C20.7726 6.97098 16.5031 2.64087 16.5031 2.64087Z" fill="#989898"/>
<path d="M11.1809 18.2344L11.267 18.0641L11.7395 17.1328L11.8286 16.9713L11.7718 16.7943L11.4783 15.8639L11.3404 15.4295L10.907 15.5674L9.99516 15.8609L9.55491 15.993L9.69285 16.4264L9.79069 16.7199L8.11089 17.2511L6.70013 12.8144L8.37406 12.2822L8.47189 12.5913L8.60984 13.0257L9.04422 12.8878L9.95602 12.5943L10.3894 12.4563L10.2515 12.0239L9.72612 10.3715L9.58817 9.93809L9.15477 10.076L8.24296 10.3695L7.80956 10.5075L7.83891 10.5994L7.71955 10.5339L7.53954 10.5916L5.37351 11.2764L5.19349 11.3332L5.1074 11.5015L4.64954 12.3908L4.62704 12.4348L4.61432 12.4818V12.4866L4.58008 12.6148L4.62019 12.742L6.44381 18.4789L6.50055 18.659L6.66784 18.746L7.60313 19.2293L7.77043 19.3154L7.94946 19.2587L10.9999 18.2891L11.1809 18.2344ZM16.1851 15.7318H15.8397V15.4168L16.461 14.5275L16.9159 15.7318H16.6909V17.5965H19.393V15.7318H18.9127L17.7553 12.6745L18.8726 11.0759H19.3921V9.21021H16.6919V10.9712L15.8397 12.1922V11.0759H16.1841V9.21021H13.5367V11.0759H13.8752V15.7328H13.5367V17.5975H16.1841L16.1851 15.7318ZM27.2207 11.1013L24.9294 10.3774L24.496 10.2404L24.3591 10.6738L24.0714 11.5846L23.9345 12.019L24.1497 12.0865L21.5434 16.1456L21.1589 16.0243L21.022 16.4577L20.7314 17.3695L20.5944 17.8029L21.0278 17.9399L22.737 18.4809L23.1704 18.6179L23.3074 18.1845L23.595 17.2736L23.732 16.8402L23.3807 16.7287L23.5862 16.4088L24.8492 16.8079L24.8404 17.1866L24.4892 17.076L24.3512 17.5094L24.0577 18.4202L23.9208 18.8536L24.3542 18.9906L26.0633 19.5307L26.4967 19.6676L26.6337 19.2342L26.9213 18.3234L27.0583 17.89L26.6738 17.7687L26.8695 12.9484L27.0847 13.0169L27.2217 12.5835L27.5093 11.6727L27.6463 11.2393L27.2207 11.1013ZM24.9255 15.0587L24.5342 14.9354L24.9588 14.2721L24.9255 15.0587ZM18.3531 25.8301L16.4942 20.1196L14.6354 25.8301H8.63723L13.4917 29.36L11.6329 35.0715L16.4903 31.5417L21.3556 35.0705L19.4967 29.36L24.3542 25.8311L18.3531 25.8301Z" fill="white"/>
<path d="M15.7303 16.1886H15.3859V15.2748L16.5824 13.5627L17.5774 16.1886H17.1489V17.1444H18.9412V16.1886H18.6017L17.2477 12.6128L18.6389 10.6218H18.9412V9.66602H17.1479V10.6218H17.4942L15.3859 13.6381V10.6209H15.7303V9.66504H13.9927V10.6209H14.3312V16.1886H13.9927V17.1444H15.7303V16.1886ZM26.7982 12.4455L27.0858 11.5346L24.7936 10.8077L24.5059 11.7186L24.8542 11.8291L21.7392 16.6816L21.4565 16.5926L21.1688 17.5044L22.877 18.0474L23.1656 17.1366L22.6813 16.984L23.3945 15.8706L25.3219 16.4801L25.2661 17.8018L24.7828 17.6492L24.4952 18.5601L26.2043 19.1001L26.4919 18.1893L26.2092 18.1002L26.4479 12.3378L26.7982 12.4455ZM25.3561 15.674L23.8319 15.1926L25.4862 12.6098L25.3561 15.674ZM11.3346 16.9282L11.0411 15.9978L10.1293 16.2913L10.3602 17.0182L7.81652 17.8253L6.13085 12.5218L8.67452 11.7137L8.91128 12.4572L9.82308 12.1637L9.29478 10.5142L8.38298 10.8077L8.46418 11.0611L8.01414 11.1991L7.68151 11.0249L5.5145 11.7098L5.05664 12.5991V12.604L6.87536 18.3409L7.81163 18.8242L10.8621 17.8547L11.3346 16.9282ZM17.8611 26.5276L16.4983 22.3325L15.1354 26.5276H10.7251L14.2931 29.1202L12.9303 33.3094L16.4983 30.7168L20.0672 33.3094L18.7044 29.1143L22.2724 26.5217L17.8611 26.5276Z" fill="#D9D9D9"/>
<path d="M15.8048 16.1114H15.4604V15.2974L16.562 13.7213L17.467 16.1114H17.0756V17.2179H19.0186V16.1114H18.6556L17.3339 12.6217L18.6772 10.6963H19.0157V9.58984H17.0717V10.6963H17.3486L15.4594 13.3985V10.6963H15.8038V9.58984H13.9156V10.6963H14.2541V16.1114H13.9156V17.2179H15.8038L15.8048 16.1114ZM15.6541 17.0692H14.0673V16.265H14.4058V10.5447H14.0673V9.73953H15.6541V10.5447H15.3097V13.871L17.6382 10.5447H17.2224V9.73953H18.864V10.5447H18.5989L17.1617 12.5992L18.548 16.2601H18.864V17.0692H17.2224V16.265H17.6851L16.6021 13.4044L15.3097 15.2495V16.2621H15.6541V17.0692ZM26.8453 12.5425L27.1789 11.4878L24.7428 10.7159L24.4092 11.7706L24.735 11.8743L21.7022 16.5957L21.4028 16.4979L21.0731 17.5584L22.9261 18.1454L23.2597 17.0898L22.7979 16.944L23.428 15.9656L25.2447 16.5399L25.1958 17.7051L24.734 17.5594L24.4014 18.614L26.2544 19.201L26.588 18.1464L26.2886 18.0485L26.5214 12.4427L26.8453 12.5425ZM26.134 18.0965V18.1542L26.4001 18.2383L26.1575 19.0053L24.5922 18.5103L24.8348 17.7433L25.3406 17.9037L25.4032 16.4264L23.3663 15.7827L22.568 17.0281L23.0738 17.1876L22.8273 17.9497L21.2619 17.4547L21.5045 16.6867L21.7697 16.7708L24.9698 11.7862L24.6 11.6688L24.8407 10.9057L26.993 11.5837L26.7504 12.3507L26.3796 12.2343L26.134 18.0965ZM25.4277 15.7729L25.5734 12.3311L23.7146 15.2319L25.4277 15.7729ZM25.2848 15.5694L23.9484 15.1468L25.3993 12.8819L25.2848 15.5694ZM10.9151 17.9174L11.416 16.9313L11.0882 15.9001L10.0326 16.2366L10.2635 16.9635L7.86657 17.7257L6.22492 12.5689L8.62184 11.8067L8.85762 12.5493L9.91324 12.2128L9.34288 10.4165L8.28725 10.7521L8.36748 11.0055L8.01332 11.118L7.68069 10.9439L5.454 11.6522L4.98538 12.5689L4.97266 12.61L6.80312 18.3684L6.8129 18.3978L7.80396 18.9095L10.8847 17.9311L10.9151 17.9174ZM7.81765 18.7471L6.93715 18.2921L5.13213 12.6178L5.56748 11.7764L7.67384 11.1063L8.00647 11.2804L8.56119 11.1033L8.48096 10.8499L9.24896 10.6054L9.72834 12.1139L8.96035 12.3585L8.72457 11.615L6.03611 12.471L7.76776 17.9184L10.4523 17.0653L10.2214 16.3384L10.9894 16.0938L11.2526 16.9225L10.8084 17.7971L7.81765 18.7471ZM16.6892 22.5948L16.4935 22.0078L16.2979 22.5948L15.0573 26.426H10.4102L10.9102 26.7899L14.1768 29.1575L12.9324 32.9887L12.7367 33.5757L13.2376 33.2127L16.4965 30.8451L19.7533 33.2117L20.2542 33.5747L20.0586 32.9877L18.8141 29.1565L22.073 26.789L22.5729 26.425H17.9336L16.6892 22.5948ZM18.5852 29.0812L19.8756 33.0513L16.4984 30.5976L13.1202 33.0513L14.4106 29.0812L11.0334 26.6275H15.208L16.4984 22.6575L17.7888 26.6275H21.9634L18.5852 29.0812Z" fill="#989898"/>
</g>
<defs>
<clipPath id="clip0_1456_5047">
<rect width="31.8614" height="43.0066" fill="white" transform="translate(0.568359 0.405273)"/>
</clipPath>
</defs>
</svg>
