<svg width="249" height="66" viewBox="0 0 249 66" fill="none" xmlns="http://www.w3.org/2000/svg">
<g clip-path="url(#clip0_1456_573)">
<path d="M33.8266 48.7924C34.1971 48.5913 34.531 48.3293 34.8144 48.0172C35.1032 47.6909 35.2528 47.2646 35.2312 46.8294C35.2272 46.4944 35.1274 46.1676 34.9436 45.8875C34.7266 45.5548 34.4427 45.271 34.1101 45.0539C33.7256 44.7987 33.3038 44.6046 32.8597 44.4788C32.3533 44.3319 31.8283 44.2589 31.301 44.2621H26.3789V53.3352H27.6292V49.3759H30.6508L30.73 49.4717L33.9684 53.3352H35.2687L32.2137 49.7343L31.9345 49.4009L32.3513 49.3092C32.8652 49.2084 33.3621 49.0343 33.8266 48.7924ZM31.301 48.8341H27.6292V44.8122H31.3052C31.6456 44.8111 31.9843 44.8617 32.3096 44.9622C32.606 45.0604 32.8868 45.2007 33.1431 45.379C33.3854 45.5475 33.5898 45.7647 33.7433 46.0167C33.8974 46.2673 33.9782 46.556 33.9767 46.8502C33.9791 47.1445 33.8982 47.4335 33.7433 47.6838C33.5896 47.9345 33.3852 48.1503 33.1431 48.3173C32.8877 48.4971 32.6067 48.6375 32.3096 48.734C31.9801 48.8167 31.6403 48.8504 31.301 48.8341Z" fill="#989898"/>
<path d="M46.638 51.489C46.8635 51.1113 46.9803 50.6786 46.9756 50.2387V44.2705H45.7252V50.247C45.7377 50.6312 45.6515 51.0122 45.475 51.3536C45.2984 51.6951 45.0373 51.9856 44.7166 52.1975C43.9546 52.6799 43.0629 52.9171 42.1618 52.8769C41.2602 52.9174 40.368 52.6787 39.607 52.1934C39.2875 51.9809 39.0271 51.6909 38.85 51.3506C38.6729 51.0102 38.5849 50.6306 38.5942 50.247V44.2705H37.3439V50.247C37.3387 50.687 37.4556 51.1198 37.6815 51.4974C37.9307 51.8972 38.2634 52.2384 38.6568 52.4976C39.1236 52.8051 39.6374 53.0346 40.178 53.177C41.4788 53.5047 42.8407 53.5047 44.1415 53.177C44.6836 53.0353 45.1989 52.8058 45.6669 52.4976C46.0619 52.2383 46.3938 51.8936 46.638 51.489Z" fill="#989898"/>
<path d="M78.321 44.2705H77.0207L71.9277 48.7258L77.4583 53.3437H78.7378L73.3448 48.9342L73.103 48.7383L73.3406 48.5341L78.321 44.2705Z" fill="#989898"/>
<path d="M71.2654 53.3437V48.73V44.2705H70.0234V53.3437H71.2654Z" fill="#989898"/>
<path d="M81.2888 44.2705H80.2969V53.3437H81.2888V44.2705Z" fill="#989898"/>
<path d="M87.4443 53.3437H88.6904V49.8678V49.7803L88.7446 49.7136L92.8457 44.2705H91.612L88.2778 48.73L88.0695 49.0092L87.8611 48.73L84.5227 44.2705H83.2891L87.3943 49.7136L87.4443 49.7803V49.8678V53.3437Z" fill="#989898"/>
<path d="M94.5664 53.3437H103.094V52.8019H96.0751H95.8126V52.5393V49.1843V48.9259H96.0751H102.318V48.3841H96.0751H95.8126V48.1215V45.0707V44.8123H96.0751H102.869V44.2705H94.5664V53.3437Z" fill="#989898"/>
<path d="M119.099 49.9218C118.724 49.5849 118.288 49.3232 117.815 49.1508C117.251 48.9383 116.669 48.7751 116.077 48.6632C115.406 48.5256 114.827 48.3923 114.285 48.2464C113.783 48.1189 113.301 47.924 112.851 47.6671C112.645 47.5559 112.473 47.3904 112.354 47.1883C112.235 46.9863 112.173 46.7555 112.176 46.521C112.182 46.2623 112.268 46.0119 112.422 45.8041C112.595 45.5753 112.813 45.3851 113.064 45.2456C113.357 45.0777 113.673 44.9527 114.001 44.8747C114.392 44.7804 114.792 44.7342 115.193 44.7372H119.561V44.1954H115.193C114.602 44.1898 114.012 44.2612 113.439 44.4079C112.96 44.5252 112.501 44.712 112.076 44.9622C111.74 45.1534 111.446 45.4116 111.213 45.7208C111.035 45.9501 110.936 46.2307 110.93 46.521C110.918 46.7393 110.954 46.9576 111.036 47.1606C111.117 47.3635 111.242 47.5464 111.401 47.6963C111.777 48.0308 112.212 48.2923 112.684 48.4673C113.246 48.678 113.825 48.8411 114.414 48.9549C115.098 49.0925 115.685 49.2258 116.21 49.3717C116.711 49.4958 117.192 49.6879 117.64 49.9427C117.847 50.0536 118.02 50.2191 118.139 50.4211C118.259 50.6231 118.321 50.854 118.319 51.0888C118.311 51.3612 118.229 51.6261 118.082 51.8557C117.935 52.0854 117.729 52.2711 117.486 52.3933C116.785 52.7547 116.001 52.9217 115.214 52.8768H110.93V53.4186H115.193C115.824 53.4247 116.454 53.3561 117.069 53.2143C117.555 53.1022 118.023 52.9197 118.457 52.6725C118.785 52.4882 119.069 52.2351 119.29 51.9307C119.465 51.6874 119.561 51.3966 119.565 51.0971C119.578 50.8791 119.543 50.6609 119.462 50.4579C119.381 50.2549 119.257 50.072 119.099 49.9218Z" fill="#989898"/>
<path d="M57.1531 49.922C56.7792 49.5843 56.3433 49.3224 55.8695 49.151C55.3064 48.9418 54.7263 48.7815 54.1357 48.6717C53.4605 48.5342 52.8854 48.4008 52.3394 48.2549C51.8378 48.1267 51.3556 47.9318 50.9057 47.6756C50.6992 47.5645 50.5271 47.3989 50.4081 47.1968C50.289 46.9948 50.2276 46.764 50.2305 46.5295C50.2364 46.2709 50.3223 46.0204 50.4764 45.8126C50.6492 45.5838 50.8678 45.3936 51.1183 45.2542C51.4114 45.0862 51.7272 44.9613 52.056 44.8832C52.4463 44.7894 52.8465 44.7433 53.248 44.7457H57.6366V44.2039H53.248C52.6564 44.1986 52.0666 44.27 51.4934 44.4164C51.0164 44.5315 50.5587 44.7155 50.1347 44.9624C49.7991 45.1548 49.5057 45.4127 49.2719 45.7209C49.0939 45.9503 48.9945 46.2309 48.9885 46.5212C48.9769 46.7395 49.013 46.9578 49.0944 47.1608C49.1757 47.3637 49.3003 47.5465 49.4595 47.6965C49.8358 48.031 50.2711 48.2925 50.7432 48.4675C51.305 48.6782 51.8836 48.8413 52.4728 48.9551C53.1563 49.0926 53.7439 49.226 54.2691 49.3719C54.7707 49.4961 55.2531 49.6882 55.7028 49.9429C55.9102 50.0536 56.0835 50.2189 56.2039 50.4209C56.3244 50.6228 56.3874 50.8538 56.3863 51.089C56.3777 51.3613 56.2957 51.6263 56.149 51.8559C56.0023 52.0855 55.7963 52.2713 55.5527 52.3935C54.8509 52.7549 54.0652 52.9218 53.2771 52.8769H48.9844V53.4188H53.248C53.879 53.4251 54.5086 53.3566 55.1234 53.2145C55.6115 53.1032 56.0805 52.9206 56.5155 52.6727C56.8427 52.4872 57.1268 52.2343 57.349 51.9309C57.5224 51.6872 57.6169 51.3963 57.6199 51.0973C57.6324 50.8793 57.597 50.6611 57.5164 50.4581C57.4358 50.2551 57.3118 50.0721 57.1531 49.922Z" fill="#989898"/>
<path d="M67.5439 49.922C67.17 49.5842 66.7341 49.3224 66.2603 49.151C65.6972 48.9418 65.1171 48.7814 64.5265 48.6717C63.8513 48.5341 63.2762 48.4008 62.7344 48.2549C62.2314 48.1266 61.7479 47.9318 61.2965 47.6756C61.09 47.5644 60.9179 47.3989 60.7989 47.1968C60.6798 46.9948 60.6184 46.764 60.6213 46.5295C60.6255 46.2699 60.7132 46.0185 60.8714 45.8126C61.0415 45.583 61.259 45.3925 61.5091 45.2541C61.804 45.0869 62.1211 44.962 62.451 44.8832C62.8398 44.7892 63.2387 44.743 63.6388 44.7457H68.0107V44.2039H63.6388C63.0472 44.1988 62.4574 44.2703 61.8842 44.4164C61.4053 44.5337 60.9461 44.7205 60.5213 44.9707C60.186 45.1619 59.8938 45.4201 59.6627 45.7293C59.4835 45.9582 59.3827 46.2388 59.3752 46.5295C59.3636 46.7478 59.3997 46.9661 59.481 47.1691C59.5623 47.372 59.6869 47.5549 59.8461 47.7048C60.2239 48.0394 60.6606 48.3008 61.134 48.4758C61.6944 48.6865 62.2716 48.8496 62.8594 48.9634C63.5429 49.101 64.1097 49.2343 64.6557 49.3802C65.1576 49.5036 65.6401 49.6958 66.0894 49.9512C66.2953 50.063 66.4669 50.2288 66.5858 50.4307C66.7047 50.6326 66.7665 50.863 66.7646 51.0973C66.7569 51.3699 66.6753 51.6352 66.5284 51.865C66.3816 52.0947 66.1751 52.2803 65.931 52.4018C65.2292 52.7632 64.4435 52.9301 63.6554 52.8853H59.3752V53.4271H63.6388C64.2712 53.4332 64.9021 53.3646 65.5184 53.2228C66.0049 53.1107 66.4725 52.9282 66.9063 52.681C67.2335 52.4955 67.5176 52.2426 67.7398 51.9392C67.9132 51.6955 68.0077 51.4046 68.0107 51.1056C68.0253 50.8861 67.9909 50.6661 67.9102 50.4614C67.8295 50.2567 67.7044 50.0725 67.5439 49.922Z" fill="#989898"/>
<path d="M179.81 51.9309C179.984 51.6873 180.078 51.3964 180.081 51.0973C180.094 50.8799 180.058 50.6623 179.978 50.4599C179.897 50.2575 179.773 50.0753 179.614 49.9262C179.24 49.5885 178.804 49.3266 178.331 49.1552C177.768 48.9432 177.188 48.78 176.597 48.6676C175.922 48.53 175.346 48.3967 174.805 48.2508C174.303 48.1233 173.821 47.9284 173.371 47.6715C173.163 47.5612 172.99 47.396 172.87 47.1938C172.751 46.9916 172.689 46.7603 172.692 46.5253C172.696 46.2657 172.784 46.0144 172.942 45.8085C173.113 45.5787 173.332 45.3883 173.584 45.25C173.877 45.082 174.193 44.9571 174.521 44.8791C174.91 44.7851 175.309 44.7389 175.709 44.7415H180.081V44.1997H175.709C175.119 44.1944 174.53 44.2658 173.959 44.4123C173.478 44.5289 173.018 44.7157 172.592 44.9666C172.256 45.1578 171.964 45.416 171.733 45.7251C171.554 45.9541 171.453 46.2347 171.445 46.5253C171.434 46.7437 171.47 46.962 171.551 47.1649C171.633 47.3679 171.757 47.5507 171.916 47.7006C172.294 48.0352 172.731 48.2967 173.204 48.4717C173.765 48.6824 174.342 48.8455 174.93 48.9593C175.613 49.0968 176.201 49.2302 176.726 49.3761C177.228 49.4995 177.71 49.6916 178.16 49.9471C178.366 50.0589 178.537 50.2247 178.656 50.4265C178.775 50.6284 178.837 50.8589 178.835 51.0932C178.827 51.3657 178.746 51.6311 178.599 51.8609C178.452 52.0906 178.245 52.2762 178.001 52.3977C177.3 52.759 176.514 52.926 175.726 52.8811H171.445V53.4229H175.709C176.341 53.4293 176.972 53.3607 177.589 53.2187C178.075 53.1066 178.543 52.9241 178.977 52.6769C179.304 52.4902 179.588 52.2359 179.81 51.9309Z" fill="#989898"/>
<path d="M132.276 53.3437L127.275 44.2705H126.025L121.023 53.3437H122.303L123.553 51.1181L123.628 50.9847H129.663L129.738 51.1181L130.988 53.3437H132.276ZM128.971 50.4263H123.903L124.116 50.0387L126.433 45.8709L126.662 45.4541L126.892 45.8709L129.205 50.0387L129.421 50.4263H128.971Z" fill="#989898"/>
<path d="M145.177 53.3437H146.423V44.2705H145.389L140.276 51.8475L140.059 52.1684L139.842 51.8475L134.737 44.2705H133.703V53.3437H134.949V47.1337V46.2669L135.429 46.9879L139.65 53.3437H140.467L144.698 46.9879L145.177 46.271V47.1337V53.3437Z" fill="#989898"/>
<path d="M159.901 50.5889C160.234 50.0539 160.409 49.4354 160.405 48.8051C160.404 48.1781 160.23 47.5635 159.901 47.0297C159.547 46.4526 159.084 45.9501 158.538 45.5501C157.931 45.1118 157.257 44.7754 156.542 44.554C154.988 44.0761 153.327 44.0761 151.774 44.554C151.058 44.7736 150.383 45.1102 149.777 45.5501C149.229 45.9488 148.764 46.4515 148.41 47.0297C148.084 47.5646 147.911 48.1787 147.91 48.8051C147.907 49.4347 148.08 50.0527 148.41 50.5889C148.767 51.164 149.231 51.6649 149.777 52.0643C150.383 52.5042 151.058 52.8408 151.774 53.0604C153.327 53.5383 154.988 53.5383 156.542 53.0604C157.257 52.839 157.931 52.5026 158.538 52.0643C159.084 51.666 159.547 51.1648 159.901 50.5889ZM158.725 50.4555C158.439 50.9548 158.056 51.3924 157.6 51.7434C157.121 52.112 156.58 52.3941 156.004 52.5769C154.803 52.9714 153.508 52.9714 152.307 52.5769C151.73 52.3923 151.189 52.1104 150.707 51.7434C150.248 51.3963 149.866 50.9595 149.581 50.4597C149.303 49.9535 149.157 49.3851 149.157 48.8072C149.157 48.2293 149.303 47.6609 149.581 47.1547C149.865 46.6536 150.248 46.2155 150.707 45.8669C151.189 45.5006 151.73 45.2187 152.307 45.0333C153.508 44.6389 154.803 44.6389 156.004 45.0333C156.58 45.2161 157.121 45.4982 157.6 45.8669C158.058 46.2167 158.44 46.6546 158.725 47.1547C159.01 47.6634 159.154 48.2389 159.142 48.8218C159.147 49.3932 159.003 49.9561 158.725 50.4555Z" fill="#989898"/>
<path d="M164.732 53.3437H165.974V45.0707V44.8123H166.236H170.167V44.2705H160.539V44.8123H164.469H164.732V45.0707V53.3437Z" fill="#989898"/>
<path d="M186.053 52.4143L185.824 51.9683L181.827 44.2705H180.531L185.341 53.3437H186.783L191.58 44.2705H190.296L186.287 51.9683L186.053 52.4143Z" fill="#989898"/>
<path d="M193.213 53.3437H201.74V52.8019H194.717H194.459V52.5393V49.1843V48.9259H194.717H200.965V48.3841H194.717H194.459V48.1215V45.0707V44.8123H194.717H201.515V44.2705H193.213V53.3437Z" fill="#989898"/>
<path d="M206.312 53.3437H207.554V45.0707V44.8123H207.816H211.747V44.2705H202.119V44.8123H206.049H206.312V45.0707V53.3437Z" fill="#989898"/>
<path d="M217.224 53.3437H218.47V49.8678V49.7803L218.52 49.7136L222.625 44.2705H221.391L218.053 48.73L217.845 49.0092L217.636 48.73L214.298 44.2705H213.068L217.169 49.7136L217.224 49.7803V49.8678V53.3437Z" fill="#989898"/>
<path d="M136.757 11.4913V7.14014L126.846 16.9593L136.757 11.4913ZM136.457 11.312L128.604 15.6423L136.469 7.86949L136.457 11.312Z" fill="#D9D9D9"/>
<path d="M136.69 28.829V24.4779L126.846 18.9431L136.69 28.829ZM136.406 28.0996L128.613 20.2726L136.406 24.6571V28.0996Z" fill="#D9D9D9"/>
<path d="M137.129 12.1248V23.6652H137.171L139.855 20.1602L141.713 17.9096L137.129 12.1206V12.1248ZM137.433 12.9833L141.326 17.9138L139.617 19.9976L137.433 22.8067V12.9833Z" fill="#D9D9D9"/>
<path d="M141.713 23.2985V18.6306L137.512 23.9445L141.713 23.2985ZM141.409 23.0401L138.224 23.5277L141.409 19.4975V23.0401Z" fill="#D9D9D9"/>
<path d="M137.162 24.407V28.6664L137.225 28.6372L141.588 23.7068L137.208 24.357L137.162 24.407ZM137.466 24.6237L140.801 24.1277L137.466 27.9079V24.6237Z" fill="#D9D9D9"/>
<path d="M137.512 11.8997L141.713 17.2135V12.5498L137.512 11.8997ZM141.409 16.3466L138.224 12.3164L141.409 12.8291V16.3466Z" fill="#D9D9D9"/>
<path d="M141.587 12.1456L137.24 7.21521L137.178 7.18604V11.4455L137.224 11.4996L141.587 12.1456ZM137.465 7.94456L140.799 11.7247L137.465 11.2329V7.94456Z" fill="#D9D9D9"/>
<path d="M112.234 24.4987V28.8498L122.204 19.0139L112.234 24.4987ZM112.539 24.6779L120.411 20.3309L112.518 28.1037L112.539 24.6779Z" fill="#D9D9D9"/>
<path d="M112.297 7.14014V11.4913L122.195 17.051L112.297 7.14014ZM112.593 7.86949L120.424 15.7173L112.58 11.3162L112.593 7.86949Z" fill="#D9D9D9"/>
<path d="M107.287 18.0222L111.872 23.782V12.229L107.287 18.0222ZM111.576 22.9192L107.675 18.0222L111.576 13.0876V22.9192Z" fill="#D9D9D9"/>
<path d="M107.287 18.7349V23.4027L111.497 24.0487L107.287 18.7349ZM107.591 19.6059L110.78 23.632L107.591 23.1443V19.6059Z" fill="#D9D9D9"/>
<path d="M107.424 23.811L111.787 28.7415L111.846 28.7706V24.4987L111.804 24.4487L107.424 23.811ZM111.542 28.0121L108.207 24.232L111.542 24.7279V28.0121Z" fill="#D9D9D9"/>
<path d="M107.287 12.6541V17.3178L111.497 11.9956L107.287 12.6541ZM107.591 12.9125L110.78 12.4124L107.591 16.4426V12.9125Z" fill="#D9D9D9"/>
<path d="M111.846 11.5497V7.29028L111.787 7.31946L107.424 12.2499L111.817 11.6039L111.846 11.5497ZM111.542 11.3372L108.207 11.8289L111.542 8.04881V11.3372Z" fill="#D9D9D9"/>
<path d="M125.479 15.6715L135.389 5.78564H131.042L125.479 15.6715ZM134.648 6.08572L126.821 13.9169L131.226 6.07322L134.648 6.08572Z" fill="#D9D9D9"/>
<path d="M117.978 5.76904H113.627L123.542 15.6549L117.978 5.76904ZM117.803 6.07329L122.208 13.917L114.356 6.08579L117.803 6.07329Z" fill="#D9D9D9"/>
<path d="M130.307 5.32718L124.513 0.742676L118.758 5.32718H130.307ZM124.518 1.15945L129.448 5.04795H119.621L124.518 1.15945Z" fill="#D9D9D9"/>
<path d="M123.8 0.742676H119.136L118.486 4.95209L123.8 0.742676ZM119.395 1.03442H122.933L118.903 4.23941L119.395 1.03442Z" fill="#D9D9D9"/>
<path d="M118.069 5.25627L118.723 0.875977L113.793 5.24376L113.768 5.30211H118.027L118.069 5.25627ZM114.518 4.99787L118.294 1.66368L117.802 4.99787H114.518Z" fill="#D9D9D9"/>
<path d="M129.885 0.742676H125.217L130.531 4.95209L129.885 0.742676ZM129.626 1.04692L130.118 4.23941L126.084 1.05526L129.626 1.04692Z" fill="#D9D9D9"/>
<path d="M130.989 5.30211H135.249L135.224 5.24376L130.289 0.875977L130.935 5.25627L130.989 5.30211ZM134.49 4.99787H131.206L130.71 1.66368L134.49 4.99787Z" fill="#D9D9D9"/>
<path d="M131.044 30.2543H135.391L125.521 20.2434L131.044 30.2543ZM131.223 29.9542L126.847 22.0355L134.67 29.9834L131.223 29.9542Z" fill="#D9D9D9"/>
<path d="M123.612 20.3018L113.705 30.1876H118.056L123.612 20.3018ZM114.443 29.8875L122.295 22.0605L117.877 29.9167L114.443 29.8875Z" fill="#D9D9D9"/>
<path d="M118.811 30.6211L124.6 35.2056L130.359 30.6211H118.811ZM124.6 34.8305L119.665 30.9212H129.497L124.6 34.8305Z" fill="#D9D9D9"/>
<path d="M125.312 35.214H129.98L130.626 31.0088L125.312 35.214ZM129.739 34.9181H126.2L130.23 31.7215L129.739 34.9181Z" fill="#D9D9D9"/>
<path d="M131.039 30.6962L130.393 35.0765L135.323 30.7129L135.348 30.6545H131.089L131.039 30.6962ZM134.589 30.9546L130.809 34.2888L131.305 30.9546H134.589Z" fill="#D9D9D9"/>
<path d="M119.232 35.2099H123.904L118.59 31.0005L119.232 35.2099ZM119.49 34.9098L118.998 31.7173L123.028 34.9182L119.49 34.9098Z" fill="#D9D9D9"/>
<path d="M118.132 30.6545H113.873L113.898 30.7129L118.828 35.0765L118.182 30.6962L118.132 30.6545ZM114.632 30.9546H117.916L118.408 34.2888L114.632 30.9546Z" fill="#D9D9D9"/>
<path d="M124.942 15.909L130.402 5.7689L118.694 5.7439L124.075 15.9257C123.664 16.008 123.286 16.2102 122.989 16.5069C122.692 16.8036 122.49 17.1814 122.408 17.5928L112.276 12.133L112.234 23.8402L122.437 18.4472C122.529 18.8581 122.742 19.2323 123.048 19.5219C123.353 19.8114 123.739 20.0032 124.154 20.0726L118.694 30.2043L130.402 30.2502L125.008 20.0434C125.403 19.9457 125.762 19.7367 126.041 19.4411C126.32 19.1456 126.509 18.7759 126.584 18.3763L136.711 23.8277L136.757 12.1205L126.567 17.5136C126.477 17.1192 126.276 16.7587 125.988 16.4744C125.7 16.1902 125.337 15.994 124.942 15.909ZM124.396 15.8673L119.199 6.0273L129.897 6.06898L124.621 15.8673H124.396ZM112.534 23.3359L112.576 12.6373L122.383 17.9137C122.381 17.9373 122.381 17.961 122.383 17.9845C122.383 18.0387 122.383 18.0846 122.383 18.1346L112.534 23.3359ZM124.696 20.1017L129.897 29.9459L119.199 29.9168L124.475 20.1226H124.504L124.696 20.1017ZM124.863 19.7725C124.744 19.7941 124.624 19.8053 124.504 19.8058C124.433 19.8058 124.371 19.8058 124.304 19.8058C123.969 19.7688 123.651 19.6392 123.385 19.4318C123.12 19.2243 122.917 18.947 122.8 18.631C122.683 18.3149 122.656 17.9725 122.722 17.6421C122.789 17.3116 122.946 17.0062 123.176 16.7598C123.406 16.5134 123.7 16.3358 124.025 16.2469C124.35 16.1581 124.693 16.1613 125.017 16.2564C125.34 16.3515 125.631 16.5346 125.856 16.7853C126.081 17.036 126.232 17.3445 126.292 17.6761C126.303 17.7521 126.31 17.8286 126.313 17.9053C126.315 17.9373 126.315 17.9693 126.313 18.0012C126.309 18.0849 126.301 18.1684 126.288 18.2513C126.234 18.62 126.069 18.9634 125.814 19.2354C125.559 19.5073 125.227 19.6947 124.863 19.7725ZM126.617 17.8303L136.453 12.6332L136.407 23.3359L126.621 18.0679C126.623 18.0401 126.623 18.0123 126.621 17.9845C126.624 17.9331 126.623 17.8815 126.617 17.8303Z" fill="#D9D9D9"/>
<path d="M124.504 16.5801C124.222 16.5793 123.946 16.6622 123.711 16.8183C123.476 16.9744 123.292 17.1967 123.184 17.4571C123.075 17.7175 123.047 18.0042 123.101 18.281C123.156 18.5577 123.291 18.8121 123.49 19.0119C123.689 19.2116 123.943 19.3478 124.22 19.4031C124.497 19.4585 124.783 19.4305 125.044 19.3227C125.305 19.215 125.528 19.0323 125.684 18.7978C125.841 18.5633 125.925 18.2875 125.925 18.0054C125.925 17.6281 125.775 17.2662 125.509 16.999C125.243 16.7318 124.881 16.5812 124.504 16.5801ZM124.504 19.1307C124.281 19.1316 124.063 19.0663 123.877 18.9431C123.692 18.82 123.547 18.6445 123.461 18.439C123.375 18.2334 123.352 18.007 123.395 17.7885C123.438 17.5699 123.545 17.369 123.702 17.2112C123.86 17.0534 124.06 16.9459 124.279 16.9021C124.497 16.8583 124.723 16.8804 124.929 16.9654C125.135 17.0505 125.311 17.1947 125.435 17.3798C125.559 17.565 125.625 17.7827 125.625 18.0054C125.619 18.2995 125.499 18.5798 125.289 18.7863C125.08 18.9927 124.798 19.1089 124.504 19.1099V19.1307Z" fill="#D9D9D9"/>
<path d="M118.178 60.9041V65.7595H117.419V61.5917L116.023 61.921L115.84 61.4292L117.899 60.9166L118.178 60.9041Z" fill="#989898"/>
<path d="M122.995 61.0372C123.306 61.1609 123.579 61.3634 123.787 61.6248C123.978 61.8603 124.081 62.1551 124.079 62.4584C124.08 62.6422 124.042 62.8242 123.966 62.9919C123.897 63.1414 123.809 63.2815 123.704 63.4086C123.604 63.5337 123.433 63.7254 123.195 63.988L121.603 65.7592H120.711L122.341 63.9838C122.164 64.0316 121.982 64.0541 121.799 64.0505C121.444 64.0527 121.092 63.9817 120.765 63.8421C120.466 63.7192 120.202 63.5229 119.999 63.2711C119.811 63.0451 119.709 62.7603 119.711 62.4667C119.709 62.1628 119.814 61.8679 120.007 61.6332C120.218 61.3725 120.492 61.1702 120.803 61.0455C121.506 60.7605 122.292 60.7605 122.995 61.0455V61.0372ZM121.903 63.5378C122.154 63.5403 122.402 63.4906 122.633 63.392C122.838 63.3015 123.015 63.1576 123.145 62.9752C123.267 62.8135 123.332 62.6168 123.332 62.4146C123.332 62.2125 123.267 62.0157 123.145 61.8541C123.015 61.6768 122.837 61.5397 122.633 61.4581C122.165 61.269 121.642 61.269 121.174 61.4581C120.966 61.5396 120.784 61.6766 120.649 61.8541C120.525 62.0146 120.457 62.2118 120.457 62.4146C120.457 62.6175 120.525 62.8147 120.649 62.9752C120.784 63.1578 120.965 63.3015 121.174 63.392C121.403 63.4945 121.652 63.5485 121.903 63.5503V63.5378Z" fill="#989898"/>
<path d="M127.205 60.9041V65.7595H126.447V61.5917L125.051 61.921L124.867 61.4292L126.922 60.9166L127.205 60.9041Z" fill="#989898"/>
<path d="M133.164 65.2301V65.7594H128.709V65.6135L130.989 63.7797C131.296 63.5456 131.582 63.2848 131.843 63.0004C132.01 62.8194 132.107 62.584 132.114 62.3377C132.114 62.2053 132.085 62.0745 132.027 61.9553C131.969 61.8362 131.885 61.7317 131.781 61.65C131.524 61.4513 131.205 61.3508 130.88 61.3666C130.545 61.3503 130.215 61.4553 129.951 61.6625C129.842 61.7451 129.754 61.8516 129.694 61.9738C129.633 62.0959 129.601 62.2304 129.601 62.3669C129.6 62.5079 129.62 62.6483 129.659 62.7836H128.905C128.858 62.6497 128.834 62.5088 128.834 62.3669C128.837 62.1025 128.926 61.8464 129.088 61.6375C129.276 61.3917 129.524 61.1992 129.809 61.079C130.154 60.9316 130.526 60.8592 130.901 60.8665C131.259 60.8601 131.615 60.9253 131.947 61.0582C132.227 61.1715 132.474 61.3535 132.664 61.5875C132.833 61.7996 132.924 62.0627 132.923 62.3335C132.921 62.5608 132.856 62.7831 132.735 62.9753C132.613 63.1848 132.461 63.3757 132.285 63.5422C132.106 63.713 131.868 63.9131 131.581 64.1423L130.164 65.2718L133.164 65.2301Z" fill="#989898"/>
</g>
<defs>
<clipPath id="clip0_1456_573">
<rect width="249" height="65" fill="white" transform="translate(0 0.742676)"/>
</clipPath>
</defs>
</svg>
