<svg width="71" height="56" viewBox="0 0 71 56" fill="none" xmlns="http://www.w3.org/2000/svg">
<g clip-path="url(#clip0_1456_4953)">
<path d="M22.5141 53.375C22.7915 53.3607 23.0642 53.45 23.2794 53.6255C23.3727 53.7037 23.4471 53.8021 23.497 53.9131C23.5469 54.0242 23.5711 54.1451 23.5677 54.2668C23.559 54.5252 23.4504 54.7702 23.2647 54.9502C23.188 55.0236 23.0951 55.0778 22.9936 55.1086C22.8587 55.1575 22.7162 55.1822 22.5727 55.1818H21.3418V53.3742L22.5141 53.375ZM22.6002 54.8676C22.6784 54.8703 22.7563 54.8574 22.8293 54.8294C22.9024 54.8015 22.9691 54.7591 23.0254 54.7049C23.1339 54.5898 23.1935 54.4371 23.1916 54.2789C23.1896 54.1207 23.1264 53.9695 23.0151 53.8571C22.8854 53.7434 22.7166 53.6844 22.5443 53.6926H21.699V54.8676H22.6002Z" fill="#989898"/>
<path d="M26.1469 55.1849H24.1973V53.3748H26.0789V53.6924H24.5502V54.084H25.6141V54.4016H24.5502V54.8673H26.1469V55.1849Z" fill="#989898"/>
<path d="M28.8635 53.3748L27.8624 55.1849H27.457L26.4551 53.3748H26.8459L27.6593 54.8776L28.4735 53.3748H28.8635Z" fill="#989898"/>
<path d="M31.2855 55.1849H29.3359V53.3748H31.2175V53.6924H29.6897V54.084H30.7527V54.4016H29.6897V54.8673H31.2855V55.1849Z" fill="#989898"/>
<path d="M33.6403 55.1849H31.8887V53.3748H32.2416V54.8673H33.6403V55.1849Z" fill="#989898"/>
<path d="M36.4462 54.2754C36.448 54.4182 36.4141 54.5593 36.3477 54.6858C36.2812 54.8124 36.1844 54.9204 36.0658 55.0001C35.8241 55.1557 35.5428 55.2385 35.2554 55.2385C34.968 55.2385 34.6866 55.1557 34.445 55.0001C34.3264 54.9204 34.2295 54.8124 34.1631 54.6858C34.0967 54.5593 34.0628 54.4182 34.0645 54.2754C34.063 54.1333 34.0972 53.9931 34.164 53.8677C34.2308 53.7422 34.328 53.6356 34.4467 53.5575C34.6864 53.3985 34.9677 53.3137 35.2554 53.3137C35.543 53.3137 35.8243 53.3985 36.064 53.5575C36.1824 53.6359 36.2794 53.7426 36.3461 53.868C36.4128 53.9933 36.4472 54.1334 36.4462 54.2754ZM36.0778 54.2754C36.079 54.1857 36.0587 54.0971 36.0187 54.0169C35.9788 53.9366 35.9202 53.8671 35.848 53.814C35.6724 53.6951 35.4653 53.6315 35.2532 53.6315C35.0412 53.6315 34.834 53.6951 34.6584 53.814C34.5869 53.8682 34.5288 53.9381 34.4886 54.0183C34.4485 54.0985 34.4273 54.1869 34.4268 54.2767C34.4263 54.3664 34.4465 54.455 34.4858 54.5357C34.525 54.6164 34.5824 54.6869 34.6533 54.7419C34.828 54.8681 35.0405 54.931 35.2558 54.9201C35.4694 54.9305 35.6802 54.8676 35.8532 54.7419C35.925 54.6872 35.9829 54.6162 36.0219 54.5348C36.061 54.4534 36.0802 54.3639 36.0778 54.2736" fill="#989898"/>
<path d="M38.5629 53.3749C38.7304 53.3663 38.8948 53.422 39.0225 53.5307C39.0798 53.5838 39.1248 53.6487 39.1546 53.7209C39.1843 53.7932 39.198 53.871 39.1947 53.949C39.1995 54.0284 39.186 54.1079 39.1551 54.1812C39.1242 54.2545 39.0768 54.3197 39.0165 54.3716C38.8693 54.4799 38.6885 54.5327 38.5061 54.5205H37.4525V55.1851H37.0996V53.3775L38.5629 53.3749ZM38.5104 54.2021C38.723 54.2021 38.8314 54.116 38.8314 53.955C38.8314 53.7941 38.717 53.6925 38.4871 53.6925H37.4525V54.2021H38.5104Z" fill="#989898"/>
<path d="M42.2508 55.1849H41.897L41.8893 53.6958L40.9786 54.9293L40.0722 53.6838L40.0628 53.6958V55.1849H39.709V53.3748H40.2409L40.9786 54.3991L41.7188 53.3748H42.2508V55.1849Z" fill="#989898"/>
<path d="M44.9652 55.1849H43.0156V53.3748H44.8964V53.6924H43.3694V54.084H44.4316V54.4016H43.3694V54.8673H44.9652V55.1849Z" fill="#989898"/>
<path d="M47.6781 55.1849H47.1521L45.9213 53.6743V55.1849H45.5684V53.3748H46.0943L47.3252 54.8862V53.3748H47.6781V55.1849Z" fill="#989898"/>
<path d="M50.2937 53.6924H49.427V55.1849H49.074V53.6924H48.209V53.3748H50.2937V53.6924Z" fill="#989898"/>
<path d="M6.29743 43.979C5.44048 43.5294 4.48834 43.2915 3.52063 43.2852C2.89515 43.2852 2.41571 43.3584 2.08231 43.5047C1.7492 43.651 1.58221 43.855 1.58221 44.1141C1.58221 44.3732 1.76039 44.5832 2.11588 44.7072C2.37009 44.7979 2.78497 44.8598 3.36053 44.8931C4.20637 44.9505 4.765 44.9958 5.03642 45.0291C5.80421 45.1307 6.37145 45.3198 6.73813 45.5963C7.10481 45.8729 7.28844 46.2652 7.28902 46.773C7.28902 47.422 7.0021 47.9241 6.42826 48.2793C5.85442 48.6345 5.02753 48.8124 3.94757 48.813C2.38444 48.813 1.16819 48.4687 0.298828 47.7801L0.857458 47.0441C1.7875 47.622 2.86123 47.9268 3.95617 47.9238C4.67232 47.9238 5.22837 47.8251 5.62432 47.6277C6.00247 47.4355 6.19155 47.1733 6.19155 46.841C6.19155 46.4508 5.94308 46.1908 5.44614 46.0612C5.18677 45.9934 4.48697 45.9232 3.34676 45.8503C2.33623 45.782 1.62812 45.6463 1.22242 45.4431C0.747281 45.2067 0.51 44.809 0.510574 44.2501C0.510574 43.6763 0.780277 43.2221 1.31968 42.8876C1.85909 42.553 2.61942 42.3863 3.60068 42.3875C4.92051 42.3875 6.02686 42.6893 6.91975 43.293L6.29743 43.979Z" fill="#989898"/>
<path d="M14.4844 48.6692H8.88086V43.4625H14.2898V44.3775H9.89569V45.5034H12.9514V46.4166H9.89569V47.7551H14.4844V48.6692Z" fill="#989898"/>
<path d="M22.2256 43.4625L19.348 48.6684H18.1791L15.3008 43.4625H16.4232L18.7636 47.7835L21.1048 43.4625H22.2256Z" fill="#989898"/>
<path d="M28.9696 48.6692H23.3652V43.4625H28.7751V44.3775H24.3809V45.5034H27.4375V46.4166H24.3809V47.7551H28.9696V48.6692Z" fill="#989898"/>
<path d="M36.4071 48.6692H34.8921L31.3536 44.3259V48.6692H30.3379V43.4625H31.8511L35.3914 47.8076V43.4625H36.4071V48.6692Z" fill="#989898"/>
<path d="M46.6596 43.979C45.8026 43.5295 44.8505 43.2916 43.8828 43.2852C43.2562 43.2852 42.7765 43.3584 42.4436 43.5047C42.1105 43.651 41.9444 43.855 41.9444 44.1141C41.9444 44.3732 42.1217 44.5832 42.4781 44.7072C42.7311 44.7979 43.1457 44.8598 43.7219 44.8931C44.5688 44.9505 45.1275 44.9958 45.3977 45.0291C46.1661 45.1307 46.7334 45.3198 47.0995 45.5963C47.4656 45.8729 47.6492 46.2652 47.6503 46.773C47.6503 47.422 47.3634 47.9241 46.7896 48.2793C46.2158 48.6345 45.3886 48.8124 44.308 48.813C42.7461 48.813 41.5301 48.4687 40.6602 47.7801L41.2188 47.0441C42.1487 47.6222 43.2225 47.927 44.3175 47.9238C45.0342 47.9238 45.5903 47.8251 45.9856 47.6277C46.3644 47.4355 46.5537 47.1733 46.5537 46.841C46.5537 46.4508 46.305 46.1908 45.8075 46.0612C45.5487 45.9934 44.8489 45.9232 43.7081 45.8503C42.6987 45.782 41.9906 45.6463 41.5837 45.4431C41.1098 45.2067 40.8725 44.809 40.8719 44.2501C40.8719 43.6763 41.1416 43.2221 41.681 42.8876C42.2204 42.553 42.9808 42.3863 43.962 42.3875C45.2818 42.3875 46.3882 42.6893 47.2811 43.293L46.6596 43.979Z" fill="#989898"/>
<path d="M55.2267 46.9589C55.2267 47.5063 54.9529 47.9537 54.4055 48.3008C53.8581 48.648 53.1247 48.8227 52.2054 48.825C51.2792 48.825 50.5424 48.6514 49.995 48.3043C49.4476 47.9571 49.1738 47.5098 49.1738 46.9623V43.4625H50.1895V46.7592C50.1895 47.527 50.8615 47.9109 52.2054 47.9109C53.5493 47.9109 54.2179 47.527 54.211 46.7592V43.4625H55.2267V46.9589Z" fill="#989898"/>
<path d="M63.1423 48.6692H61.6274L58.0888 44.3259V48.6692H57.0723V43.4625H58.5855L62.1266 47.8076V43.4625H63.1423V48.6692Z" fill="#989898"/>
<path d="M69.7984 44.7494C69.1168 44.3928 68.358 44.2095 67.5888 44.2157C66.432 44.2157 65.8535 44.422 65.8535 44.8346C65.8535 45.0773 66.0707 45.2351 66.5051 45.308C67.0973 45.3591 67.6898 45.4128 68.2826 45.469C69.1347 45.5533 69.7416 45.7057 70.1031 45.926C70.5048 46.1688 70.7056 46.5383 70.7056 47.0347C70.7056 47.5942 70.456 48.0246 69.9567 48.3258C69.4575 48.6271 68.7336 48.7797 67.7851 48.7838C66.4475 48.7838 65.3778 48.4788 64.5762 47.8688L65.1271 47.1492C65.8432 47.6507 66.7235 47.9021 67.7679 47.9032C68.3549 47.9032 68.8091 47.8283 69.1304 47.6785C69.4518 47.5288 69.613 47.3296 69.6142 47.0812C69.6142 46.8052 69.4165 46.6103 69.0211 46.4967C68.6849 46.4199 68.3417 46.3775 67.9968 46.3702C67.2738 46.3363 66.8308 46.3111 66.6678 46.2944C66.024 46.2325 65.55 46.0942 65.2458 45.8796C64.9403 45.6644 64.7879 45.3519 64.7879 44.9396C64.7879 44.4433 65.0324 44.0496 65.5213 43.7587C66.0102 43.4677 66.6942 43.3223 67.5733 43.3223C68.7468 43.3223 69.698 43.5765 70.4267 44.0849L69.7984 44.7494Z" fill="#989898"/>
<path d="M14.3932 0.737224V0.758743C14.4164 1.02385 14.8236 1.26401 15.0121 1.39656C15.5849 1.78659 16.1821 2.13965 16.7999 2.45357C18.0127 3.09655 19.2565 3.681 20.5063 4.24652C23.5241 5.61512 26.597 6.85374 29.6957 8.02007C32.2298 8.97206 34.7905 9.84745 37.3495 10.7314C40.3909 11.7804 43.4308 12.8305 46.4692 13.8818C47.126 14.1082 53.2623 16.378 53.3931 15.735C53.4603 15.3709 52.4145 14.8941 52.1709 14.7606C51.5967 14.4482 51.0028 14.1736 50.402 13.9197L49.914 13.7131L46.9616 12.4633L37.9968 8.66994C36.5645 8.06741 35.1408 7.43389 33.6982 6.8503C30.083 5.32849 26.4111 3.92374 22.6935 2.66187C21.0176 2.09377 19.3314 1.54978 17.621 1.09702C17.3878 1.03504 15.6542 0.580566 14.827 0.580566C14.5688 0.580566 14.3967 0.624465 14.3906 0.738945" fill="#989898"/>
<path d="M20.207 9.89399C20.2207 10.1832 20.8095 10.4173 21.0109 10.5198C21.6265 10.8187 22.2587 11.082 22.9046 11.3082C24.3515 11.8376 25.8311 12.2903 27.3099 12.7155C30.1556 13.5344 33.029 14.2448 35.9304 14.8468L43.1271 16.3453C43.8347 16.4934 51.8905 18.4335 52.0428 17.6666C52.2021 16.8506 45.0707 15.1635 44.2496 14.9311L36.2824 12.6932C36.1103 12.6467 35.9424 12.6002 35.7728 12.5511C32.8463 11.7369 29.8853 11.0242 26.9011 10.4406C26.5163 10.3648 22.7582 9.66589 21.0479 9.66589C20.5315 9.66589 20.1966 9.73045 20.2052 9.89744" fill="#989898"/>
<path d="M24.5684 16.7489C24.5744 17.0631 25.3844 17.2551 25.5918 17.3231C26.247 17.5287 26.9124 17.7005 27.5853 17.8378C29.1045 18.164 30.641 18.4119 32.18 18.6271C34.1709 18.9051 36.1705 19.1108 38.1743 19.2761C40.8943 19.4976 43.614 19.72 46.3334 19.9432C46.8128 19.9819 47.2914 20.0164 47.7709 20.037C48.1401 20.0516 50.5029 20.2574 50.5924 19.7564C50.7465 18.9507 38.5238 17.41 37.484 17.2464C36.699 17.1311 30.2442 16.3254 26.7684 16.3254C25.4541 16.3254 24.5658 16.4399 24.5718 16.7558" fill="#989898"/>
<path d="M42.2132 21.4264C41.8638 21.4582 39.9555 21.5314 39.9073 22.0452C39.8307 22.7829 44.1095 22.7227 44.5717 22.7149C45.3145 22.7029 46.0574 22.6633 46.7976 22.5892C47.1479 22.5531 48.9383 22.4834 49.0149 22.0134C49.1156 21.4401 45.5504 21.3497 45.1648 21.3386C44.9232 21.3334 44.6813 21.3308 44.4391 21.3308C43.6954 21.3308 42.9526 21.3592 42.2132 21.4264Z" fill="#989898"/>
<path d="M42.271 24.3287C41.0294 24.4335 39.794 24.6019 38.5697 24.8331C37.9987 24.9366 37.4335 25.0702 36.8766 25.2333C36.6545 25.3004 35.8893 25.4631 35.8695 25.7696C35.817 26.4917 41.2062 25.8832 41.702 25.8195C42.6239 25.6998 43.544 25.5535 44.4564 25.365C44.9255 25.2677 45.3938 25.1593 45.8526 25.0207C46.0677 24.9579 46.8355 24.7995 46.8786 24.5146C46.9164 24.2736 46.0626 24.2056 45.0779 24.2056C43.8866 24.2056 42.5016 24.3063 42.2735 24.3252" fill="#989898"/>
<path d="M41.8926 27.3328C40.8864 27.4593 39.8896 27.6401 38.8911 27.82C37.3711 28.1126 35.8587 28.4578 34.3679 28.8744C33.7008 29.0621 33.0363 29.2626 32.3881 29.4993C32.1007 29.6043 31.0015 29.8953 30.9903 30.274C30.9705 30.9221 37.2514 29.6715 37.7997 29.5518C38.948 29.2936 40.0902 29.0096 41.2195 28.6833C41.8289 28.506 42.4375 28.3201 43.0365 28.1049C43.3034 28.0076 44.4008 27.7193 44.4499 27.3655C44.4688 27.2355 44.1555 27.1934 43.7424 27.1934C43.1247 27.2083 42.5081 27.2548 41.8952 27.3328" fill="#989898"/>
<path d="M38.4916 30.998C37.2866 31.2812 36.0867 31.6091 34.8928 31.9448C32.9828 32.4974 31.0866 33.106 29.2196 33.7877C28.3253 34.113 27.4353 34.4522 26.5659 34.8395C26.2664 34.9738 24.9554 35.4111 24.9649 35.8242C24.9726 36.2546 28.4191 35.405 28.698 35.3353C30.3575 34.9213 32.0007 34.4375 33.6292 33.9177C35.0925 33.4494 36.5558 32.9476 37.9924 32.4019C38.6621 32.1436 39.33 31.8854 39.9859 31.5971C40.2941 31.4619 41.6127 31.0281 41.6592 30.6244C41.667 30.5616 41.5559 30.5383 41.3717 30.5383C40.6323 30.5383 38.7034 30.9472 38.4916 30.9971" fill="#989898"/>
</g>
<defs>
<clipPath id="clip0_1456_4953">
<rect width="70.4097" height="54.8076" fill="white" transform="translate(0.294922 0.504883)"/>
</clipPath>
</defs>
</svg>
