<svg width="165" height="27" viewBox="0 0 165 27" fill="none" xmlns="http://www.w3.org/2000/svg">
<path fill-rule="evenodd" clip-rule="evenodd" d="M162.826 1.07463V5.97367C160.288 5.01553 158.028 4.53108 156.05 4.53108C154.879 4.53108 153.946 4.748 153.244 5.1674C152.543 5.59041 152.185 6.11108 152.185 6.72572C152.185 7.54283 152.977 8.2695 154.571 8.92036L159.178 11.162C162.902 12.9372 164.749 15.2945 164.749 18.2557C164.749 20.7178 163.769 22.6811 161.792 24.1345C159.828 25.6025 157.185 26.3292 153.895 26.3292C152.377 26.3292 151.014 26.2641 149.803 26.1267C148.591 25.9966 147.199 25.729 145.655 25.3457V20.2189C148.486 21.1771 151.064 21.6615 153.385 21.6615C156.155 21.6615 157.532 20.8589 157.532 19.2391C157.532 18.4328 156.968 17.7821 155.822 17.2722L150.706 15.092C148.819 14.2388 147.416 13.2048 146.498 11.9791C145.594 10.7426 145.135 9.3253 145.135 7.70554C145.135 5.43854 146.089 3.61269 147.977 2.22432C149.878 0.846783 152.402 0.15625 155.54 0.15625C156.56 0.15625 157.735 0.246602 159.037 0.412931C160.349 0.590103 161.611 0.807028 162.826 1.07463Z" fill="#989898"/>
<path fill-rule="evenodd" clip-rule="evenodd" d="M17.93 1.07463V5.97367C15.3919 5.01553 13.1358 4.53108 11.1581 4.53108C9.98301 4.53108 9.05387 4.748 8.35241 5.1674C7.65103 5.59041 7.29308 6.11108 7.29308 6.72572C7.29308 7.54283 8.09573 8.2695 9.69019 8.92036L14.2964 11.162C18.0059 12.9372 19.8571 15.2945 19.8571 18.2557C19.8571 20.7178 18.8737 22.6811 16.9104 24.1345C14.9327 25.6025 12.3042 26.3292 9.00327 26.3292C7.4847 26.3292 6.11801 26.2641 4.90681 26.1267C3.6956 25.9966 2.31807 25.729 0.763445 25.3457V20.2189C3.60525 21.1771 6.18315 21.6615 8.48983 21.6615C11.2594 21.6615 12.6369 20.8589 12.6369 19.2391C12.6369 18.4328 12.0765 17.7821 10.9411 17.2722L5.82519 15.092C3.92337 14.2388 2.52054 13.2048 1.61669 11.9791C0.698308 10.7426 0.25 9.3253 0.25 7.70554C0.25 5.43854 1.1973 3.61269 3.09542 2.22432C4.98279 0.846783 7.51 0.15625 10.6483 0.15625C11.6787 0.15625 12.8394 0.246602 14.1554 0.412931C15.457 0.590103 16.7188 0.807028 17.93 1.07463Z" fill="#989898"/>
<path fill-rule="evenodd" clip-rule="evenodd" d="M23.209 0.614014H30.7113V25.8686H23.209V0.614014Z" fill="#989898"/>
<path fill-rule="evenodd" clip-rule="evenodd" d="M54.8806 0.614014V5.28175H43.7338V10.8822H53.4019V15.0906H43.7338V20.9696H55.1084V25.8686H36.5137V0.614014H54.8806Z" fill="#989898"/>
<path fill-rule="evenodd" clip-rule="evenodd" d="M89.9047 0.614014V25.8686H82.901V9.21179L75.6342 26.1H71.3101L64.3212 9.21179V25.8686H59.2559V0.614014H68.414L74.6652 16.0741L81.2058 0.614014H89.9047Z" fill="#989898"/>
<path fill-rule="evenodd" clip-rule="evenodd" d="M114.064 0.614014V5.28175H102.978V10.8822H112.646V15.0906H102.978V20.9696H114.292V25.8686H95.6973V0.614014H114.064Z" fill="#989898"/>
<path fill-rule="evenodd" clip-rule="evenodd" d="M140.389 0.614014V25.8686H132.432L123.502 9.67095V25.8686H118.439V0.614014H126.629L135.328 16.5333V0.614014H140.389Z" fill="#989898"/>
</svg>
