<svg width="101" height="16" viewBox="0 0 101 16" fill="none" xmlns="http://www.w3.org/2000/svg">
<g clip-path="url(#clip0_1456_4742)">
<path d="M14.2665 3.07764C14.6315 3.55595 14.9406 4.0756 15.1873 4.62615L8.18725 9.85575L5.26172 7.99718V5.76123L8.18725 7.6198L14.2665 3.07764Z" fill="#989898"/>
<path d="M2.27537 7.83917C2.27537 7.73884 2.27778 7.63917 2.28261 7.54007L0.509656 7.45203C0.503621 7.58045 0.500002 7.71012 0.500002 7.84098C0.499248 8.86345 0.697692 9.87598 1.08396 10.8205C1.47022 11.7651 2.0367 12.623 2.75089 13.3452L4.00849 12.0713C3.45873 11.5164 3.0226 10.8568 2.72517 10.1305C2.42774 9.40422 2.27488 8.6255 2.27537 7.83917Z" fill="#989898"/>
<path d="M8.18414 1.85029C8.28309 1.85029 8.38142 1.85396 8.47919 1.85885L8.5679 0.0614251C8.4408 0.0553094 8.31285 0.0522519 8.18414 0.0522519C7.17476 0.0510044 6.17514 0.251829 5.2426 0.643195C4.31005 1.03456 3.46297 1.60876 2.75 2.33282L4.0076 3.60735C4.55517 3.05 5.20604 2.60785 5.9228 2.30631C6.63957 2.00477 7.40804 1.84979 8.18414 1.85029Z" fill="#989898"/>
<path d="M8.18516 13.8286C8.08621 13.8286 7.98783 13.8286 7.8895 13.8206L7.80078 15.6174C7.92831 15.624 8.05645 15.6272 8.18516 15.6272C9.19411 15.6283 10.1933 15.4273 11.1253 15.0359C12.0574 14.6444 12.9039 14.0701 13.6163 13.346L12.3611 12.0721C11.8134 12.6292 11.1626 13.0711 10.446 13.3725C9.7294 13.674 8.96107 13.829 8.18516 13.8286Z" fill="#989898"/>
<path d="M11.5171 2.89536L13.0113 1.77923C11.6456 0.65849 9.94088 0.0484026 8.18359 0.0515256V1.85017C9.37355 1.84868 10.5359 2.21312 11.5171 2.89536Z" fill="#989898"/>
<path d="M15.87 7.83934C15.8709 7.37144 15.8305 6.90434 15.7492 6.44373L14.0952 7.67911C14.0952 7.73234 14.0952 7.78553 14.0952 7.83934C14.0956 8.67615 13.9225 9.50373 13.5872 10.2684C13.2518 11.0331 12.7616 11.7178 12.1484 12.2782L13.3415 13.6145C14.1387 12.8851 14.7757 11.9941 15.2113 10.9992C15.6469 10.0043 15.8713 8.92777 15.87 7.83934Z" fill="#989898"/>
<path d="M8.18477 13.8283C7.359 13.8286 6.54239 13.6531 5.78777 13.3133C5.03319 12.9734 4.35743 12.4767 3.80427 11.8553L2.48633 13.0638C3.20592 13.8719 4.08507 14.5176 5.06675 14.9592C6.04843 15.4007 7.11072 15.6282 8.18477 15.6269V13.8283Z" fill="#989898"/>
<path d="M4.22212 3.4005L3.02969 2.06421C2.23227 2.79344 1.59499 3.68439 1.15919 4.67929C0.723396 5.67417 0.498812 6.75079 0.500005 7.83931H2.27537C2.275 7.00255 2.44811 6.17498 2.78347 5.41031C3.11883 4.64567 3.60897 3.96094 4.22212 3.4005Z" fill="#989898"/>
<mask id="mask0_1456_4742" style="mask-type:luminance" maskUnits="userSpaceOnUse" x="20" y="2" width="81" height="12">
<path d="M100.205 2.76062H20.0078V13.0562H100.205V2.76062Z" fill="white"/>
</mask>
<g mask="url(#mask0_1456_4742)">
<path d="M44.8476 4.50498L47.0465 2.88184H39.6875V12.6355H47.0465V11.0124H41.7873V8.51397H46.2736V6.89083H41.7873V4.50498H44.8476Z" fill="#989898"/>
<path d="M34.7355 6.68151H32.1806V4.5043H36.2581L38.4556 2.87622H30.082V12.6299H34.4652C36.9226 12.6299 38.333 11.5139 38.333 9.56765C38.333 7.7057 37.0556 6.68151 34.7355 6.68151ZM34.3707 11.0063H32.1806V8.30365H34.3707C35.6998 8.30365 36.323 8.75655 36.323 9.65498C36.323 10.5534 35.6599 11.0063 34.3707 11.0063Z" fill="#989898"/>
<path d="M52.4549 2.88049H48.4492V12.6342H50.5487V9.87112H52.4549C55.0106 9.87112 56.5916 8.52365 56.5916 6.3706C56.5916 4.21761 55.0106 2.88049 52.4549 2.88049ZM52.4106 8.24674H50.5487V4.50488H52.4106C53.7549 4.50488 54.4968 5.16974 54.4968 6.37655C54.4968 7.58336 53.7549 8.24674 52.4106 8.24674Z" fill="#989898"/>
<path d="M26.931 10.3323C26.3886 10.6266 25.781 10.779 25.1643 10.7754C23.3184 10.7754 21.9793 9.45492 21.9793 7.63669C21.9793 5.8184 23.3184 4.49511 25.1643 4.49511C25.8299 4.48378 26.4818 4.68603 27.0246 5.07235L28.4933 3.98859L28.3939 3.91788C27.5372 3.16316 26.3925 2.76343 25.0822 2.76343C23.661 2.76343 22.3724 3.24252 21.4523 4.11414C20.987 4.56292 20.6191 5.10297 20.3714 5.70059C20.1236 6.29821 20.0014 6.94054 20.0124 7.58759C20.0025 8.24121 20.1242 8.89011 20.3701 9.49559C20.616 10.1011 20.9811 10.6506 21.4436 11.1116C22.368 12.0178 23.6538 12.5171 25.0649 12.5171C26.5394 12.5171 27.8281 12.0019 28.7006 11.064L27.386 10.0827L26.931 10.3323Z" fill="#989898"/>
<path d="M64.9175 6.68151H62.3637V4.5043H67.8518V2.87622H60.2637V12.6299H64.6413C67.0984 12.6299 68.5089 11.5139 68.5089 9.56765C68.5146 7.7057 67.2375 6.68151 64.9175 6.68151ZM64.5527 11.0063H62.3637V8.30365H64.5527C65.8818 8.30365 66.5046 8.75655 66.5046 9.65498C66.5046 10.5534 65.8475 11.0063 64.5527 11.0063Z" fill="#989898"/>
<path d="M92.3786 12.616H90.25V2.8623H92.3786V6.95892H93.5371L96.6657 2.8623H99.0781L95.3671 7.50226L99.6762 12.616H96.8519L93.6848 8.77997H92.3786V12.616Z" fill="#989898"/>
<path d="M76.2424 10.7621H71.7395L70.9762 12.6562H68.7109L72.9343 2.90247H75.199L79.3538 12.6562H77.0057L76.2424 10.7621ZM75.5371 8.99482L74.0043 5.20668L72.4628 8.99482H75.5371Z" fill="#989898"/>
<path d="M82.2182 2.90247V6.97544H86.623V2.90247H88.8177V12.6562H86.623V8.81287H82.2182V12.6562H80.0234V2.90247H82.2182Z" fill="#989898"/>
</g>
</g>
<defs>
<clipPath id="clip0_1456_4742">
<rect width="100" height="15.7143" fill="white" transform="translate(0.5 0.0515137)"/>
</clipPath>
</defs>
</svg>
