<svg width="201" height="32" viewBox="0 0 201 32" fill="none" xmlns="http://www.w3.org/2000/svg">
<g clip-path="url(#clip0_1456_328)">
<rect width="200" height="31.4286" transform="translate(0.5 0.52832)" fill="white"/>
<path d="M28.031 6.58057C28.7611 7.53719 29.3792 8.57649 29.8727 9.67759L15.8725 20.1368L10.0215 16.4197V11.9477L15.8725 15.6649L28.031 6.58057Z" fill="#989898"/>
<path d="M4.05073 16.1041C4.05073 15.9035 4.05556 15.7041 4.06522 15.5059L0.519312 15.3298C0.507243 15.5867 0.500004 15.846 0.500004 16.1077C0.498496 18.1527 0.895385 20.1777 1.66791 22.0668C2.44044 23.9559 3.57339 25.6718 5.00178 27.1161L7.51698 24.5683C6.41746 23.4585 5.5452 22.1394 4.95034 20.6868C4.35549 19.2342 4.04976 17.6768 4.05073 16.1041Z" fill="#989898"/>
<path d="M15.8702 4.12586C16.0681 4.12586 16.2648 4.13321 16.4603 4.14299L16.6378 0.548143C16.3836 0.535912 16.1277 0.529797 15.8702 0.529797C13.8515 0.527302 11.8522 0.928952 9.98714 1.71168C8.12205 2.49442 6.4279 3.64282 5.00195 5.09094L7.51715 7.63999C8.61229 6.5253 9.91404 5.64099 11.3476 5.03791C12.7811 4.43484 14.318 4.12487 15.8702 4.12586Z" fill="#989898"/>
<path d="M15.8703 28.0824C15.6724 28.0824 15.4757 28.0824 15.279 28.0665L15.1016 31.6602C15.3566 31.6732 15.6129 31.6798 15.8703 31.6798C17.8882 31.6819 19.8865 31.28 21.7506 30.497C23.6147 29.7141 25.3078 28.5655 26.7326 27.1174L24.2222 24.5696C23.1269 25.6837 21.8253 26.5675 20.392 27.1703C18.9588 27.7732 17.4221 28.0832 15.8703 28.0824Z" fill="#989898"/>
<path d="M22.5323 6.21601L25.5206 3.98375C22.7892 1.74227 19.3798 0.522098 15.8652 0.528344V4.12563C18.2451 4.12264 20.5698 4.85154 22.5323 6.21601Z" fill="#989898"/>
<path d="M31.2399 16.104C31.2418 15.1682 31.1611 14.234 30.9985 13.3127L27.6904 15.7835C27.6904 15.89 27.6904 15.9964 27.6904 16.104C27.6913 17.7776 27.3451 19.4327 26.6744 20.9621C26.0036 22.4914 25.0233 23.8608 23.7969 24.9816L26.183 27.6543C27.7774 26.1955 29.0514 24.4135 29.9226 22.4238C30.7938 20.434 31.2426 18.2808 31.2399 16.104Z" fill="#989898"/>
<path d="M15.8695 28.0824C14.218 28.083 12.5848 27.732 11.0755 27.0523C9.56637 26.3726 8.21486 25.3791 7.10854 24.1365L4.47266 26.5534C5.91185 28.1695 7.67013 29.461 9.6335 30.3441C11.5969 31.2271 13.7214 31.6822 15.8695 31.6796V28.0824Z" fill="#989898"/>
<path d="M7.94424 7.2263L5.55938 4.55371C3.96453 6.01217 2.68998 7.79407 1.81838 9.78386C0.946792 11.7736 0.497624 13.9269 0.500009 16.1039H4.05074C4.05001 14.4304 4.39623 12.7753 5.06694 11.2459C5.73767 9.71663 6.71793 8.34717 7.94424 7.2263Z" fill="#989898"/>
<mask id="mask0_1456_328" style="mask-type:luminance" maskUnits="userSpaceOnUse" x="39" y="5" width="161" height="22">
<path d="M199.91 5.94702H39.5156V26.5382H199.91V5.94702Z" fill="white"/>
</mask>
<g mask="url(#mask0_1456_328)">
<path d="M89.1953 9.43575L93.5929 6.18945H78.875V25.6969H93.5929V22.4506H83.0746V17.4537H92.0472V14.2074H83.0746V9.43575H89.1953Z" fill="#989898"/>
<path d="M68.9729 13.7888H63.8632V9.43438H72.0181L76.4131 6.17822H59.666V25.6856H68.4324C73.3472 25.6856 76.1679 23.4537 76.1679 19.5611C76.1679 15.8372 73.6131 13.7888 68.9729 13.7888ZM68.2434 22.4383H63.8632V17.0331H68.2434C70.9016 17.0331 72.148 17.9389 72.148 19.7357C72.148 21.5325 70.8218 22.4383 68.2434 22.4383Z" fill="#989898"/>
<path d="M104.412 6.18677H96.4004V25.6941H100.599V20.168H104.412C109.523 20.168 112.685 17.4731 112.685 13.167C112.685 8.86101 109.523 6.18677 104.412 6.18677ZM104.323 16.9193H100.599V9.43554H104.323C107.012 9.43554 108.496 10.7653 108.496 13.1789C108.496 15.5925 107.012 16.9193 104.323 16.9193Z" fill="#989898"/>
<path d="M53.364 21.0904C52.2792 21.679 51.0639 21.9837 49.8305 21.9765C46.1387 21.9765 43.4605 19.3356 43.4605 15.6992C43.4605 12.0626 46.1387 9.416 49.8305 9.416C51.1618 9.39334 52.4655 9.79785 53.5511 10.5705L56.4885 8.40296L56.2898 8.26154C54.5764 6.75209 52.2869 5.95264 49.6664 5.95264C46.824 5.95264 44.2467 6.91083 42.4065 8.65406C41.476 9.55162 40.7402 10.6317 40.2447 11.827C39.7492 13.0222 39.5048 14.3069 39.5268 15.601C39.507 16.9082 39.7504 18.206 40.2422 19.417C40.734 20.6279 41.4642 21.7271 42.3892 22.649C44.238 24.4614 46.8096 25.46 49.6318 25.46C52.5807 25.46 55.1581 24.4296 56.9032 22.5537L54.274 20.5912L53.364 21.0904Z" fill="#989898"/>
<path d="M129.337 13.7888H124.229V9.43438H135.205V6.17822H120.029V25.6856H128.785C133.699 25.6856 136.52 23.4537 136.52 19.5611C136.531 15.8372 133.977 13.7888 129.337 13.7888ZM128.607 22.4383H124.229V17.0331H128.607C131.265 17.0331 132.511 17.9389 132.511 19.7357C132.511 21.5325 131.197 22.4383 128.607 22.4383Z" fill="#989898"/>
<path d="M184.259 25.6578H180.002V6.15039H184.259V14.3436H186.576L192.833 6.15039H197.658L190.236 15.4303L198.854 25.6578H193.206L186.871 17.9857H184.259V25.6578Z" fill="#989898"/>
<path d="M151.985 21.9505H142.979L141.452 25.7386H136.922L145.369 6.2312H149.898L158.208 25.7386H153.511L151.985 21.9505ZM150.574 18.4159L147.509 10.8396L144.426 18.4159H150.574Z" fill="#989898"/>
<path d="M163.94 6.2312V14.3771H172.75V6.2312H177.139V25.7386H172.75V18.052H163.94V25.7386H159.551V6.2312H163.94Z" fill="#989898"/>
</g>
</g>
<defs>
<clipPath id="clip0_1456_328">
<rect width="200" height="31.4286" fill="white" transform="translate(0.5 0.52832)"/>
</clipPath>
</defs>
</svg>
