<svg width="143" height="70" viewBox="0 0 143 70" fill="none" xmlns="http://www.w3.org/2000/svg">
<path d="M44.2644 22.1104H53.3082V25.0654H49.0061V45.8281H44.2644V22.1104ZM58.67 36.9243L59.4827 25.0654H59.7548L60.5675 36.9243H58.67ZM53.419 45.8281H58.0616L58.5007 39.5292H60.7365L61.1777 45.8281H65.8182L63.3455 22.1104H55.8918L53.419 45.8281ZM72.609 37.527V41.9982C72.609 42.601 73.0756 42.7759 73.3477 42.7759C73.7948 42.7759 74.1059 42.4065 74.1059 41.9982V36.4774C74.1059 35.7385 73.9697 34.9221 72.2007 34.9221H70.276V32.3171H72.2784C73.6199 32.3171 74.1059 32.006 74.1059 30.5479V25.8431C74.1059 25.4348 73.7948 25.0654 73.3475 25.0654C73.0756 25.0654 72.609 25.2209 72.609 25.8431V29.7118H67.8653V26.3486C67.8653 24.6961 68.0597 22.1104 71.3838 22.1104H75.311C78.6353 22.1104 78.8492 24.6961 78.8492 26.3486V30.1393C78.8492 32.725 77.0412 33.425 75.6221 33.3665V33.5999C78.8103 33.5222 78.8492 35.9715 78.8492 36.8076V41.5901C78.8492 43.2619 78.6353 45.8281 75.311 45.8281H71.3838C68.0597 45.8281 67.8653 43.2617 67.8653 41.5899V37.527H72.609ZM81.9599 22.1104H92.9439V45.8281H88.2004V25.0654H86.7035V45.8281H81.9599V22.1104ZM100.798 35.1552V25.0656H101.42C101.925 25.0656 102.295 25.493 102.295 26.2514V33.9693C102.295 34.7276 101.925 35.155 101.42 35.155L100.798 35.1552ZM96.0544 45.8281H100.798V37.7602H103.519C106.824 37.7602 107.038 35.194 107.038 33.522V26.3486C107.038 24.6961 106.824 22.1104 103.52 22.1104H96.0544V45.8281ZM116.389 41.9982C116.389 42.4065 116.078 42.7759 115.631 42.7759C115.359 42.7759 114.892 42.601 114.892 41.9982V25.8431C114.892 25.2209 115.359 25.0654 115.631 25.0654C116.078 25.0654 116.389 25.4348 116.389 25.8431V41.9982ZM110.149 41.5901C110.149 43.2619 110.363 45.8281 113.668 45.8281H117.614C120.919 45.8281 121.133 43.2617 121.133 41.5899V26.3486C121.133 24.6961 120.919 22.1104 117.614 22.1104H113.668C110.363 22.1104 110.149 24.6961 110.149 26.3486V41.5901ZM136.569 22.1104H142.751V45.8281H138.007V30.956H137.832L135.383 45.8281H131.592L129.162 30.956H128.987V45.8281H124.243V22.1104H130.406L133.497 38.7905L136.569 22.1104ZM38.1172 13.3622C36.6652 7.00507 33.0257 1.83393 32.5241 0.997803C31.731 2.18358 28.8285 6.75241 27.353 11.8069C25.7413 17.464 25.5041 22.4797 26.0604 27.3982C26.6124 32.3362 28.6982 37.4103 28.6982 37.4103C29.8065 40.0542 31.4666 42.9119 32.5476 44.3117C34.1319 42.2511 37.7732 36.1076 38.9085 28.0982C39.5404 23.6268 39.5676 19.7193 38.1172 13.3622ZM32.5241 42.7176C31.8108 41.3762 30.7025 38.8293 30.5976 34.8634C30.5703 31.0532 32.1003 27.7676 32.5476 27.0873C32.9461 27.7678 34.264 30.6254 34.4216 34.533C34.5284 38.3434 33.261 41.3565 32.5241 42.7176ZM37.6955 24.1516C37.641 26.5818 37.3513 29.148 36.9819 30.6838C37.1141 28.0399 36.7973 24.3267 36.1906 21.4106C35.5841 18.5139 33.8675 13.6538 32.4971 11.418C31.2315 13.5566 29.6722 17.7557 28.8558 21.3912C28.0353 25.0264 28.0121 29.4396 28.0121 30.7616C27.7942 29.6533 27.2499 25.6681 27.4035 21.6828C27.5319 18.3974 28.3016 14.9953 28.7236 13.4399C30.3332 8.2493 32.1548 4.92492 32.4969 4.39991C32.8392 4.92492 35.1331 9.02697 36.3228 13.3232C37.5069 17.6197 37.746 21.7408 37.6955 24.1516Z" fill="#989898"/>
<path d="M34.9865 45.7894H23.9462V53.1963C23.956 53.1963 23.9638 53.1768 23.9734 53.1768C26.5746 50.5719 30.7933 50.5719 33.3964 53.1768C35.9976 55.7625 35.9976 59.981 33.3964 62.5862C33.3847 62.6055 33.3729 62.6055 33.3614 62.625C33.3478 62.625 33.3342 62.6444 33.3224 62.6639C30.7271 65.2301 27.3367 66.5131 23.9462 66.5131C20.5403 66.5131 17.1342 65.2301 14.537 62.625C9.95665 58.0563 9.41425 50.9605 12.9058 45.7894C13.3852 45.0779 13.9314 44.414 14.537 43.8064C17.1342 41.2015 20.5403 39.9183 23.9462 39.9183V22.1106C10.8588 22.1106 0.25 32.7057 0.25 45.7894C0.25 58.873 10.8588 69.4876 23.9462 69.4876C30.7699 69.4876 36.9171 66.5908 41.2406 61.9835V45.7894H34.9865ZM142.75 52.7576H44.2637V69.4876H142.75V52.7576ZM134.234 64.4369H135.483V61.9116H134.234V64.4369ZM134.234 60.0177H136.124L137.391 60.6491L137.703 61.2804L138.015 62.543V63.1743C137.982 67.6972 135.072 66.0415 132.014 66.3311V55.9142H134.234V60.0177ZM117.81 55.9142V57.8081H116.231V66.3311H113.716V57.8081H112.138V55.9142H117.81ZM94.7761 63.49H95.0885L95.7132 63.1743V58.755H94.7761V63.49ZM92.2443 58.7552H91.2906V63.1743L91.9317 63.49H92.2443V58.7552ZM94.7761 55.9142V56.8611H96.3545L97.2916 57.4924L97.9327 58.1238L98.245 59.3865V62.8588L97.9329 64.1214L97.2916 64.7527L96.3545 65.3839H94.7761V66.3308H92.2443V65.3839H90.6659L89.7124 64.7527L89.0877 64.1214L88.7753 62.8588V59.3865L89.0875 58.1238L89.7124 57.4924L90.6659 56.8611H92.2443V55.9142H94.7761ZM74.2516 55.9142V57.8081H72.3577V60.0177H74.2516V61.9116H72.3577V64.4369H74.5673V66.3308H69.8324V55.9142H74.2516ZM51.524 60.0177H52.7866V55.9142H54.9963V66.3311H52.7866V61.9116H51.524V66.3311H48.9986V55.9142H51.524V60.0177Z" fill="#989898"/>
</svg>
