<svg width="197" height="36" viewBox="0 0 197 36" fill="none" xmlns="http://www.w3.org/2000/svg">
<g clip-path="url(#clip0_1456_564)">
<path d="M21.2405 32.4118H0.5V0.982178H8.1308V25.1831H21.2405V32.4118Z" fill="#989898"/>
<path d="M33.4492 13.0606H46.1083V20.2893H33.4492V25.1831H47.3213V32.4118H25.8184V0.982178H47.3213V8.16682H33.4492V13.0606Z" fill="#989898"/>
<path d="M67.5414 0.742676C72.2011 0.742676 76.1457 2.47582 79.372 5.94209L74.4412 10.5144C72.5288 8.78128 69.9138 7.91471 67.2263 7.91471C64.835 7.91471 63.1652 8.72771 61.5804 10.3569C59.9956 11.986 59.2048 14.1162 59.2048 16.7443C59.2048 19.3755 59.9956 21.4962 61.5804 23.1096C63.162 24.723 65.1501 25.5297 67.5414 25.5297C69.0663 25.5297 70.4683 25.2303 71.7538 24.6348V20.3271H67.5414V14.592H79.372V27.5433C76.1457 31.0096 72.2011 32.7427 67.5414 32.7427C63.1211 32.7427 59.3561 31.1829 56.2496 28.0601C53.143 24.9373 51.5898 21.1653 51.5898 16.7443C51.5898 12.3232 53.143 8.55125 56.2496 5.42845C59.3561 2.30565 63.1179 0.742676 67.5414 0.742676Z" fill="#989898"/>
<path d="M91.9277 13.0606H104.587V20.2893H91.9277V25.1831H105.8V32.4118H84.2969V0.982178H105.8V8.16682H91.9277V13.0606Z" fill="#989898"/>
<path d="M135.614 32.4118H131.036L118.018 15.1277V32.415H110.387V0.982178H114.965L127.983 18.2694V0.982178H135.614V32.4118Z" fill="#989898"/>
<path d="M140.201 0.982178H151.647C156.105 0.982178 159.886 2.48528 162.983 5.49464C166.08 8.50399 167.63 12.2381 167.63 16.697C167.63 21.1874 166.08 24.9278 162.983 27.9214C159.886 30.915 156.108 32.4118 151.647 32.4118H140.201V0.982178ZM147.831 25.1831H151.647C154.101 25.1831 156.105 24.4426 157.661 22.9615C159.218 21.4805 159.996 19.3913 159.996 16.697C159.996 14.0028 159.218 11.9073 157.661 10.4104C156.105 8.91364 154.098 8.16682 151.647 8.16682H147.831V25.1831Z" fill="#989898"/>
<path d="M176.525 28.0569L174.909 32.4118H166.424L179.263 0.982178H183.841L196.5 32.4118H188.015L186.399 28.0569H176.525ZM181.462 14.7212L179.171 20.8282H183.749L181.462 14.7212Z" fill="#989898"/>
</g>
<defs>
<clipPath id="clip0_1456_564">
<rect width="196" height="35" fill="white" transform="translate(0.5 0.742676)"/>
</clipPath>
</defs>
</svg>
