<svg width="103" height="80" viewBox="0 0 103 80" fill="none" xmlns="http://www.w3.org/2000/svg">
<g clip-path="url(#clip0_1456_535)">
<path d="M32.7207 77.0695C33.1218 77.0488 33.5162 77.1779 33.8273 77.4318C33.9622 77.5449 34.0698 77.6871 34.142 77.8477C34.2142 78.0082 34.2492 78.1831 34.2443 78.3591C34.2317 78.7328 34.0747 79.0871 33.8061 79.3474C33.6952 79.4535 33.5609 79.532 33.414 79.5765C33.2189 79.6471 33.0129 79.6829 32.8054 79.6823H31.0254V77.0683L32.7207 77.0695ZM32.8452 79.2279C32.9582 79.2319 33.0709 79.2131 33.1765 79.1727C33.2822 79.1323 33.3786 79.0711 33.4601 78.9927C33.617 78.8262 33.7031 78.6053 33.7003 78.3766C33.6975 78.1479 33.6061 77.9292 33.4452 77.7666C33.2575 77.6022 33.0135 77.517 32.7643 77.5289H31.542V79.2279H32.8452Z" fill="#989898"/>
<path d="M37.9736 79.687H35.1543V77.0693H37.8753V77.5286H35.6646V78.095H37.2031V78.5543H35.6646V79.2277H37.9736V79.687Z" fill="#989898"/>
<path d="M41.9047 77.0693L40.457 79.687H39.8708L38.4219 77.0693H38.987L40.1633 79.2427L41.3408 77.0693H41.9047Z" fill="#989898"/>
<path d="M45.4033 79.687H42.584V77.0693H45.305V77.5286H43.0956V78.095H44.6328V78.5543H43.0956V79.2277H45.4033V79.687Z" fill="#989898"/>
<path d="M48.8104 79.687H46.2773V77.0693H46.7877V79.2277H48.8104V79.687Z" fill="#989898"/>
<path d="M52.8681 78.3716C52.8706 78.5782 52.8216 78.7822 52.7256 78.9652C52.6295 79.1482 52.4894 79.3043 52.3179 79.4196C51.9685 79.6447 51.5616 79.7643 51.146 79.7643C50.7304 79.7643 50.3235 79.6447 49.9741 79.4196C49.8026 79.3043 49.6625 79.1482 49.5665 78.9652C49.4704 78.7822 49.4214 78.5782 49.4239 78.3716C49.4218 78.1661 49.4713 77.9634 49.5678 77.782C49.6644 77.6006 49.8049 77.4464 49.9766 77.3335C50.3233 77.1036 50.73 76.981 51.146 76.981C51.562 76.981 51.9688 77.1036 52.3154 77.3335C52.4866 77.4469 52.6268 77.6012 52.7233 77.7825C52.8198 77.9638 52.8696 78.1662 52.8681 78.3716ZM52.3354 78.3716C52.337 78.242 52.3077 78.1138 52.2499 77.9978C52.1921 77.8817 52.1075 77.7812 52.003 77.7044C51.7491 77.5324 51.4496 77.4405 51.1429 77.4405C50.8363 77.4405 50.5367 77.5324 50.2828 77.7044C50.1794 77.7827 50.0953 77.8838 50.0373 77.9998C49.9792 78.1159 49.9486 78.2437 49.9479 78.3735C49.9472 78.5032 49.9763 78.6314 50.0331 78.748C50.0899 78.8647 50.1728 78.9667 50.2753 79.0462C50.528 79.2288 50.8353 79.3197 51.1466 79.3039C51.4555 79.319 51.7603 79.228 52.0105 79.0462C52.1144 78.9672 52.1981 78.8645 52.2546 78.7468C52.311 78.6291 52.3387 78.4996 52.3354 78.3691" fill="#989898"/>
<path d="M55.9305 77.0696C56.1727 77.0572 56.4105 77.1378 56.5952 77.2949C56.678 77.3717 56.7431 77.4656 56.7861 77.57C56.8291 77.6745 56.8489 77.787 56.8441 77.8998C56.8512 78.0147 56.8316 78.1296 56.7869 78.2356C56.7422 78.3416 56.6736 78.4359 56.5865 78.511C56.3736 78.6676 56.1121 78.7439 55.8484 78.7264H54.3248V79.6873H53.8145V77.0733L55.9305 77.0696ZM55.8546 78.2658C56.162 78.2658 56.3189 78.1413 56.3189 77.9086C56.3189 77.6758 56.1533 77.5289 55.821 77.5289H54.3248V78.2658H55.8546Z" fill="#989898"/>
<path d="M61.2617 79.687H60.7501L60.7389 77.5336L59.4219 79.3173L58.1112 77.5162L58.0975 77.5336V79.687H57.5859V77.0693H58.3552L59.4219 78.5506L60.4924 77.0693H61.2617V79.687Z" fill="#989898"/>
<path d="M65.1885 79.687H62.3691V77.0693H65.0889V77.5286H62.8807V78.095H64.4167V78.5543H62.8807V79.2277H65.1885V79.687Z" fill="#989898"/>
<path d="M69.1114 79.687H68.3509L66.5709 77.5025V79.687H66.0605V77.0693H66.8211L68.6011 79.2551V77.0693H69.1114V79.687Z" fill="#989898"/>
<path d="M72.8937 77.5286H71.6402V79.687H71.1299V77.5286H69.8789V77.0693H72.8937V77.5286Z" fill="#989898"/>
<path d="M9.27029 63.482C8.03106 62.8318 6.65417 62.4878 5.25476 62.4787C4.35025 62.4787 3.65693 62.5845 3.1748 62.7961C2.69309 63.0077 2.45161 63.3027 2.45161 63.6774C2.45161 64.052 2.70927 64.3558 3.22335 64.535C3.59096 64.6661 4.19092 64.7557 5.02324 64.8039C6.2464 64.8868 7.05424 64.9524 7.44675 65.0005C8.55705 65.1474 9.37733 65.4208 9.90759 65.8208C10.4379 66.2208 10.7034 66.788 10.7042 67.5224C10.7042 68.4609 10.2893 69.187 9.45949 69.7007C8.62966 70.2143 7.43388 70.4716 5.87215 70.4724C3.61171 70.4724 1.85289 69.9745 0.595703 68.9787L1.40354 67.9145C2.74847 68.7501 4.3012 69.1909 5.8846 69.1866C6.92022 69.1866 7.72432 69.0439 8.2969 68.7584C8.84376 68.4804 9.11718 68.1012 9.11718 67.6207C9.11718 67.0564 8.75787 66.6805 8.03924 66.493C7.66416 66.3951 6.65219 66.2934 5.00332 66.188C3.542 66.0893 2.51799 65.893 1.93131 65.5993C1.24421 65.2574 0.901079 64.6823 0.901909 63.874C0.901909 63.0442 1.29193 62.3874 2.07196 61.9036C2.852 61.4198 3.95152 61.1788 5.37052 61.1804C7.27912 61.1804 8.87902 61.6169 10.1702 62.4899L9.27029 63.482Z" fill="#989898"/>
<path d="M21.1072 70.2645H13.0039V62.7351H20.8258V64.0583H14.4715V65.6864H18.8903V67.0071H14.4715V68.9426H21.1072V70.2645Z" fill="#989898"/>
<path d="M32.303 62.7351L28.1418 70.2633H26.4515L22.2891 62.7351H23.9122L27.2966 68.9837L30.6823 62.7351H32.303Z" fill="#989898"/>
<path d="M42.0576 70.2645H33.9531V62.7351H41.7763V64.0583H35.4219V65.6864H39.842V67.0071H35.4219V68.9426H42.0576V70.2645Z" fill="#989898"/>
<path d="M52.8138 70.2645H50.623L45.5059 63.9836V70.2645H44.0371V62.7351H46.2254L51.345 69.0185V62.7351H52.8138V70.2645Z" fill="#989898"/>
<path d="M67.6387 63.482C66.3994 62.8319 65.0226 62.4879 63.6232 62.4787C62.717 62.4787 62.0233 62.5845 61.542 62.7961C61.0603 63.0077 60.82 63.3027 60.82 63.6774C60.82 64.052 61.0765 64.3558 61.5918 64.535C61.9577 64.6661 62.5573 64.7557 63.3904 64.8039C64.6153 64.8868 65.4231 64.9524 65.8139 65.0005C66.9251 65.1474 67.7454 65.4208 68.2748 65.8208C68.8042 66.2208 69.0698 66.788 69.0714 67.5224C69.0714 68.4609 68.6565 69.187 67.8267 69.7007C66.9968 70.2143 65.8007 70.4716 64.2381 70.4724C61.9793 70.4724 60.2209 69.9745 58.9629 68.9787L59.7707 67.9145C61.1155 68.7504 62.6684 69.1912 64.2518 69.1866C65.2882 69.1866 66.0923 69.0439 66.6641 68.7584C67.2118 68.4804 67.4856 68.1012 67.4856 67.6207C67.4856 67.0564 67.1259 66.6805 66.4064 66.493C66.0322 66.3951 65.0202 66.2934 63.3705 66.188C61.9108 66.0893 60.8868 65.893 60.2985 65.5993C59.6131 65.2574 59.2699 64.6823 59.2691 63.874C59.2691 63.0442 59.6591 62.3874 60.4392 61.9036C61.2192 61.4198 62.3187 61.1788 63.7377 61.1804C65.6463 61.1804 67.2462 61.6169 68.5374 62.4899L67.6387 63.482Z" fill="#989898"/>
<path d="M80.0264 67.7912C80.0264 68.5829 79.6306 69.2297 78.839 69.7318C78.0473 70.2338 76.9868 70.4865 75.6574 70.4898C74.3181 70.4898 73.2526 70.2388 72.4609 69.7368C71.6693 69.2347 71.2734 68.5879 71.2734 67.7962V62.7351H72.7422V67.5025C72.7422 68.6128 73.714 69.1679 75.6574 69.1679C77.6009 69.1679 78.5676 68.6128 78.5577 67.5025V62.7351H80.0264V67.7912Z" fill="#989898"/>
<path d="M91.4732 70.2645H89.2825L84.1653 63.9836V70.2645H82.6953V62.7351H84.8836L90.0044 69.0185V62.7351H91.4732V70.2645Z" fill="#989898"/>
<path d="M101.101 64.596C100.115 64.0803 99.0177 63.8153 97.9054 63.8243C96.2325 63.8243 95.396 64.1226 95.396 64.7192C95.396 65.0702 95.7101 65.2985 96.3383 65.4038C97.1947 65.4777 98.0515 65.5553 98.9087 65.6366C100.141 65.7586 101.019 65.9789 101.541 66.2976C102.122 66.6486 102.413 67.183 102.413 67.9008C102.413 68.7099 102.052 69.3322 101.33 69.7679C100.608 70.2036 99.5609 70.4243 98.1892 70.4301C96.2549 70.4301 94.7081 69.989 93.5488 69.1069L94.3455 68.0663C95.3811 68.7916 96.654 69.1551 98.1643 69.1567C99.0132 69.1567 99.67 69.0484 100.135 68.8318C100.599 68.6153 100.833 68.3273 100.834 67.968C100.834 67.5689 100.548 67.2871 99.9767 67.1228C99.4904 67.0117 98.9941 66.9504 98.4954 66.9398C97.4498 66.8909 96.8092 66.8544 96.5735 66.8303C95.6425 66.7407 94.957 66.5407 94.5172 66.2303C94.0754 65.9192 93.855 65.4673 93.855 64.8711C93.855 64.1533 94.2085 63.584 94.9155 63.1633C95.6226 62.7426 96.6117 62.5322 97.883 62.5322C99.58 62.5322 100.955 62.8998 102.009 63.6351L101.101 64.596Z" fill="#989898"/>
<path d="M20.9764 0.949931V0.98105C21.01 1.36443 21.5988 1.71171 21.8714 1.9034C22.6997 2.46743 23.5632 2.97798 24.4567 3.43194C26.2105 4.36176 28.0092 5.20694 29.8165 6.02473C34.1806 8.00387 38.6243 9.79504 43.1054 11.4817C46.7699 12.8583 50.473 14.1242 54.1736 15.4026C58.5717 16.9195 62.9677 18.4381 67.3616 19.9583C68.3113 20.2857 77.1851 23.5681 77.3743 22.6383C77.4713 22.1117 75.959 21.4221 75.6067 21.2292C74.7765 20.7774 73.9176 20.3803 73.0488 20.0131L72.343 19.7144L68.0736 17.907L55.1096 12.4214C53.0384 11.5501 50.9796 10.634 48.8934 9.79006C43.6655 7.58937 38.3554 5.55795 32.9794 3.73317C30.5559 2.91164 28.1175 2.12496 25.6442 1.47023C25.3068 1.38061 22.7999 0.723389 21.6037 0.723389C21.2303 0.723389 20.9814 0.78687 20.9727 0.952421" fill="#989898"/>
<path d="M29.3836 14.1917C29.4035 14.6099 30.2549 14.9485 30.5462 15.0966C31.4363 15.5289 32.3506 15.9096 33.2846 16.2368C35.377 17.0023 37.5167 17.657 39.6552 18.2719C43.7703 19.4561 47.9256 20.4834 52.1212 21.3539L62.5285 23.521C63.5517 23.7351 75.2012 26.5407 75.4215 25.4317C75.6518 24.2516 65.3391 21.812 64.1516 21.4759L52.6303 18.2396C52.3814 18.1723 52.1387 18.1051 51.8934 18.0342C47.6613 16.8567 43.3794 15.826 39.0639 14.9821C38.5075 14.8725 33.073 13.8618 30.5997 13.8618C29.8529 13.8618 29.3686 13.9552 29.3811 14.1967" fill="#989898"/>
<path d="M35.6914 24.1046C35.7001 24.5589 36.8714 24.8365 37.1714 24.9348C38.1189 25.2323 39.0811 25.4807 40.0542 25.6792C42.2512 26.151 44.473 26.5094 46.6986 26.8206C49.5777 27.2227 52.4692 27.5202 55.367 27.7592C59.3004 28.0795 63.2333 28.401 67.1659 28.7238C67.8592 28.7798 68.5513 28.8296 69.2446 28.8595C69.7786 28.8807 73.1954 29.1782 73.3248 28.4537C73.5476 27.2886 55.8724 25.0606 54.3687 24.8241C53.2335 24.6573 43.8992 23.4922 38.873 23.4922C36.9722 23.4922 35.6877 23.6577 35.6964 24.1146" fill="#989898"/>
<path d="M61.2092 30.8686C60.7038 30.9147 57.9442 31.0205 57.8745 31.7636C57.7637 32.8303 63.9513 32.7432 64.6198 32.732C65.694 32.7146 66.7682 32.6573 67.8387 32.5503C68.3453 32.498 70.9343 32.3972 71.0451 31.7175C71.1907 30.8885 66.035 30.7579 65.4774 30.7417C65.128 30.7342 64.7783 30.7305 64.4281 30.7305C63.3526 30.7305 62.2784 30.7715 61.2092 30.8686Z" fill="#989898"/>
<path d="M61.2928 35.0657C59.4974 35.2173 57.711 35.4608 55.9405 35.7951C55.1147 35.9449 54.2974 36.1381 53.4921 36.3739C53.1709 36.471 52.0643 36.7063 52.0357 37.1494C51.9598 38.1937 59.7531 37.3137 60.4701 37.2216C61.8032 37.0486 63.1338 36.837 64.4532 36.5644C65.1316 36.4237 65.8087 36.2669 66.4722 36.0665C66.7834 35.9756 67.8937 35.7466 67.9559 35.3346C68.0107 34.986 66.7759 34.8877 65.3519 34.8877C63.6292 34.8877 61.6264 35.0333 61.2966 35.0607" fill="#989898"/>
<path d="M60.7425 39.4099C59.2874 39.5929 57.846 39.8543 56.4021 40.1144C54.2039 40.5376 52.0169 41.0368 49.861 41.6392C48.8963 41.9106 47.9354 42.2006 46.9981 42.5429C46.5823 42.6948 44.9928 43.1155 44.9766 43.6632C44.948 44.6005 54.0309 42.7919 54.8238 42.6188C56.4842 42.2454 58.136 41.8347 59.7691 41.3629C60.6504 41.1065 61.5304 40.8376 62.3967 40.5264C62.7826 40.3858 64.3697 39.9688 64.4406 39.4572C64.468 39.2692 64.0149 39.2083 63.4174 39.2083C62.5242 39.2298 61.6326 39.2971 60.7462 39.4099" fill="#989898"/>
<path d="M55.8268 44.7101C54.0841 45.1196 52.349 45.5939 50.6225 46.0793C47.8604 46.8784 45.1183 47.7585 42.4184 48.7443C41.1252 49.2148 39.8381 49.7052 38.5809 50.2654C38.1477 50.4595 36.252 51.0919 36.2657 51.6894C36.2769 52.3117 41.2608 51.0832 41.6641 50.9823C44.064 50.3836 46.4402 49.6841 48.7952 48.9323C50.9113 48.2551 53.0274 47.5294 55.1048 46.7403C56.0732 46.3669 57.0391 45.9934 57.9876 45.5764C58.4333 45.381 60.3402 44.7537 60.4074 44.1699C60.4186 44.079 60.258 44.0454 59.9917 44.0454C58.9224 44.0454 56.133 44.6367 55.8268 44.7089" fill="#989898"/>
</g>
<defs>
<clipPath id="clip0_1456_535">
<rect width="101.82" height="79.2573" fill="white" transform="translate(0.589844 0.614014)"/>
</clipPath>
</defs>
</svg>
