<svg width="101" height="49" viewBox="0 0 101 49" fill="none" xmlns="http://www.w3.org/2000/svg">
<path d="M31.387 15.6933H37.7336V17.767H34.7145V32.3373H31.387V15.6933ZM41.4962 26.089L42.0665 17.767H42.2575L42.8278 26.089H41.4962ZM37.8113 32.3373H41.0693L41.3774 27.917H42.9464L43.256 32.3373H46.5125L44.7772 15.6933H39.5466L37.8113 32.3373ZM51.278 26.5119V29.6496C51.278 30.0726 51.6054 30.1953 51.7964 30.1953C52.1101 30.1953 52.3284 29.9362 52.3284 29.6496V25.7754C52.3284 25.2568 52.2329 24.6839 50.9914 24.6839H49.6408V22.8559H51.046C51.9874 22.8559 52.3284 22.6376 52.3284 21.6143V18.3127C52.3284 18.0262 52.1101 17.767 51.7962 17.767C51.6054 17.767 51.278 17.8761 51.278 18.3127V21.0275H47.949V18.6675C47.949 17.5078 48.0855 15.6933 50.4182 15.6933H53.1741C55.507 15.6933 55.6571 17.5078 55.6571 18.6675V21.3276C55.6571 23.1421 54.3883 23.6333 53.3924 23.5923V23.7561C55.6297 23.7015 55.6571 25.4203 55.6571 26.0071V29.3632C55.6571 30.5364 55.507 32.3373 53.1741 32.3373H50.4182C48.0855 32.3373 47.949 30.5363 47.949 29.3631V26.5119H51.278ZM57.84 15.6933H65.5481V32.3373H62.2193V17.767H61.1688V32.3373H57.84V15.6933ZM71.0597 24.8475V17.7671H71.4963C71.8509 17.7671 72.1101 18.067 72.1101 18.5992V24.0153C72.1101 24.5475 71.851 24.8474 71.4962 24.8474L71.0597 24.8475ZM67.7309 32.3373H71.0597V26.6756H72.9695C75.2888 26.6756 75.4389 24.8747 75.4389 23.7014V18.6675C75.4389 17.5078 75.2888 15.6933 72.9696 15.6933H67.7309V32.3373ZM82.001 29.6496C82.001 29.9362 81.7827 30.1953 81.4689 30.1953C81.2778 30.1953 80.9506 30.0726 80.9506 29.6496V18.3127C80.9506 17.8761 81.278 17.767 81.4689 17.767C81.7827 17.767 82.001 18.0262 82.001 18.3127V29.6496ZM77.6217 29.3632C77.6217 30.5364 77.7717 32.3373 80.0911 32.3373H82.8605C85.1797 32.3373 85.3298 30.5363 85.3298 29.3631V18.6675C85.3298 17.5078 85.1798 15.6933 82.8605 15.6933H80.0911C77.7719 15.6933 77.6217 17.5078 77.6217 18.6675V29.3632ZM96.162 15.6933H100.5V32.3373H97.1716V21.9007H97.0487L95.3298 32.3373H92.6694L90.9642 21.9007H90.8414V32.3373H87.5126V15.6933H91.8373L94.0064 27.3986L96.162 15.6933ZM27.0732 9.5542C26.0542 5.09306 23.5002 1.46419 23.1482 0.877441C22.5916 1.70957 20.5548 4.91575 19.5194 8.46273C18.3884 12.4327 18.2219 15.9525 18.6123 19.404C18.9997 22.8693 20.4634 26.4301 20.4634 26.4301C21.2411 28.2854 22.4061 30.2908 23.1647 31.2731C24.2765 29.8271 26.8318 25.5159 27.6285 19.8952C28.0719 16.7574 28.091 14.0153 27.0732 9.5542ZM23.1482 30.1545C22.6476 29.2131 21.8699 27.4258 21.7963 24.6427C21.7771 21.9689 22.8508 19.6632 23.1647 19.1858C23.4443 19.6634 24.3692 21.6687 24.4798 24.4109C24.5548 27.0849 23.6653 29.1993 23.1482 30.1545ZM26.7773 17.1257C26.739 18.8311 26.5357 20.6319 26.2765 21.7097C26.3693 19.8543 26.147 17.2486 25.7212 15.2022C25.2956 13.1694 24.0909 9.75885 23.1293 8.18986C22.2411 9.69063 21.1469 12.6373 20.5739 15.1885C19.9982 17.7396 19.9819 20.8366 19.9819 21.7643C19.829 20.9865 19.447 18.1899 19.5548 15.3932C19.6449 13.0877 20.1851 10.7002 20.4812 9.60874C21.6107 5.9662 22.889 3.63331 23.1291 3.26488C23.3694 3.63331 24.9791 6.51194 25.814 9.52685C26.6449 12.5419 26.8127 15.4339 26.7773 17.1257Z" fill="#989898"/>
<path d="M24.8765 32.31H17.1289V37.5079C17.1358 37.5079 17.1412 37.4942 17.148 37.4942C18.9734 35.6662 21.9339 35.6662 23.7606 37.4942C25.586 39.3087 25.586 42.2691 23.7606 44.0973C23.7524 44.1108 23.7442 44.1108 23.7361 44.1245C23.7265 44.1245 23.717 44.1381 23.7087 44.1518C21.8875 45.9526 19.5082 46.853 17.1289 46.853C14.7388 46.853 12.3486 45.9526 10.526 44.1245C7.31169 40.9184 6.93105 35.9389 9.38127 32.31C9.71765 31.8108 10.101 31.3448 10.526 30.9185C12.3486 29.0905 14.7388 28.19 17.1289 28.19V15.6934C7.94475 15.6934 0.5 23.1285 0.5 32.31C0.5 41.4915 7.94475 48.9403 17.1289 48.9403C21.9174 48.9403 26.2313 46.9075 29.2653 43.6743V32.31H24.8765ZM100.5 37.2H31.3868V48.9403H100.5V37.2ZM94.5237 45.396H95.4007V43.6239H94.5237V45.396ZM94.5237 42.2948H95.8505L96.739 42.7379L96.958 43.1809L97.1774 44.067V44.5099C97.1543 47.6839 95.1122 46.522 92.9662 46.7252V39.4151H94.5237V42.2948ZM82.998 39.4151V40.7442H81.8903V46.7252H80.1251V40.7442H79.0176V39.4151H82.998ZM66.8341 44.7315H67.0533L67.4917 44.5099V41.4087H66.8341V44.7315ZM65.0574 41.4089H64.3882V44.5099L64.838 44.7315H65.0574V41.4089ZM66.8341 39.4151V40.0797H67.9418L68.5994 40.5226L69.0493 40.9657L69.2685 41.8518V44.2885L69.0494 45.1746L68.5994 45.6176L67.9418 46.0605H66.8341V46.7251H65.0574V46.0605H63.9498L63.2807 45.6176L62.8423 45.1746L62.6231 44.2885V41.8518L62.8421 40.9657L63.2807 40.5226L63.9498 40.0797H65.0574V39.4151H66.8341ZM52.431 39.4151V40.7442H51.1019V42.2948H52.431V43.6239H51.1019V45.396H52.6525V46.7251H49.3297V39.4151H52.431ZM36.4817 42.2948H37.3678V39.4151H38.9184V46.7252H37.3678V43.6239H36.4817V46.7252H34.7096V39.4151H36.4817V42.2948Z" fill="#989898"/>
</svg>
