<svg width="79" height="34" viewBox="0 0 79 34" fill="none" xmlns="http://www.w3.org/2000/svg">
<g clip-path="url(#clip0_1456_4902)">
<path fill-rule="evenodd" clip-rule="evenodd" d="M56.2462 17.3466C56.2462 18.5378 56.3486 19.5253 56.5869 20.3768C56.7926 21.1595 57.1341 21.8407 57.5436 22.3162C57.9876 22.8271 58.4315 23.2012 58.9444 23.4395C59.4552 23.6872 60.0157 23.8155 60.5834 23.8145C61.1986 23.8145 61.7449 23.6787 62.2578 23.4395C62.8122 23.1442 63.3006 22.7389 63.6929 22.2483V22.2148C64.1359 21.7039 64.444 21.0236 64.6832 20.2055C64.9224 19.3215 65.0583 18.2996 65.0583 17.0405C65.0583 15.8828 64.9559 14.8619 64.7167 14.0448C64.4775 13.2277 64.1713 12.5809 63.7264 12.0699C63.2825 11.56 62.8385 11.1514 62.3257 10.9122C61.8267 10.6651 61.277 10.5374 60.7202 10.5391C60.1394 10.5391 59.6275 10.6749 59.1147 10.9122C58.5403 11.2219 58.0394 11.6516 57.646 12.1723C57.1676 12.7177 56.8261 13.4315 56.5869 14.283C56.3571 15.2879 56.2428 16.3158 56.2462 17.3466ZM51.6001 29.8739V7.57686C51.6001 7.10038 51.9761 6.72532 52.4545 6.72532C53.5816 6.72532 55.1526 7.13387 56.2797 7.91748C56.6557 7.61131 57.0318 7.33862 57.4413 7.13387C57.4413 7.13387 57.4757 7.13387 57.4757 7.10038C57.9933 6.82626 58.5442 6.62043 59.1147 6.48804C59.7543 6.34906 60.4072 6.2804 61.0618 6.28328C61.9506 6.28328 62.8041 6.38566 63.624 6.6239C64.444 6.86214 65.1951 7.20276 65.9127 7.67924C66.6133 8.14601 67.2359 8.72046 67.7574 9.38137C68.2693 10.0282 68.7142 10.7764 69.0548 11.6279C69.3964 12.445 69.67 13.33 69.8403 14.2151C70.0116 15.1336 70.114 16.0531 70.114 17.0405C70.114 18.0958 70.0116 19.0823 69.8403 20.0352C69.6356 20.9891 69.3619 21.8742 68.9869 22.7248C68.9869 22.7248 68.9868 22.7592 68.9524 22.7592C68.5956 23.5711 68.1242 24.3276 67.5526 25.0057C66.9719 25.687 66.3222 26.2658 65.5711 26.7088L65.5367 26.7423C64.8191 27.1844 64.068 27.525 63.2825 27.7632C62.4951 27.9954 61.6778 28.1101 60.857 28.1038C60.2704 28.1069 59.6856 28.0382 59.1156 27.8991C56.5189 27.2867 56.5878 27.1164 56.5878 28.2741V30.8269C56.5878 31.133 56.4165 31.4392 56.1429 31.576L52.8984 33.5164C52.7068 33.6288 52.4794 33.6632 52.2631 33.6124C52.0469 33.5616 51.8584 33.4296 51.7369 33.2437C51.669 33.1078 51.6001 32.971 51.6001 32.8017V29.8739ZM8.6976 23.6098C9.26509 23.7654 9.85054 23.8458 10.439 23.849C11.1231 23.849 11.7038 23.7801 12.1813 23.6442C12.6262 23.5084 12.9678 23.3381 13.2404 23.1333C13.5141 22.8951 13.7188 22.6568 13.8557 22.4186C13.9925 22.1803 14.026 21.9077 14.026 21.6359C14.026 21.3967 13.9925 21.1929 13.8891 21.0571C13.7791 20.8667 13.6273 20.7038 13.4452 20.5806C13.2749 20.4782 12.9668 20.3414 12.4884 20.2065C11.7892 19.9901 11.0831 19.797 10.371 19.6276C9.14155 19.3215 8.11683 19.0488 7.26337 18.7761C6.37451 18.5044 5.69136 18.2317 5.21297 17.9934C4.68743 17.7686 4.20279 17.4582 3.77874 17.0749C3.38063 16.7076 3.02532 16.2964 2.71957 15.8493C2.44689 15.4063 2.24118 14.8953 2.07087 14.3854C1.93353 13.8747 1.86468 13.348 1.86612 12.8191C1.86612 11.7982 2.10532 10.8787 2.54927 10.0282C2.54927 10.0282 2.54927 9.99371 2.58371 9.99371C2.78846 9.58516 3.06211 9.21106 3.36828 8.87044C3.67636 8.52983 4.01794 8.18921 4.42744 7.91748C4.76727 7.69128 5.12102 7.48676 5.48661 7.30513C5.90717 7.11453 6.34112 6.95496 6.78498 6.8277H6.81846C7.29686 6.69183 7.77525 6.58946 8.28809 6.52152C8.80902 6.45354 9.3338 6.41935 9.85914 6.41915C10.6437 6.41915 11.3957 6.48708 12.1133 6.58946C12.8309 6.72628 13.5141 6.89563 14.1628 7.13483C16.0764 7.84955 17.8866 9.58517 18.364 11.6279C18.5353 12.4106 18.2617 12.9894 17.1346 12.9894H14.9818C14.1283 12.9894 13.6844 12.9894 13.3428 12.3771C12.6941 11.1849 11.2934 10.8108 10.0295 10.7084C8.66315 10.5726 7.02417 10.7764 6.85291 11.9341C6.58022 13.7386 9.65439 14.1127 10.6791 14.3854H10.7126C11.8741 14.6916 12.8654 14.9633 13.6844 15.2369C14.5044 15.5087 15.1875 15.7469 15.6649 15.9507C16.1772 16.1731 16.6594 16.4592 17.1001 16.8022C17.5106 17.1419 17.8866 17.517 18.1937 17.9934C18.5009 18.4355 18.7401 18.9464 18.9113 19.5253C19.0472 20.0706 19.1505 20.6485 19.1505 21.2953C19.1505 21.9077 19.0472 22.52 18.8769 23.1333C18.6953 23.7408 18.4185 24.3156 18.0569 24.8364L18.0225 24.8699C17.6515 25.4095 17.2027 25.8912 16.6906 26.2993C16.1418 26.729 15.5457 27.0947 14.9139 27.3891C14.2652 27.6608 13.5476 27.8991 12.7965 28.0359C12.0299 28.1743 11.2523 28.2425 10.4734 28.2397C8.42396 28.2397 6.27309 27.9335 4.56427 26.7423C3.26686 25.8573 2.17325 24.5293 1.83167 23.0319C1.66136 22.2483 1.93405 21.6704 3.06115 21.6704H5.21393C6.06738 21.6704 6.51133 21.6704 6.85291 22.2827C7.22893 22.9295 7.91207 23.3716 8.6976 23.6098ZM30.1833 23.8825V26.2993C30.1833 28.1718 26.7675 28.0024 25.5715 27.8312C23.3853 27.3891 22.2582 25.8908 22.019 23.7457C21.9443 22.9084 21.9101 22.068 21.9166 21.2274V12.0365C21.9166 11.2194 21.8487 10.9811 20.9943 10.9811H20.3456C20.2332 10.9825 20.1217 10.9615 20.0176 10.9192C19.9135 10.877 19.8189 10.8143 19.7393 10.735C19.6597 10.6557 19.5968 10.5613 19.5541 10.4573C19.5115 10.3534 19.4901 10.2419 19.4911 10.1296V7.57686C19.4911 7.10038 19.8672 6.72532 20.3456 6.72532H20.9608C21.8822 6.72532 21.9176 6.31773 21.9176 5.4327V4.00134C21.9176 3.69517 22.0879 3.38899 22.3606 3.25313L25.606 1.31276C25.7975 1.20028 26.0249 1.16576 26.2411 1.21634C26.4573 1.26693 26.6458 1.39874 26.7675 1.58449C26.8355 1.72035 26.9034 1.85717 26.9034 2.02748V5.80584C26.9034 6.55501 27.2115 6.72436 27.9291 6.72436H29.3633C29.8417 6.72436 30.2168 7.09942 30.2168 7.57591V10.1286C30.2168 10.6061 29.8417 10.9802 29.3633 10.9802H27.997C27.2794 10.9802 26.9034 10.9802 26.9034 12.2393V21.4302C26.9034 22.2473 26.9378 22.7238 27.0067 22.8941C27.177 23.2692 27.5875 23.2692 27.9281 23.2692C28.2697 23.2692 28.7146 23.2347 29.2609 23.1324C29.4815 23.1148 29.7003 23.1829 29.872 23.3224C30.0438 23.4618 30.1552 23.663 30.1833 23.8825ZM37.7658 14.5557H43.5047C44.2557 14.5557 44.7686 14.1471 44.6318 13.4315C44.4615 12.4785 43.2655 11.4576 42.4799 11.0835C41.9336 10.8108 41.284 10.6749 40.5664 10.6749C39.9186 10.6749 39.3378 10.7764 38.7906 10.9811C37.8682 11.3552 36.7756 12.2058 36.4684 13.1932C36.1948 14.0782 36.81 14.5901 37.7658 14.5557ZM48.6283 21.0226C49.5162 21.0226 49.7219 21.4647 49.5851 22.077C49.0043 24.5962 46.0669 27.0141 43.7104 27.7278C42.7191 28.034 41.9336 28.1708 40.7041 28.1708C39.201 28.1708 37.8003 27.9316 36.5708 27.4561C35.3455 26.9862 34.2378 26.2541 33.3254 25.311C32.403 24.358 31.7199 23.2003 31.2759 21.8732C30.832 20.5452 30.5928 19.0813 30.5928 17.4146C30.5928 15.7115 30.832 14.1806 31.2759 12.8182C31.6947 11.4961 32.4071 10.2858 33.3598 9.27804C34.2822 8.29063 35.3404 7.54146 36.5364 7.06498C37.7974 6.56584 39.1422 6.31189 40.4984 6.31677C41.8992 6.31677 43.1966 6.55501 44.3591 7.03149C45.5399 7.52523 46.6 8.26841 47.4667 9.2101C48.3891 10.1631 49.0387 11.3543 49.5162 12.6823C50.2682 14.9977 50.6777 18.911 47.1252 18.911H37.6635C36.058 18.911 35.3413 19.1502 36.5019 21.3288C36.7076 21.7029 36.9468 22.0435 37.254 22.3497C37.6979 22.8262 38.2107 23.2012 38.7906 23.4395C38.825 23.4395 38.825 23.473 38.8594 23.473C39.4488 23.6967 40.0737 23.8121 40.7041 23.8136C41.216 23.8136 41.6944 23.7457 42.1393 23.6088C43.1286 23.3027 43.6759 22.7582 44.2902 21.9412C44.7006 21.4302 45.0757 20.9882 46.2038 20.9882C47.3309 21.0217 48.1843 20.9547 48.6283 21.0226ZM77.3894 11.5246V7.61131C73.9057 7.61131 71.0707 4.78591 71.0707 1.31371H67.1077C67.1224 4.02964 68.2126 6.6291 70.1396 8.54302C72.0666 10.4569 74.6734 11.5284 77.3894 11.5246Z" fill="#989898"/>
<path fill-rule="evenodd" clip-rule="evenodd" d="M77.3897 6.72639C76.6774 6.72865 75.9716 6.5903 75.3128 6.31926C74.654 6.04822 74.0552 5.64982 73.5506 5.1469C73.0461 4.64399 72.6458 4.04644 72.3727 3.38852C72.0996 2.73059 71.959 2.02523 71.959 1.31287H77.3897V6.72543V6.72639Z" fill="#989898"/>
</g>
<defs>
<clipPath id="clip0_1456_4902">
<rect width="77.5" height="33.4877" fill="white" transform="translate(0.75 0.164917)"/>
</clipPath>
</defs>
</svg>
