<svg width="187" height="46" viewBox="0 0 187 46" fill="none" xmlns="http://www.w3.org/2000/svg">
<path d="M77.4453 45.3929V2.05103H85.1518V45.3929H77.4453Z" fill="#989898"/>
<path d="M31.9 45.3154C31.9 45.3154 17.0934 31.9754 17.1711 31.9754C24.1157 29.6174 28.9511 24.383 28.9511 17.3088C28.9511 8.02159 21.0217 2.12383 10.2938 2.05127H0.25V45.3931H7.95648V2.3415H10.2213C17.5442 2.41406 23.2865 8.45693 23.2865 17.5264C23.2865 26.7359 17.622 32.4885 10.2938 32.6336L10.1435 32.929L23.8151 45.3154H31.9Z" fill="#989898"/>
<path d="M67.9232 33.0065C67.9232 40.231 62.0306 45.3929 52.2148 45.3929H38.8438V2.05103H51.6084C59.4652 2.05103 65.052 5.36788 65.052 11.8565C65.052 15.5361 62.7095 19.594 55.9877 21.0659C64.9017 22.6155 67.9232 28.5858 67.9232 33.0065ZM61.73 33.0065C61.73 29.3269 60.3722 22.0972 52.6657 21.2162V20.8482C57.8016 20.33 60.595 16.4223 60.595 11.7062C60.595 7.43054 56.8221 2.34644 49.8671 2.34644H46.5502V44.8746H49.7945C59.7658 44.8746 61.73 37.0645 61.73 33.0065Z" fill="#989898"/>
<path d="M125.15 3.75103C123.985 2.90115 122.586 2.4323 121.144 2.40874C120.004 2.40874 118.796 2.70933 118.796 3.97388C118.796 4.56987 119.097 5.24361 120.004 6.35786L124.471 11.131C125.757 12.5458 126.591 14.0384 126.591 15.4533C126.591 18.1378 123.943 19.2573 121.445 19.2573C118.568 19.2573 116.521 18.0653 114.785 16.0493L115.77 15.0076C117.133 16.5001 119.024 17.6144 120.916 17.6144C122.73 17.6144 123.792 16.723 123.792 15.3807C123.792 14.339 122.88 13.1418 122.352 12.5458L117.962 7.77788C116.977 6.65844 115.92 5.31616 115.92 3.82876C115.92 2.55903 117.055 0.993896 120.46 0.993896C122.58 0.993896 124.549 1.5899 126.057 2.85963L125.15 3.75103Z" fill="#989898"/>
<path d="M130.068 1.36719H132.639V18.8843H130.068V1.36719Z" fill="#989898"/>
<path d="M137.641 2.70429L136.656 1.36719H139.911L150.504 15.6814V1.36719H152.017V18.8843H149.747L139.154 4.72031V18.8843H137.641V2.70429Z" fill="#989898"/>
<path d="M172.975 15.0801C171.312 17.4641 168.736 19.2573 165.108 19.2573C159.962 19.2573 155.723 15.5258 155.723 10.1619C155.723 4.7979 159.661 0.993896 165.103 0.993896C168.436 0.993896 171.084 2.48648 172.981 4.34702L172.069 5.16587C170.783 3.90132 168.586 2.33618 165.787 2.33618C161.626 2.33618 158.749 5.61675 158.749 10.1619C158.749 14.7847 162.076 17.7647 165.865 17.7647C168.814 17.7647 170.555 16.2773 172.141 14.4116L172.975 15.0801Z" fill="#989898"/>
<path d="M175.93 1.36719H186.751V2.78203H178.428V7.70547H185.466V9.19287H178.428V17.4694H186.751V18.8843H175.93V1.36719Z" fill="#989898"/>
<path d="M115.997 30.6644L115.391 29.6953L119.018 27.6067H120.387V45.1238H117.811V29.6953L115.997 30.6644Z" fill="#989898"/>
<path d="M126.063 45.4913L125.762 44.5222C129.468 43.7033 132.189 41.169 132.572 36.7742C131.665 38.1891 129.774 38.7125 128.711 38.7125C125.757 38.7125 123.793 36.4736 123.793 33.4937C123.793 30.3634 125.835 27.3057 129.546 27.3057C132.645 27.3057 135.521 29.7674 135.521 34.8359C135.449 39.8268 132.266 44.6725 126.063 45.4913ZM129.468 37.2873C131.131 37.2873 132.495 35.7947 132.495 33.1153C132.495 30.6588 131.51 28.4251 129.618 28.4251C127.96 28.4251 126.664 30.1353 126.664 32.965C126.664 35.5719 127.576 37.2873 129.468 37.2873Z" fill="#989898"/>
<path d="M140.289 45.4913L139.989 44.5222C143.694 43.7033 146.415 41.169 146.799 36.7742C145.892 38.1891 144 38.7125 142.938 38.7125C139.984 38.7125 138.02 36.4736 138.02 33.4937C138.02 30.3634 140.061 27.3057 143.772 27.3057C146.871 27.3057 149.748 29.7674 149.748 34.8359C149.675 39.8268 146.493 44.6725 140.289 45.4913ZM143.772 37.2873C145.441 37.2873 146.804 35.7947 146.804 33.1153C146.804 30.6588 145.819 28.4251 143.922 28.4251C142.259 28.4251 140.968 30.1353 140.968 32.965C140.968 35.5719 141.803 37.2873 143.772 37.2873Z" fill="#989898"/>
<path d="M154.51 34.1626L158.599 29.9907H152.09V27.6067H162.911L156.93 33.7221C157.236 33.7221 157.537 33.6444 157.843 33.6444C160.413 33.6444 162.911 35.4324 162.911 38.4901C162.911 41.1747 161.17 43.1129 158.672 44.1546C157.013 44.9009 155.044 45.2741 152.919 45.3466L152.39 44.2272C156.174 43.9318 159.884 42.3615 159.884 38.7129C159.884 36.5518 158.371 35.137 156.402 35.137C155.645 35.137 155.267 35.2095 154.966 35.2821L154.51 34.1626Z" fill="#989898"/>
</svg>
