<svg width="187" height="41" viewBox="0 0 187 41" fill="none" xmlns="http://www.w3.org/2000/svg">
<mask id="mask0_1456_490" style="mask-type:luminance" maskUnits="userSpaceOnUse" x="0" y="0" width="187" height="41">
<path d="M186.865 0.242676H0.134766V40.2427H186.865V0.242676Z" fill="white"/>
</mask>
<g mask="url(#mask0_1456_490)">
<path d="M150.555 8.54279C150.465 7.94279 150.345 7.86279 150.165 7.86279H131.365C128.455 7.86279 126.195 8.21279 126.105 8.66279L120.695 38.8028C120.695 38.9728 120.865 39.1028 121.075 39.1728C122.704 39.6052 124.392 39.7773 126.075 39.6828H144.365C144.535 39.6828 144.685 39.5228 144.815 39.3228C145.362 38.2698 145.721 37.1293 145.875 35.9528C146.116 34.8704 146.19 33.7576 146.095 32.6528C145.995 32.0228 145.875 31.9328 145.675 31.9328H132.505L133.395 26.9928H144.185C144.345 26.9928 144.495 26.8428 144.615 26.6528C145.127 25.6469 145.465 24.5616 145.615 23.4428C145.85 22.4171 145.917 21.3601 145.815 20.3128C145.725 19.7128 145.615 19.6328 145.425 19.6328H134.715L135.515 15.2228H148.905C148.999 15.2069 149.088 15.1673 149.164 15.1079C149.239 15.0485 149.298 14.9711 149.335 14.8828C149.857 13.881 150.196 12.7939 150.335 11.6728C150.569 10.647 150.64 9.59069 150.545 8.54279" fill="#989898"/>
<path d="M105.325 38.7428C105.405 38.9428 105.435 39.0128 105.755 39.1528C107.613 39.5809 109.52 39.7624 111.425 39.6928C113.502 39.7952 115.584 39.6203 117.615 39.1728C117.905 39.0628 118.105 38.9728 118.005 38.6928L110.175 21.5928L121.995 8.88277C122.185 8.66277 122.115 8.55277 121.935 8.44277C121.285 8.05277 119.045 7.83277 116.475 7.83277C114.769 7.75347 113.061 7.92527 111.405 8.34277C111.212 8.42127 111.041 8.54467 110.905 8.70277L100.405 19.9528L102.405 8.72277C102.405 8.47277 102.135 8.38277 101.885 8.29277C100.227 7.91407 98.5236 7.76267 96.8246 7.84277C95.3036 7.80297 93.7846 7.96097 92.3046 8.31277C92.0746 8.40277 91.8746 8.49277 91.8246 8.74277L86.4746 38.7428C86.4746 38.9928 86.5346 39.0628 86.7146 39.1428C88.3034 39.5941 89.9546 39.7866 91.6046 39.7128C93.3156 39.8001 95.0286 39.6213 96.6846 39.1828C96.8446 39.1028 96.9746 39.0528 97.0246 38.8728L99.5646 24.6628L105.325 38.7428Z" fill="#989898"/>
<path d="M186.335 8.29259C184.677 7.91389 182.974 7.76249 181.275 7.84259C179.754 7.80369 178.235 7.96169 176.755 8.31259C176.617 8.35819 176.491 8.43329 176.385 8.53259L163.385 24.5926L163.685 23.3726L166.335 8.74259C166.335 8.49259 166.065 8.40259 165.815 8.31259C164.157 7.93389 162.454 7.78249 160.755 7.86259C159.238 7.82259 157.721 7.98059 156.245 8.33259C156.015 8.42259 155.805 8.51259 155.765 8.76259L150.375 38.7626C150.375 39.0126 150.435 39.0826 150.615 39.1626C152.204 39.6131 153.855 39.8056 155.505 39.7326C157.216 39.8207 158.929 39.6419 160.585 39.2026C160.686 39.1652 160.778 39.1073 160.855 39.0326L173.785 23.1326L173.485 24.3226L170.895 38.7426C170.845 38.9926 170.955 39.0626 171.135 39.1426C172.724 39.594 174.375 39.7864 176.025 39.7126C177.736 39.7999 179.449 39.6211 181.105 39.1826C181.265 39.1026 181.395 39.0526 181.445 38.8726L186.855 8.74259C186.855 8.49259 186.585 8.40259 186.335 8.31259" fill="#989898"/>
<path d="M174.276 0.242666C173.317 0.221046 172.361 0.338976 171.436 0.592676C171.166 0.682676 170.886 0.832676 170.836 1.02268L168.836 10.4527C168.836 10.5327 168.836 10.5827 168.966 10.6527C169.396 10.8341 169.86 10.9195 170.326 10.9027C170.788 10.9193 171.25 10.8653 171.696 10.7427C171.865 10.7019 172.011 10.5981 172.106 10.4527L177.666 1.29268C177.708 1.21348 177.719 1.12138 177.697 1.03438C177.675 0.947476 177.621 0.871976 177.546 0.822676C176.524 0.363676 175.404 0.164436 174.286 0.242666" fill="#989898"/>
<path d="M89.2662 0.242666C88.3076 0.221046 87.3509 0.338976 86.4262 0.592676C86.1662 0.682676 85.8862 0.832676 85.8262 1.02268L83.8262 10.4527C83.8262 10.5327 83.8262 10.5827 83.9562 10.6527C84.3863 10.8329 84.8502 10.9182 85.3162 10.9027C85.775 10.9183 86.2335 10.8643 86.6762 10.7427C86.7604 10.724 86.84 10.6887 86.9103 10.6389C86.9807 10.5891 87.0405 10.5258 87.0862 10.4527L92.6462 1.29268C92.6882 1.21348 92.6992 1.12138 92.6772 1.03438C92.6552 0.947476 92.6012 0.871976 92.5262 0.822676C91.5042 0.363676 90.3842 0.164436 89.2662 0.242666Z" fill="#989898"/>
<path d="M83.5254 19.3827C83.9654 32.3827 73.4054 40.2427 63.1254 40.2427C54.5554 40.2427 49.1954 35.8327 48.9354 27.9427C48.5254 15.8527 57.4754 6.81274 69.2854 6.81274C78.9754 6.81274 83.2854 12.5427 83.5254 19.3827ZM59.6254 26.8327C59.7254 29.8327 60.9354 32.4827 64.6254 32.4827C69.7854 32.4827 73.1354 26.6127 72.9254 20.3527C72.8154 17.1727 71.3854 14.5727 67.7954 14.5727C61.7954 14.5727 59.5154 21.9827 59.6754 26.8327" fill="#989898"/>
<path d="M15.7753 39.9927C14.7753 40.1028 13.7753 40.1928 12.7753 40.2427C12.7753 40.2427 0.0153203 34.6727 0.17532 22.7027C0.29532 13.4127 4.61532 10.7027 4.61532 10.7027C6.73952 11.657 8.66862 12.9963 10.3053 14.6527C11.625 16.1217 12.7171 17.7801 13.5453 19.5727C14.6834 14.9636 17.2658 10.8393 20.9153 7.80272C30.0153 -0.437229 39.8553 0.252722 39.8553 0.252722C41.2469 3.83102 41.9721 7.63352 41.9953 11.4727C42.1553 26.6027 32.9953 37.5227 18.6953 39.6127C17.6953 39.7527 16.7753 39.8827 15.8053 39.9927" fill="#989898"/>
<path d="M14.7851 39.3628C18.4121 38.8955 21.8938 37.644 24.9884 35.6954C28.083 33.7468 30.7162 31.1477 32.705 28.0788C34.6939 25.0099 35.9906 21.5448 36.5053 17.9242C37.0199 14.3036 36.74 10.6143 35.6851 7.11279C31.174 7.31889 26.8018 8.73729 23.0288 11.2186C19.2558 13.6999 16.2214 17.1524 14.2451 21.2128C13.5044 22.9316 12.8927 24.7032 12.4151 26.5128C12.4043 26.5808 12.3876 26.6478 12.3651 26.7128C12.2151 27.1728 12.1251 27.3228 12.0751 27.2928C11.2618 31.3352 11.4611 35.5161 12.6551 39.4628C13.3663 39.4667 14.0773 39.4333 14.7851 39.3628Z" fill="#D9D9D9"/>
<path d="M14.787 39.3628C18.414 38.8955 21.8957 37.644 24.9903 35.6954C28.0849 33.7468 30.7181 31.1477 32.7069 28.0788C34.6958 25.0099 35.9925 21.5448 36.5072 17.9242C37.0218 14.3036 36.7419 10.6143 35.687 7.11279C31.1759 7.31889 26.8037 8.73729 23.0307 11.2186C19.2577 13.6999 16.2233 17.1524 14.247 21.2128C13.5063 22.9316 12.8946 24.7032 12.417 26.5128C12.4062 26.5808 12.3895 26.6478 12.367 26.7128C12.217 27.1728 12.127 27.3228 12.077 27.2928C11.2637 31.3352 11.463 35.5161 12.657 39.4628C13.3682 39.4667 14.0792 39.4333 14.787 39.3628Z" fill="#D9D9D9"/>
<path d="M12.6655 39.4627C11.4715 35.5159 11.2723 31.3351 12.0855 27.2927C12.0428 26.4987 12.0999 25.7025 12.2555 24.9227C12.4155 23.8527 12.5855 22.9227 12.7855 21.9227C10.9831 19.3036 8.55213 17.1787 5.71553 15.7427C4.44483 17.7161 3.61443 19.9402 3.28093 22.2635C2.94743 24.5868 3.11863 26.9548 3.78303 29.2059C4.44733 31.4571 5.58913 33.5385 7.13063 35.3085C8.67213 37.0785 10.577 38.4954 12.7155 39.4627H12.6655Z" fill="#D9D9D9"/>
</g>
</svg>
