<svg width="67" height="67" viewBox="0 0 67 67" fill="none" xmlns="http://www.w3.org/2000/svg">
<path d="M19.7103 55.2984C19.1961 55.2984 18.7754 54.8777 18.7754 54.3635V12.7767C18.7754 12.2626 19.1961 11.8419 19.7103 11.8419C20.2245 11.8419 20.6452 12.2626 20.6452 12.7767V54.3635C20.6452 54.8777 20.2245 55.2984 19.7103 55.2984Z" fill="#595959"/>
<path d="M26.6439 51.8237C26.1297 51.8237 25.709 51.403 25.709 50.8888V16.2358C25.709 15.7216 26.1297 15.3009 26.6439 15.3009C27.1581 15.3009 27.5788 15.7216 27.5788 16.2358V50.8888C27.5788 51.403 27.1581 51.8237 26.6439 51.8237Z" fill="#595959"/>
<path d="M33.5618 44.7342C33.0477 44.7342 32.627 44.3135 32.627 43.7993V23.3409C32.627 22.8267 33.0477 22.406 33.5618 22.406C34.076 22.406 34.4967 22.8267 34.4967 23.3409V43.7993C34.4967 44.3135 34.076 44.7342 33.5618 44.7342Z" fill="#595959"/>
<path d="M40.4964 55.2984C39.9822 55.2984 39.5615 54.8777 39.5615 54.3635V12.7767C39.5615 12.2626 39.9822 11.8419 40.4964 11.8419C41.0106 11.8419 41.4313 12.2626 41.4313 12.7767V54.3635C41.4313 54.8777 41.0106 55.2984 40.4964 55.2984Z" fill="#595959"/>
<path d="M47.43 44.89C46.9158 44.89 46.4951 44.4693 46.4951 43.9551V23.1695C46.4951 22.6553 46.9158 22.2346 47.43 22.2346C47.9442 22.2346 48.3649 22.6553 48.3649 23.1695V43.9551C48.3649 44.4849 47.9442 44.89 47.43 44.89Z" fill="#595959"/>
<path d="M54.3636 39.53C53.8494 39.53 53.4287 39.1093 53.4287 38.5951V28.5295C53.4287 28.0154 53.8494 27.5947 54.3636 27.5947C54.8778 27.5947 55.2985 28.0154 55.2985 28.5295V38.5951C55.2985 39.1093 54.8778 39.53 54.3636 39.53Z" fill="#F27934"/>
<path d="M12.7767 39.2028C12.2625 39.2028 11.8418 38.7821 11.8418 38.2679V28.2023C11.8418 27.6882 12.2625 27.2675 12.7767 27.2675C13.2909 27.2675 13.7116 27.6882 13.7116 28.2023V38.2679C13.7116 38.7821 13.2909 39.2028 12.7767 39.2028Z" fill="#F27934"/>
</svg>
