<svg width="67" height="67" viewBox="0 0 67 67" fill="none" xmlns="http://www.w3.org/2000/svg">
<path d="M33.4998 40.4493C32.5649 40.4493 31.6612 40.0442 31.0224 39.3586C30.3835 38.6574 30.0875 37.7226 30.181 36.7877C30.181 36.7721 30.181 36.7565 30.181 36.7409L32.5805 21.6426C32.6584 21.1907 33.0479 20.8479 33.4998 20.8479C33.9517 20.8479 34.3568 21.1751 34.4191 21.6426L36.8186 36.7409C36.8186 36.7565 36.8186 36.7721 36.8186 36.7877C36.9121 37.7226 36.6005 38.6574 35.9773 39.3586C35.354 40.0442 34.4503 40.4493 33.4998 40.4493ZM32.0352 36.9746C32.004 37.3798 32.1286 37.7849 32.4091 38.0809C32.6896 38.3926 33.0791 38.5639 33.4998 38.5639C33.9205 38.5639 34.31 38.3926 34.5905 38.0809C34.871 37.7693 34.9956 37.3798 34.9645 36.9746L33.4998 27.7349L32.0352 36.9746Z" fill="#F27934"/>
<path d="M57.0275 36.7721C56.9963 31.7081 55.3447 26.6598 52.0882 22.4684C52.1194 22.4372 52.1661 22.4061 52.1973 22.3749L53.5373 21.0349C53.7087 20.8635 53.8177 20.6142 53.8177 20.3805C53.8177 20.1312 53.7242 19.8974 53.5373 19.7261L50.6235 16.8123C50.2652 16.454 49.6731 16.454 49.2991 16.8123L47.9591 18.1523C47.928 18.1835 47.8812 18.2302 47.8501 18.277C44.9052 16.0021 41.5396 14.5374 38.0649 13.8519V11.7328H40.7605C41.2747 11.7328 41.6954 11.3121 41.6954 10.7979V7.47907C41.6954 6.96489 41.2747 6.54419 40.7605 6.54419H26.3789C25.8647 6.54419 25.444 6.96489 25.444 7.47907V10.7979C25.444 11.3121 25.8647 11.7328 26.3789 11.7328H29.0745V13.8207C24.587 14.6621 20.3177 16.8279 16.8587 20.2714C12.3089 24.8212 10.0184 30.7888 9.98726 36.7721C9.98726 36.8188 9.97168 36.8656 9.97168 36.9123C9.97168 36.9591 9.97168 37.0058 9.98726 37.0526C10.0184 43.0358 12.3089 48.9879 16.8587 53.5377C21.3149 58.0095 27.2203 60.4558 33.4996 60.4558C39.7789 60.4558 45.6842 58.0095 50.1405 53.5688C54.6903 49.0191 56.9807 43.0514 57.0119 37.0837C57.0119 37.037 57.0275 36.9902 57.0275 36.9279C57.0431 36.8656 57.0275 36.8188 57.0275 36.7721ZM27.3138 9.86303V8.41396H39.8256V9.86303H27.3138ZM36.1952 11.7328V13.3844H33.4996H30.9287V11.7328H36.1952ZM49.4705 51.5588L47.8345 49.9228C47.4761 49.5644 46.884 49.5644 46.5101 49.9228C46.1517 50.2812 46.1517 50.8733 46.5101 51.2472L48.1461 52.8833C44.3754 56.3579 39.5607 58.3523 34.4345 58.5549V56.2488C34.4345 55.7347 34.0138 55.314 33.4996 55.314C32.9854 55.314 32.5647 55.7347 32.5647 56.2488V58.5705C27.4384 58.3523 22.6394 56.3579 18.8531 52.8988L20.4891 51.2628C20.8475 50.9044 20.8475 50.3123 20.4891 49.9384C20.1307 49.58 19.5387 49.58 19.1647 49.9384L17.5287 51.5744C13.9605 47.6947 12.0752 42.8021 11.857 37.8628H14.1787C14.6928 37.8628 15.1135 37.4421 15.1135 36.9279C15.1135 36.4137 14.6928 35.993 14.1787 35.993H11.8726C12.0907 31.0537 13.9761 26.1767 17.5442 22.2814L19.1803 23.9174C19.3673 24.1044 19.601 24.1979 19.8347 24.1979C20.0684 24.1979 20.3177 24.1044 20.4891 23.9174C20.8475 23.5591 20.8475 22.967 20.4891 22.593L18.8687 20.957C22.7484 17.3888 27.641 15.5035 32.5803 15.2854V17.5914C32.5803 18.1056 33.001 18.5263 33.5152 18.5263C34.0294 18.5263 34.4501 18.1056 34.4501 17.5914V15.2854C39.3894 15.5035 44.2663 17.3888 48.1617 20.957L46.5101 22.593C46.1517 22.9514 46.1517 23.5435 46.5101 23.9174C46.697 24.1044 46.9308 24.1979 47.1645 24.1979C47.3982 24.1979 47.6475 24.1044 47.8189 23.9174L49.4549 22.2814C53.0231 26.1612 54.9084 31.0537 55.1266 35.993H52.8205C52.3063 35.993 51.8856 36.4137 51.8856 36.9279C51.8856 37.4421 52.3063 37.8628 52.8205 37.8628H55.1266C54.924 42.7865 53.0387 47.6791 49.4705 51.5588Z" fill="#595959"/>
</svg>
