<svg width="67" height="67" viewBox="0 0 67 67" fill="none" xmlns="http://www.w3.org/2000/svg">
<path d="M33.4999 52.2678C33.3659 52.2678 33.2335 52.2413 33.1073 52.1868L4.89402 40.1018C4.52785 39.9445 4.29102 39.5845 4.29102 39.1872C4.29102 38.7899 4.52785 38.4284 4.89402 38.2726L7.74853 37.0495C8.25336 36.8329 8.83922 37.0666 9.05581 37.573C9.27239 38.0778 9.03867 38.6637 8.53227 38.8803L7.81397 39.1888L33.4999 50.1892L59.1858 39.1872L58.5345 38.9083C58.0297 38.6917 57.7944 38.1074 58.011 37.601C58.2276 37.0962 58.8119 36.8609 59.3183 37.0775L62.1058 38.271C62.4719 38.4284 62.7088 38.7883 62.7088 39.1857C62.7088 39.583 62.4719 39.9445 62.1058 40.1003L33.8926 52.1852C33.7663 52.2413 33.6339 52.2678 33.4999 52.2678Z" fill="#595959"/>
<path d="M33.4999 46.5806C33.3659 46.5806 33.2335 46.5541 33.1073 46.4995L4.89402 34.4146C4.52785 34.2572 4.29102 33.8973 4.29102 33.5C4.29102 33.1027 4.52785 32.7412 4.89402 32.5854L7.74853 31.3622C8.25336 31.1456 8.83922 31.3794 9.05581 31.8858C9.27239 32.3906 9.03867 32.9765 8.53227 33.193L7.81397 33.5L33.4999 44.502L59.1858 33.5L58.5345 33.2211C58.0297 33.0045 57.7944 32.4202 58.011 31.9138C58.2276 31.409 58.8119 31.1737 59.3183 31.3903L62.1058 32.5838C62.4719 32.7412 62.7088 33.1011 62.7088 33.4984C62.7088 33.8958 62.4719 34.2572 62.1058 34.4131L33.8926 46.498C33.7663 46.5541 33.6339 46.5806 33.4999 46.5806Z" fill="#F27934"/>
<path d="M33.4999 40.8934C33.3659 40.8934 33.2335 40.8669 33.1072 40.8124L4.89402 28.7274C4.52785 28.5701 4.29102 28.2101 4.29102 27.8128C4.29102 27.4155 4.52785 27.054 4.89402 26.8982L33.1072 14.8132C33.3581 14.7057 33.6401 14.7057 33.891 14.8132L62.1042 26.8982C62.4704 27.0555 62.7072 27.4155 62.7072 27.8128C62.7072 28.2101 62.4704 28.5716 62.1042 28.7274L33.891 40.8124C33.7663 40.8669 33.6339 40.8934 33.4999 40.8934ZM7.81397 27.8128L33.4999 38.8148L59.1858 27.8128L33.4999 16.8108L7.81397 27.8128Z" fill="#595959"/>
</svg>
