<svg width="67" height="67" viewBox="0 0 67 67" fill="none" xmlns="http://www.w3.org/2000/svg">
<path d="M27.6886 60.5353C23.3741 60.5353 18.748 58.8244 14.4413 55.5975C9.8588 52.1634 6.41999 47.5388 5.24359 43.229C3.87554 38.2134 5.74687 34.2292 10.3792 32.3002C15.2624 30.2669 18.9007 29.9973 21.5059 31.4744C25.4807 33.7291 26.3361 39.6297 27.2414 45.8779C27.9098 50.49 28.6017 55.2594 30.5041 59.1392C30.6272 59.39 30.6226 59.6861 30.4917 59.9338C30.3608 60.1816 30.1177 60.3514 29.8404 60.3888C29.1345 60.487 28.4147 60.5353 27.6886 60.5353ZM17.6261 32.2784C15.8483 32.2784 13.67 32.8207 11.0523 33.9114C6.20029 35.9323 6.13173 39.8432 6.93105 42.7663C7.99215 46.6554 11.272 51.0353 15.4899 54.1968C19.6751 57.3333 24.3168 58.9616 28.4178 58.7652C26.7849 54.8901 26.1398 50.4417 25.5134 46.1256C24.6705 40.3138 23.8743 34.8244 20.6442 32.9905C19.806 32.5168 18.8025 32.2784 17.6261 32.2784Z" fill="#F27934"/>
<path d="M14.6583 40.8124C14.4137 40.8124 14.1691 40.7095 13.9977 40.5085C13.8045 40.2826 9.289 34.8759 12.7543 25.7826C12.9257 25.3323 13.4305 25.1063 13.8824 25.2777C14.3327 25.4491 14.5586 25.954 14.3872 26.4058C11.3083 34.4832 15.1601 39.1763 15.3252 39.3727C15.6353 39.7404 15.5917 40.2904 15.2255 40.6036C15.0603 40.7438 14.8593 40.8124 14.6583 40.8124Z" fill="#595959"/>
<path d="M49.5742 60.8781C47.7699 60.8781 45.9359 60.2315 44.1659 58.9273C39.909 55.7892 37.8024 52.8085 37.7276 49.8153C37.6139 45.2468 42.2307 41.4746 47.1201 37.4795C50.7288 34.53 54.4605 31.4807 56.8071 27.8518C56.9598 27.6165 57.2153 27.4685 57.4942 27.4544C57.7747 27.4404 58.0442 27.5604 58.2203 27.7785C61.3272 31.6271 62.6859 37.1913 62.044 43.4456C61.4597 49.1437 59.2674 54.471 56.1791 57.6995C54.1598 59.8123 51.8911 60.8781 49.5742 60.8781ZM57.5643 29.8337C55.0838 33.2289 51.6029 36.0741 48.2264 38.8335C43.6782 42.5497 39.3824 46.0602 39.4759 49.7717C39.5366 52.1899 41.4095 54.7234 45.2036 57.5203C46.7851 58.6858 48.2498 59.1423 49.5726 59.1439C51.7867 59.1439 53.6051 57.8647 54.917 56.4935C57.7046 53.5813 59.7691 48.5127 60.3066 43.2696C60.8395 38.0654 59.8439 33.2492 57.5643 29.8337Z" fill="#F27934"/>
<path d="M37.2042 60.2611C36.7881 60.2611 36.4204 59.9635 36.3456 59.5412C36.2615 59.066 36.5762 58.6126 37.0515 58.5269C45.562 57.0061 47.6001 51.2877 47.6827 51.0447C47.8385 50.5897 48.3324 50.3435 48.7889 50.4962C49.2455 50.6489 49.4917 51.1413 49.3405 51.5978C49.247 51.8798 46.9379 58.5362 37.3584 60.247C37.307 60.2579 37.2556 60.2611 37.2042 60.2611Z" fill="#595959"/>
<path d="M41.6717 27.5526C38.3607 27.5526 34.4575 26.0739 30.3986 24.536C26.0405 22.8844 21.5328 21.1782 17.2167 20.9601C16.9362 20.9461 16.6807 20.7981 16.528 20.5643C16.3753 20.3291 16.3442 20.0361 16.4454 19.7744C18.2248 15.1592 22.3648 11.2015 28.1019 8.62899C33.3279 6.28555 39.0385 5.5205 43.3794 6.58159C48.4309 7.81564 51.0065 11.3853 50.4487 16.3714C49.8597 21.627 48.3312 24.9412 45.7774 26.5024C44.5589 27.2472 43.1769 27.5526 41.6717 27.5526ZM18.5552 19.3147C22.7356 19.765 26.9411 21.3574 31.0187 22.9015C36.5112 24.9817 41.6982 26.9465 44.8675 25.0113C46.9304 23.7507 48.1894 20.8604 48.7145 16.1766C49.2988 10.9522 45.913 8.99827 42.9681 8.27841C39.0525 7.32171 33.6302 8.0665 28.8202 10.223C24.046 12.3623 20.3719 15.6328 18.5552 19.3147Z" fill="#F27934"/>
<path d="M54.3297 23.0434C54.0804 23.0434 53.8342 22.9374 53.6613 22.7333C48.0894 16.1237 42.117 17.2175 41.8662 17.2673C41.394 17.3608 40.9344 17.0554 40.8378 16.5833C40.7427 16.1112 41.045 15.6515 41.5156 15.5549C41.8069 15.4942 48.7251 14.1666 54.9966 21.6067C55.3082 21.976 55.2599 22.5261 54.8922 22.8377C54.7286 22.9748 54.5276 23.0434 54.3297 23.0434Z" fill="#595959"/>
</svg>
