<svg width="67" height="67" viewBox="0 0 67 67" fill="none" xmlns="http://www.w3.org/2000/svg">
<path d="M44.32 49.541C44.1923 49.0409 43.6843 48.7386 43.1841 48.8648C42.684 48.9926 42.3817 49.5005 42.5079 50.0007L44.4166 57.514H41.0012V54.926C41.0012 54.4102 40.5821 53.9911 40.0663 53.9911C39.5506 53.9911 39.1314 54.4102 39.1314 54.926V57.514H34.4726V53.6654C34.4726 53.1497 34.0534 52.7306 33.5377 52.7306C33.022 52.7306 32.6028 53.1497 32.6028 53.6654V57.514H27.944V54.926C27.944 54.4102 27.5248 53.9911 27.0091 53.9911C26.4933 53.9911 26.0742 54.4102 26.0742 54.926V57.514H22.6588L24.5675 50.0007C24.6953 49.5005 24.3914 48.991 23.8913 48.8648C23.3911 48.737 22.8816 49.0409 22.7554 49.541L20.5506 58.2183C20.4789 58.4972 20.5413 58.7948 20.7189 59.0223C20.8965 59.2498 21.1676 59.3838 21.4574 59.3838H45.6211C45.9093 59.3838 46.182 59.2514 46.3596 59.0223C46.5373 58.7948 46.598 58.4972 46.5279 58.2183L44.32 49.541Z" fill="#F27934"/>
<path d="M22.8859 27.2628C22.8859 26.9216 22.699 26.6068 22.3998 26.4432L19.6793 24.9552L18.1913 22.2347C18.0277 21.9355 17.7129 21.7485 17.3717 21.7485C17.0304 21.7485 16.7157 21.9355 16.5521 22.2347L15.0641 24.9552L12.3436 26.4432C12.0444 26.6068 11.8574 26.9216 11.8574 27.2628C11.8574 27.604 12.0444 27.9188 12.3436 28.0824L15.0641 29.5704L16.5521 32.2909C16.7157 32.5901 17.0304 32.777 17.3717 32.777C17.7129 32.777 18.0277 32.5901 18.1913 32.2909L19.6793 29.5704L22.3998 28.0824C22.699 27.9188 22.8859 27.604 22.8859 27.2628ZM18.5418 28.0621C18.3845 28.1478 18.2567 28.2771 18.1694 28.4345L17.3701 29.8945L16.5708 28.4345C16.4851 28.2771 16.3558 28.1494 16.1984 28.0621L14.7384 27.2628L16.1984 26.4635C16.3558 26.3778 16.4835 26.2484 16.5708 26.0911L17.3701 24.6311L18.1694 26.0911C18.2551 26.2484 18.3845 26.3762 18.5418 26.4635L20.0018 27.2628L18.5418 28.0621Z" fill="#F27934"/>
<path d="M54.6544 17.4683L51.242 15.6017L49.3769 12.1893C49.2133 11.8902 48.8986 11.7032 48.5574 11.7032C48.2161 11.7032 47.9014 11.8902 47.7378 12.1893L45.8711 15.6017L42.4588 17.4683C42.1596 17.6319 41.9727 17.9467 41.9727 18.2879C41.9727 18.6291 42.1596 18.9439 42.4588 19.1075L45.8711 20.9726L47.7378 24.3849C47.9014 24.684 48.2161 24.871 48.5574 24.871C48.8986 24.871 49.2133 24.684 49.3769 24.3849L51.242 20.9726L54.6544 19.1075C54.9535 18.9439 55.1405 18.6291 55.1405 18.2879C55.1405 17.9467 54.9551 17.6319 54.6544 17.4683ZM50.1061 19.4643C49.9488 19.55 49.821 19.6793 49.7337 19.8367L48.5574 21.9885L47.381 19.8367C47.2953 19.6793 47.1659 19.5515 47.0086 19.4643L44.8568 18.2879L47.0086 17.1115C47.1659 17.0258 47.2937 16.8965 47.381 16.7391L48.5574 14.5873L49.7337 16.7391C49.8194 16.8965 49.9488 17.0242 50.1061 17.1115L52.2579 18.2879L50.1061 19.4643Z" fill="#F27934"/>
<path d="M45.318 47.743C45.318 45.9542 43.8627 44.4974 42.0724 44.4974C41.0145 44.4974 40.0188 44.0845 39.2709 43.3366L36.6408 40.7064V10.6297C36.6408 8.96712 35.2883 7.61621 33.6273 7.61621H33.4466C31.784 7.61621 30.4331 8.96868 30.4331 10.6297V40.7049L27.803 43.335C27.0551 44.0829 26.0594 44.4958 25.0015 44.4958C23.2127 44.4958 21.7559 45.9511 21.7559 47.7414V49.7701C21.7559 50.2859 22.175 50.705 22.6907 50.705H44.3847C44.6325 50.705 44.8709 50.6068 45.0454 50.4308C45.2214 50.2547 45.3196 50.0179 45.3196 49.7701L45.318 47.743ZM32.3013 10.6297C32.3013 9.99861 32.814 9.48598 33.445 9.48598H33.6258C34.2568 9.48598 34.7694 9.99861 34.7694 10.6297V40.158H32.2998V10.6297H32.3013ZM23.6241 48.8368V47.743C23.6241 46.9842 24.2411 46.3671 24.9999 46.3671C26.558 46.3671 28.0227 45.761 29.1243 44.6594L31.7544 42.0293H35.3195L37.9496 44.6594C39.0512 45.761 40.5159 46.3671 42.074 46.3671C42.8328 46.3671 43.4498 46.9842 43.4498 47.743V48.8368H23.6241Z" fill="#595959"/>
</svg>
