<svg width="67" height="67" viewBox="0 0 67 67" fill="none" xmlns="http://www.w3.org/2000/svg">
<path d="M54.0827 12.2314H49.751V10.5953C49.751 10.0812 49.3303 9.66046 48.8161 9.66046C48.302 9.66046 47.8813 10.0812 47.8813 10.5953V12.2314H32.2687V10.5953C32.2687 10.0812 31.848 9.66046 31.3338 9.66046C30.8196 9.66046 30.3989 10.0812 30.3989 10.5953V12.2314H14.7864V10.5953C14.7864 10.0812 14.3657 9.66046 13.8515 9.66046C13.3373 9.66046 12.9166 10.0812 12.9166 10.5953V12.2314H8.60057C6.85545 12.2314 5.45312 13.6493 5.45312 15.3788V49.9695C5.45312 51.6991 6.85545 53.117 8.60057 53.117H44.6092C45.1234 53.117 45.5441 52.6963 45.5441 52.1821C45.5441 51.6679 45.1234 51.2472 44.6092 51.2472H8.60057C7.8994 51.2472 7.32289 50.6707 7.32289 49.9695V21.2219H55.3448V40.2935C55.3448 40.8077 55.7654 41.2284 56.2796 41.2284C56.7938 41.2284 57.2145 40.8077 57.2145 40.2935V15.3788C57.2301 13.6493 55.8122 12.2314 54.0827 12.2314ZM7.32289 19.3521V15.3788C7.32289 14.6777 7.8994 14.1012 8.60057 14.1012H12.9322V15.8151C12.9322 16.3293 13.3529 16.75 13.8671 16.75C14.3813 16.75 14.802 16.3293 14.802 15.8151V14.1012H30.4145V15.8151C30.4145 16.3293 30.8352 16.75 31.3494 16.75C31.8636 16.75 32.2843 16.3293 32.2843 15.8151V14.1012H47.8968V15.8151C47.8968 16.3293 48.3175 16.75 48.8317 16.75C49.3459 16.75 49.7666 16.3293 49.7666 15.8151V14.1012H54.0982C54.7994 14.1012 55.3603 14.6777 55.3603 15.3788V19.3521H7.32289Z" fill="#595959"/>
<path d="M14.4285 34.0765C12.2783 34.0765 10.5176 32.3158 10.5176 30.1656C10.5176 27.9998 12.2783 26.2546 14.4285 26.2546C16.5787 26.2546 18.3394 28.0153 18.3394 30.1656C18.3394 32.3158 16.5787 34.0765 14.4285 34.0765ZM14.4285 28.1088C13.3066 28.1088 12.3873 29.0281 12.3873 30.15C12.3873 31.2718 13.3066 32.1912 14.4285 32.1912C15.5504 32.1912 16.4697 31.2718 16.4697 30.15C16.4697 29.0281 15.5504 28.1088 14.4285 28.1088Z" fill="#595959"/>
<path d="M25.6941 34.0765C23.5283 34.0765 21.7832 32.3158 21.7832 30.1656C21.7832 27.9998 23.5439 26.2546 25.6941 26.2546C27.8444 26.2546 29.6051 28.0153 29.6051 30.1656C29.6206 32.3158 27.8599 34.0765 25.6941 34.0765ZM25.6941 28.1088C24.5723 28.1088 23.653 29.0281 23.653 30.15C23.653 31.2718 24.5723 32.1912 25.6941 32.1912C26.816 32.1912 27.7353 31.2718 27.7353 30.15C27.7509 29.0281 26.8316 28.1088 25.6941 28.1088Z" fill="#F27934"/>
<path d="M36.9744 34.0765C34.8086 34.0765 33.0635 32.3158 33.0635 30.1656C33.0635 27.9998 34.8242 26.2546 36.9744 26.2546C39.1246 26.2546 40.8853 28.0153 40.8853 30.1656C40.8853 32.3158 39.1402 34.0765 36.9744 34.0765ZM36.9744 28.1088C35.8525 28.1088 34.9332 29.0281 34.9332 30.15C34.9332 31.2718 35.8525 32.1912 36.9744 32.1912C38.0963 32.1912 39.0156 31.2718 39.0156 30.15C39.0156 29.0281 38.0963 28.1088 36.9744 28.1088Z" fill="#595959"/>
<path d="M48.24 34.0765C46.0742 34.0765 44.3291 32.3158 44.3291 30.1656C44.3291 27.9998 46.0898 26.2546 48.24 26.2546C50.3903 26.2546 52.151 28.0153 52.151 30.1656C52.1665 32.3158 50.4058 34.0765 48.24 34.0765ZM48.24 28.1088C47.1182 28.1088 46.1989 29.0281 46.1989 30.15C46.1989 31.2718 47.1182 32.1912 48.24 32.1912C49.3619 32.1912 50.2812 31.2718 50.2812 30.15C50.2968 29.0281 49.3775 28.1088 48.24 28.1088Z" fill="#595959"/>
<path d="M14.4285 46.2145C12.2783 46.2145 10.5176 44.4538 10.5176 42.3036C10.5176 40.1533 12.2783 38.3926 14.4285 38.3926C16.5787 38.3926 18.3394 40.1533 18.3394 42.3036C18.3394 44.4538 16.5787 46.2145 14.4285 46.2145ZM14.4285 40.2624C13.3066 40.2624 12.3873 41.1817 12.3873 42.3036C12.3873 43.4254 13.3066 44.3447 14.4285 44.3447C15.5504 44.3447 16.4697 43.4254 16.4697 42.3036C16.4697 41.1817 15.5504 40.2624 14.4285 40.2624Z" fill="#F27934"/>
<path d="M25.6941 46.2145C23.5283 46.2145 21.7832 44.4538 21.7832 42.3036C21.7832 40.1533 23.5439 38.3926 25.6941 38.3926C27.8444 38.3926 29.6051 40.1533 29.6051 42.3036C29.6051 44.4538 27.8599 46.2145 25.6941 46.2145ZM25.6941 40.2624C24.5723 40.2624 23.653 41.1817 23.653 42.3036C23.653 43.4254 24.5723 44.3447 25.6941 44.3447C26.816 44.3447 27.7353 43.4254 27.7353 42.3036C27.7353 41.1817 26.8316 40.2624 25.6941 40.2624Z" fill="#595959"/>
<path d="M36.9744 46.2145C34.8086 46.2145 33.0635 44.4538 33.0635 42.3036C33.0635 40.1533 34.8242 38.3926 36.9744 38.3926C39.1246 38.3926 40.8853 40.1533 40.8853 42.3036C40.8853 44.4538 39.1402 46.2145 36.9744 46.2145ZM36.9744 40.2624C35.8525 40.2624 34.9332 41.1817 34.9332 42.3036C34.9332 43.4254 35.8525 44.3447 36.9744 44.3447C38.0963 44.3447 39.0156 43.4254 39.0156 42.3036C39.0156 41.1817 38.0963 40.2624 36.9744 40.2624Z" fill="#595959"/>
<path d="M51.9168 57.1837C46.6658 57.1837 42.4121 52.9144 42.4121 47.6791C42.4121 42.4437 46.6814 38.1744 51.9168 38.1744C57.1521 38.1744 61.4214 42.4437 61.4214 47.6791C61.4214 52.9144 57.1677 57.1837 51.9168 57.1837ZM51.9168 40.0286C47.7098 40.0286 44.2819 43.4565 44.2819 47.6635C44.2819 51.8705 47.7098 55.2984 51.9168 55.2984C56.1237 55.2984 59.5516 51.8705 59.5516 47.6635C59.5516 43.4565 56.1237 40.0286 51.9168 40.0286Z" fill="#F27934"/>
<path d="M56.0621 46.7443H52.8523V43.5345C52.8523 43.0203 52.4316 42.5996 51.9174 42.5996C51.4032 42.5996 50.9825 43.0203 50.9825 43.5345V46.7443H47.7728C47.2586 46.7443 46.8379 47.165 46.8379 47.6791C46.8379 48.1933 47.2586 48.614 47.7728 48.614H50.9825V51.8238C50.9825 52.338 51.4032 52.7587 51.9174 52.7587C52.4316 52.7587 52.8523 52.338 52.8523 51.8238V48.614H56.0621C56.5763 48.614 56.997 48.1933 56.997 47.6791C56.997 47.165 56.5763 46.7443 56.0621 46.7443Z" fill="#F27934"/>
</svg>
