<svg width="22" height="21" viewBox="0 0 22 21" fill="none" xmlns="http://www.w3.org/2000/svg">
<path d="M11 16C10.59 16 10.25 15.66 10.25 15.25V10.25C10.25 9.84 10.59 9.5 11 9.5C11.41 9.5 11.75 9.84 11.75 10.25V15.25C11.75 15.66 11.41 16 11 16Z" fill="#F27934"/>
<path d="M11 7.99995C10.74 7.99995 10.48 7.88995 10.29 7.70995C10.2 7.60995 10.13 7.50995 10.08 7.37995C10.03 7.25995 10 7.12995 10 6.99995C10 6.73995 10.11 6.47995 10.29 6.28995C10.67 5.91995 11.33 5.91995 11.7 6.28995C11.89 6.47995 12 6.73995 12 6.99995C12 7.12995 11.97 7.25995 11.92 7.37995C11.87 7.50995 11.8 7.60995 11.7 7.70995C11.61 7.79995 11.5 7.86995 11.38 7.91995C11.26 7.96995 11.13 7.99995 11 7.99995Z" fill="#F27934"/>
<path d="M10.9896 20.9999C8.40957 20.9999 5.96957 20.0299 4.09957 18.2399C2.16957 16.3999 1.06957 13.9099 0.999568 11.2399C0.929568 8.56994 1.91957 6.03994 3.75957 4.09994C5.59957 2.16994 8.08957 1.06994 10.7596 0.99994C13.4096 0.93994 15.9696 1.90994 17.8996 3.75994C19.8296 5.59994 20.9296 8.08994 20.9996 10.7599C21.0596 13.4299 20.0896 15.9699 18.2396 17.8999C16.3996 19.8299 13.9096 20.9299 11.2396 20.9999C11.1596 20.9999 11.0796 20.9999 10.9896 20.9999ZM11.0096 2.49994C10.9396 2.49994 10.8696 2.49994 10.7996 2.49994C8.51957 2.55994 6.40957 3.48994 4.84957 5.13994C3.27957 6.77994 2.44957 8.93994 2.50957 11.2099C2.55957 13.4799 3.49957 15.5899 5.13957 17.1599C6.77957 18.7299 8.94957 19.5599 11.2096 19.4999C13.4796 19.4499 15.5896 18.5099 17.1596 16.8699C18.7296 15.2299 19.5596 13.0699 19.4996 10.7999C19.4496 8.52994 18.5096 6.41994 16.8696 4.84994C15.2696 3.32994 13.1996 2.49994 11.0096 2.49994Z" fill="#F27934"/>
</svg>
