<svg width="29" height="30" viewBox="0 0 29 30" fill="none" xmlns="http://www.w3.org/2000/svg">
<path d="M24.8476 20.6256L26.6227 18.9063C27.0006 18.5402 27.2176 18.039 27.226 17.513C27.2344 16.9869 27.0335 16.479 26.6674 16.1011L21.5214 10.7882C20.6007 9.85383 19.3488 9.31998 18.0371 9.30245C16.7254 9.28492 15.4596 9.78511 14.5143 10.6946L13.722 11.462C13.5813 11.5828 13.448 11.712 13.3227 11.8487L10.8062 9.25064C10.4117 8.8424 9.87492 8.60199 9.30763 8.57942C8.74033 8.55685 8.18617 8.75387 7.76043 9.12948C7.53873 9.34099 7.36153 9.59466 7.23923 9.8756C7.11693 10.1565 7.05199 10.4591 7.04822 10.7655C7.04446 11.0719 7.10196 11.3759 7.21732 11.6598C7.33269 11.9436 7.50361 12.2016 7.72005 12.4185L14.2225 19.1317" stroke="white" stroke-width="1.71017" stroke-linecap="round" stroke-linejoin="round"/>
<path d="M14.4542 19.3592L12.435 19.327C11.8687 19.3192 11.3209 19.5286 10.9042 19.9123C10.4875 20.2959 10.2337 20.8246 10.1949 21.3896C10.1859 21.6956 10.2384 22.0002 10.3491 22.2855C10.4598 22.5708 10.6265 22.8311 10.8394 23.0509C11.0524 23.2708 11.3072 23.4457 11.5888 23.5655C11.8705 23.6852 12.1733 23.7474 12.4793 23.7482L18.803 23.8491" stroke="white" stroke-width="1.71017" stroke-linecap="round" stroke-linejoin="round"/>
<path d="M23.4398 23.1789C23.779 22.8503 23.7876 22.309 23.4591 21.9698C23.1305 21.6306 22.5892 21.6219 22.2499 21.9505C21.9107 22.2791 21.9021 22.8204 22.2307 23.1596C22.5592 23.4988 23.1006 23.5075 23.4398 23.1789Z" fill="white"/>
<path d="M12.7451 6.74166C12.2673 6.24995 11.697 5.8576 11.0669 5.58721C10.4369 5.31681 9.75956 5.17371 9.07398 5.16615C8.3884 5.15858 7.70809 5.2867 7.07222 5.54312C6.43635 5.79954 5.85748 6.17921 5.36894 6.66026C4.40063 7.62317 3.85006 8.9284 3.83619 10.2939C3.82233 11.6594 4.34628 12.9756 5.29484 13.958" stroke="#F27934" stroke-width="1.71017" stroke-linecap="round" stroke-linejoin="round"/>
</svg>
