<svg width="16" height="14" viewBox="0 0 16 14" fill="none" xmlns="http://www.w3.org/2000/svg">
<g clip-path="url(#clip0_1456_3374)">
<path d="M15.7244 6.38217L11.2061 4.16601V1.89073C11.2059 1.6295 11.1021 1.37904 10.9173 1.19431C10.7326 1.00959 10.4821 0.905726 10.2209 0.905518H0.985215C0.723979 0.905726 0.473518 1.00959 0.288796 1.19431C0.104074 1.37904 0.000208572 1.6295 0 1.89073V11.128C0.00041701 11.3891 0.104361 11.6394 0.289061 11.8239C0.47376 12.0085 0.724115 12.1122 0.985215 12.1124H2.4422C2.54961 12.4008 2.74265 12.6495 2.9954 12.8251C3.24814 13.0007 3.54852 13.0948 3.85626 13.0948C4.164 13.0948 4.4644 13.0007 4.71714 12.8251C4.96989 12.6495 5.1629 12.4008 5.27032 12.1124H11.7149C11.8223 12.4008 12.0153 12.6495 12.2681 12.8251C12.5208 13.0007 12.8212 13.0948 13.129 13.0948C13.4367 13.0948 13.7371 13.0007 13.9898 12.8251C14.2426 12.6495 14.4356 12.4008 14.543 12.1124H15.0155C15.2768 12.1122 15.5273 12.0084 15.712 11.8236C15.8967 11.6389 16.0006 11.3885 16.0008 11.1272V6.82556C16.0009 6.73317 15.975 6.64265 15.9261 6.56425C15.8773 6.48586 15.8073 6.42275 15.7244 6.38217ZM10.2201 11.1272H5.29553C5.20085 10.8194 5.00996 10.55 4.75091 10.3587C4.49187 10.1674 4.17831 10.0641 3.85626 10.0641C3.53421 10.0641 3.22065 10.1674 2.96161 10.3587C2.70256 10.55 2.51169 10.8194 2.41701 11.1272H0.986801V1.8915H10.2201V11.1272ZM14.5682 11.1272C14.4736 10.8196 14.2828 10.5504 14.0239 10.3592C13.765 10.168 13.4516 10.0648 13.1297 10.0648C12.8079 10.0648 12.4945 10.168 12.2356 10.3592C11.9767 10.5504 11.7859 10.8196 11.6913 11.1272H11.2069V5.26698L15.014 7.13425V11.1272H14.5682Z" fill="#989898"/>
</g>
<defs>
<clipPath id="clip0_1456_3374">
<rect width="16" height="12.189" fill="white" transform="translate(0 0.905518)"/>
</clipPath>
</defs>
</svg>
