<svg width="98" height="97" viewBox="0 0 98 97" fill="none" xmlns="http://www.w3.org/2000/svg">
<path d="M55.8659 19.7031C65.3992 19.7031 72.3181 26.622 72.3181 36.1552V49.9095C72.3491 52.5893 71.7521 55.2391 70.5751 57.6468C69.6784 59.4851 68.4147 61.1202 66.8618 62.4513L64.6111 64.1109L49.0002 75.4781L33.3817 64.1109L31.1613 62.4968C29.6084 61.1657 28.3446 59.5306 27.448 57.6923C26.2709 55.2846 25.674 52.6348 25.705 49.955V36.178C25.6823 26.6447 32.6011 19.7031 42.1344 19.7031H55.8659ZM55.8659 12.125H42.1344C28.4028 12.125 18.1042 22.4464 18.1042 36.178V49.9095C18.0766 53.762 18.9457 57.568 20.6428 61.0266C22.045 63.8886 24.036 66.422 26.4856 68.4608L28.9257 70.2341L49.0002 84.875L69.0746 70.2341L71.5148 68.4608C73.9643 66.422 75.9554 63.8886 77.3575 61.0266C79.0546 57.568 79.9237 53.762 79.8962 49.9095V36.178C79.8962 22.4464 69.5975 12.125 55.8659 12.125Z" fill="#F27934"/>
<path d="M26.4854 68.4608C27.2544 69.1106 28.07 69.7033 28.9255 70.2341L26.4854 68.4608Z" fill="#F27934"/>
<path d="M71.5144 68.4608L69.0742 70.2341C69.9297 69.7033 70.7453 69.1106 71.5144 68.4608Z" fill="#F27934"/>
<path d="M48.9999 34.2683C50.3774 34.2683 51.7238 34.6768 52.8691 35.442C54.0144 36.2073 54.907 37.2949 55.4341 38.5675C55.9612 39.84 56.0991 41.2403 55.8304 42.5913C55.5617 43.9422 54.8984 45.1831 53.9245 46.1571C52.9505 47.1311 51.7096 47.7944 50.3586 48.0631C49.0077 48.3318 47.6074 48.1939 46.3348 47.6668C45.0623 47.1397 43.9746 46.247 43.2093 45.1018C42.4441 43.9565 42.0357 42.61 42.0357 41.2326C42.0377 39.3862 42.772 37.6159 44.0777 36.3103C45.3833 35.0047 47.1535 34.2703 48.9999 34.2683ZM48.9999 26.6902C46.1237 26.6902 43.3121 27.5431 40.9206 29.141C38.5291 30.739 36.6652 33.0102 35.5645 35.6675C34.4638 38.3247 34.1758 41.2487 34.737 44.0697C35.2981 46.8906 36.6831 49.4819 38.7169 51.5156C40.7507 53.5494 43.3419 54.9345 46.1629 55.4956C48.9838 56.0567 51.9078 55.7687 54.5651 54.6681C57.2224 53.5674 59.4936 51.7034 61.0915 49.3119C62.6895 46.9205 63.5424 44.1088 63.5424 41.2326C63.5424 37.3757 62.0102 33.6768 59.283 30.9496C56.5558 28.2223 52.8568 26.6902 48.9999 26.6902Z" fill="#F27934"/>
</svg>
