<svg width="38" height="23" viewBox="0 0 38 23" fill="none" xmlns="http://www.w3.org/2000/svg">
<g clip-path="url(#clip0_1456_3398)">
<path d="M24.0023 3.20654H13.998V20.1929H24.0023V3.20654Z" fill="#989898"/>
<path d="M14.6331 11.7C14.6331 8.24869 16.3481 5.18757 18.9841 3.20685C17.0468 1.76632 14.6013 0.895996 11.9335 0.895996C5.61331 0.895996 0.5 5.72777 0.5 11.7C0.5 17.6721 5.61331 22.5039 11.9335 22.5039C14.6013 22.5039 17.0468 21.6336 18.9841 20.1931C16.3481 18.2424 14.6331 15.1512 14.6331 11.7Z" fill="#D9D9D9"/>
<path d="M37.4996 11.7C37.4996 17.6721 32.3864 22.5039 26.0662 22.5039C23.3984 22.5039 20.953 21.6336 19.0156 20.1931C21.6834 18.2123 23.3667 15.1512 23.3667 11.7C23.3667 8.24869 21.6517 5.18757 19.0156 3.20685C20.953 1.76632 23.3984 0.895996 26.0662 0.895996C32.3864 0.895996 37.4996 5.75778 37.4996 11.7Z" fill="#D9D9D9"/>
</g>
<defs>
<clipPath id="clip0_1456_3398">
<rect width="37" height="23" fill="white" transform="translate(0.5)"/>
</clipPath>
</defs>
</svg>
