<svg width="52" height="21" viewBox="0 0 52 21" fill="none" xmlns="http://www.w3.org/2000/svg">
<g clip-path="url(#clip0_1456_3402)">
<path d="M9.75506 2.65548C9.17069 3.35119 8.23569 3.89992 7.30069 3.82153C7.18382 2.88085 7.64158 1.88137 8.17725 1.26405C8.76163 0.548733 9.78428 0.0391952 10.6121 0C10.7095 0.97988 10.3297 1.94016 9.75506 2.65548ZM10.6024 4.00771C9.24861 3.92932 8.0896 4.78182 7.44678 4.78182C6.79423 4.78182 5.81053 4.04691 4.73918 4.0665C3.34642 4.0861 2.05106 4.8798 1.34007 6.14385C-0.120869 8.67194 0.960225 12.4151 2.37246 14.4728C3.06397 15.4919 3.89184 16.609 4.98267 16.5698C6.01507 16.5306 6.42413 15.8937 7.67079 15.8937C8.9272 15.8937 9.28756 16.5698 10.3784 16.5502C11.5082 16.5306 12.2192 15.5311 12.9107 14.512C13.6996 13.3558 14.021 12.2289 14.0405 12.1701C14.021 12.1505 11.8588 11.3176 11.8393 8.80913C11.8199 6.71218 13.5438 5.7127 13.6217 5.65391C12.6477 4.20369 11.1283 4.04691 10.6024 4.00771ZM18.4233 1.16606V16.4424H20.7803V11.2196H24.043C27.0233 11.2196 29.1173 9.16188 29.1173 6.18305C29.1173 3.20421 27.0623 1.16606 24.1209 1.16606H18.4233ZM20.7803 3.16501H23.4976C25.5429 3.16501 26.7117 4.26248 26.7117 6.19284C26.7117 8.12321 25.5429 9.23047 23.4879 9.23047H20.7803V3.16501ZM33.4222 16.56C34.9027 16.56 36.2759 15.8055 36.8993 14.61H36.948V16.4424H39.1296V8.83852C39.1296 6.63379 37.3765 5.21296 34.6786 5.21296C32.1756 5.21296 30.3251 6.65339 30.2569 8.63275H32.3801C32.5554 7.69206 33.4222 7.07474 34.6105 7.07474C36.0519 7.07474 36.8603 7.75085 36.8603 8.9953V9.838L33.919 10.0144C31.1821 10.181 29.7017 11.3078 29.7017 13.2676C29.7017 15.2469 31.2308 16.56 33.4222 16.56ZM34.0553 14.7472C32.7989 14.7472 32.0003 14.1397 32.0003 13.2088C32.0003 12.2485 32.7697 11.69 34.2404 11.6018L36.8603 11.4352V12.2975C36.8603 13.7281 35.6526 14.7472 34.0553 14.7472ZM42.0418 20.5971C44.3403 20.5971 45.4214 19.7152 46.3661 17.0401L50.5055 5.35995H48.1095L45.3337 14.3846H45.285L42.5093 5.35995H40.0452L44.0384 16.4816L43.8241 17.1577C43.4637 18.3042 42.8794 18.7451 41.8372 18.7451C41.6522 18.7451 41.2918 18.7255 41.1457 18.7059V20.5383C41.2821 20.5775 41.8665 20.5971 42.0418 20.5971Z" fill="#D9D9D9"/>
</g>
<defs>
<clipPath id="clip0_1456_3402">
<rect width="51" height="21" fill="white" transform="translate(0.5)"/>
</clipPath>
</defs>
</svg>
