<svg width="61" height="19" viewBox="0 0 61 19" fill="none" xmlns="http://www.w3.org/2000/svg">
<path fill-rule="evenodd" clip-rule="evenodd" d="M10.7695 2.77776C11.2298 2.77504 12.5975 2.65337 13.1769 4.58456C13.5671 5.88543 14.1888 8.01631 15.0419 10.9772H15.3893C16.3041 7.85562 16.9326 5.72474 17.2746 4.58456C17.86 2.63326 19.3235 2.7778 19.9089 2.7778H24.4253V16.6537H19.822V8.4764H19.5134L16.9473 16.6537H13.4839L10.9178 8.47034H10.6091V16.6537H6.00586V2.7778L10.7695 2.77776ZM31.0355 2.7778V10.9612H31.4027L34.5242 4.23205C35.1301 2.89293 36.4215 2.7778 36.4215 2.7778H40.8761V16.6537H36.1767V8.47034H35.8094L32.7492 15.1995C32.1433 16.5325 30.7907 16.6537 30.7907 16.6537H26.3361V2.7778H31.0355ZM57.1193 9.37174C56.4638 11.2064 54.4052 12.5203 52.1261 12.5203H47.1978V16.6537H42.729V9.37174H57.1193Z" fill="#D9D9D9"/>
<path fill-rule="evenodd" clip-rule="evenodd" d="M52.3411 2.77783H42.4941C42.7285 5.86709 45.4221 8.51169 48.2106 8.51169H57.4293C57.9613 5.94415 56.1299 2.77783 52.3411 2.77783Z" fill="#989898"/>
</svg>
