<svg width="45" height="19" viewBox="0 0 45 19" fill="none" xmlns="http://www.w3.org/2000/svg">
<g clip-path="url(#clip0_1456_3405)">
<path d="M21.0095 9.14203V14.2264H19.4082V1.67028H23.6552C24.1622 1.65961 24.6662 1.75017 25.1382 1.93674C25.6102 2.12331 26.0409 2.40218 26.4053 2.75728C26.7735 3.09081 27.0665 3.49985 27.2646 3.95692C27.4627 4.41398 27.5615 4.90847 27.5541 5.40715C27.5647 5.9085 27.4675 6.40622 27.2692 6.8662C27.0709 7.32617 26.7762 7.73752 26.4053 8.07206C25.6627 8.78537 24.746 9.14169 23.6552 9.14102H21.0095V9.14203ZM21.0095 3.21612V7.59919H23.695C23.9894 7.60798 24.2824 7.55478 24.5552 7.44299C24.8281 7.3312 25.0747 7.16329 25.2794 6.94999C25.4831 6.75056 25.645 6.51203 25.7555 6.24849C25.866 5.98495 25.923 5.70176 25.923 5.41567C25.923 5.12958 25.866 4.84639 25.7555 4.58285C25.645 4.31931 25.4831 4.08077 25.2794 3.88135C25.0773 3.66355 24.8315 3.49152 24.5583 3.37667C24.2852 3.26181 23.9909 3.20674 23.695 3.21512H21.0095V3.21612Z" fill="#D9D9D9"/>
<path d="M31.2448 5.35498C32.4284 5.35498 33.3627 5.67357 34.0477 6.31074C34.7326 6.94791 35.0748 7.82152 35.0741 8.93156V14.2263H33.5424V13.0341H33.4728C32.8097 14.0159 31.9278 14.5068 30.8271 14.5068C29.8875 14.5068 29.1014 14.2263 28.4689 13.6653C28.1653 13.4078 27.9226 13.0853 27.7584 12.7213C27.5943 12.3574 27.5128 11.9611 27.52 11.5614C27.52 10.6724 27.8535 9.96547 28.5206 9.4405C29.1876 8.91553 30.0781 8.65238 31.1921 8.65105C32.143 8.65105 32.9261 8.82637 33.5414 9.17701V8.80834C33.5432 8.53585 33.4848 8.26638 33.3704 8.01945C33.256 7.77252 33.0885 7.55434 32.88 7.38071C32.4565 6.99588 31.9046 6.7859 31.3343 6.79263C30.4399 6.79263 29.732 7.17266 29.2108 7.93272L27.8005 7.03808C28.5763 5.91601 29.7244 5.35498 31.2448 5.35498ZM29.173 11.5965C29.172 11.8017 29.2196 12.0043 29.312 12.1873C29.4044 12.3703 29.5388 12.5284 29.7042 12.6484C30.0583 12.929 30.4979 13.0777 30.9484 13.0692C31.6242 13.068 32.2719 12.7971 32.7497 12.3158C33.2802 11.8129 33.5454 11.2228 33.5454 10.5455C33.0461 10.1448 32.3499 9.94443 31.4567 9.94443C30.8062 9.94443 30.2638 10.1024 29.8295 10.4183C29.3909 10.7389 29.173 11.1286 29.173 11.5965Z" fill="#D9D9D9"/>
<path d="M43.8658 5.63574L38.5188 18.0135H36.8657L38.85 13.6825L35.334 5.63574H37.0746L39.6158 11.8071H39.6506L42.1223 5.63574H43.8658Z" fill="#D9D9D9"/>
<path d="M14.5369 8.04629C14.5375 7.55474 14.4962 7.06404 14.4136 6.57959H7.66016V9.3577H11.5282C11.449 9.80141 11.2815 10.2244 11.0357 10.6011C10.7899 10.9778 10.4709 11.3005 10.098 11.5497V13.3531H12.4064C13.7581 12.0977 14.5369 10.2413 14.5369 8.04629Z" fill="#D9D9D9"/>
<path d="M7.66008 15.0949C9.59262 15.0949 11.2198 14.4558 12.4064 13.3537L10.0979 11.5504C9.45536 11.9892 8.62784 12.2397 7.66008 12.2397C5.79219 12.2397 4.20677 10.9714 3.63984 9.26221H1.26172V11.1206C1.85776 12.3153 2.77172 13.3196 3.90157 14.0214C5.03141 14.7232 6.33268 15.0949 7.66008 15.0949Z" fill="#D9D9D9"/>
<path d="M3.64067 9.26208C3.34096 8.36647 3.34096 7.3966 3.64067 6.501V4.64258H1.26254C0.761134 5.64758 0.5 6.75677 0.5 7.88154C0.5 9.00631 0.761134 10.1155 1.26254 11.1205L3.64067 9.26208Z" fill="#D9D9D9"/>
<path d="M7.66008 3.5237C8.68134 3.50689 9.66815 3.89556 10.4072 4.60569L12.4511 2.5469C11.1551 1.32072 9.43808 0.647524 7.66008 0.668442C6.33268 0.668503 5.03142 1.04018 3.90157 1.74198C2.77172 2.44378 1.85776 3.44808 1.26172 4.64275L3.63984 6.50117C4.20677 4.79203 5.79219 3.5237 7.66008 3.5237Z" fill="#D9D9D9"/>
</g>
<defs>
<clipPath id="clip0_1456_3405">
<rect width="44" height="18" fill="white" transform="translate(0.5 0.5)"/>
</clipPath>
</defs>
</svg>
