<svg width="46" height="17" viewBox="0 0 46 17" fill="none" xmlns="http://www.w3.org/2000/svg">
<g clip-path="url(#clip0_1456_3391)">
<path d="M19.7606 15.3697H16.1602L18.4122 1.72754H22.0124L19.7606 15.3697Z" fill="#D9D9D9"/>
<path d="M32.8121 2.06127C32.102 1.78524 30.9756 1.48047 29.5828 1.48047C26.0272 1.48047 23.5234 3.33803 23.5081 5.99377C23.4785 7.95318 25.3007 9.04148 26.6636 9.69481C28.0565 10.3624 28.53 10.7982 28.53 11.3932C28.5159 12.3072 27.4044 12.7284 26.3678 12.7284C24.9304 12.7284 24.1601 12.5112 22.9897 12.0028L22.5156 11.7848L22.0117 14.8472C22.8562 15.2241 24.412 15.5586 26.0272 15.5732C29.8051 15.5732 32.2646 13.7444 32.2937 10.9143C32.3081 9.3613 31.3459 8.17134 29.2715 7.19897C28.0122 6.57477 27.241 6.15388 27.241 5.51521C27.2558 4.9346 27.8933 4.33991 29.3148 4.33991C30.4853 4.31078 31.3453 4.58643 31.9968 4.86227L32.3225 5.00713L32.8121 2.06127Z" fill="#D9D9D9"/>
<path d="M37.5978 10.5368C37.8943 9.75304 39.0352 6.7198 39.0352 6.7198C39.0203 6.74892 39.3312 5.92161 39.5089 5.41372L39.7606 6.58921C39.7606 6.58921 40.4424 9.85469 40.5904 10.5368C40.0277 10.5368 38.3089 10.5368 37.5978 10.5368ZM42.0421 1.72754H39.2571C38.3983 1.72754 37.7458 1.97406 37.3753 2.85943L32.0273 15.3695H35.8051C35.8051 15.3695 36.4271 13.6857 36.5608 13.3231C36.9752 13.3231 40.6503 13.3231 41.1835 13.3231C41.2868 13.8021 41.6131 15.3695 41.6131 15.3695H44.9468L42.0421 1.72754Z" fill="#D9D9D9"/>
<path d="M13.1529 1.72754L9.62687 11.0302L9.24156 9.1435C8.58967 6.96651 6.5452 4.60126 4.26367 3.42519L7.4934 15.3552H11.3008L16.9601 1.72754H13.1529Z" fill="#D9D9D9"/>
<path d="M6.35206 1.72754H0.559263L0.5 2.00318C5.01874 3.13527 8.01142 5.86413 9.24098 9.14407L7.98169 2.87429C7.77437 2.00299 7.13724 1.75628 6.35206 1.72754Z" fill="#989898"/>
</g>
<defs>
<clipPath id="clip0_1456_3391">
<rect width="45" height="16" fill="white" transform="translate(0.5 0.5)"/>
</clipPath>
</defs>
</svg>
