<svg width="16" height="14" viewBox="0 0 16 14" fill="none" xmlns="http://www.w3.org/2000/svg">
<g clip-path="url(#clip0_1456_3381)">
<path d="M14.9991 0.5H3.65438C3.38898 0.500244 3.13453 0.615652 2.94687 0.820898C2.7592 1.02614 2.65365 1.30449 2.65343 1.59475V3.54876H1.0001C0.73485 3.54925 0.480612 3.66478 0.293128 3.87C0.105645 4.07522 0.000223089 4.35341 0 4.64351V12.4052C0.000223089 12.6953 0.105645 12.9735 0.293128 13.1787C0.480612 13.384 0.73485 13.4995 1.0001 13.5H12.3456C12.6109 13.4995 12.8651 13.384 13.0526 13.1787C13.2401 12.9735 13.3455 12.6953 13.3457 12.4052V10.4512H14.9991C15.2643 10.4507 15.5185 10.3352 15.706 10.13C15.8935 9.92477 15.9989 9.64658 15.9992 9.35648V1.59374C15.9987 1.30379 15.8932 1.02592 15.7057 0.820898C15.5183 0.615878 15.2642 0.500488 14.9991 0.5ZM3.14969 4.64351H12.3447V6.34648H1.0018V4.64351H3.14969ZM1.0001 4.09523V4.64351V4.09523ZM1.0001 12.4025V8.96234H12.3431V12.4072L1.0001 12.4025ZM13.3449 9.35648V4.64903C13.3447 4.35893 13.2392 4.08074 13.0517 3.87552C12.8643 3.6703 12.61 3.55477 12.3447 3.55428H3.65186V1.60207H14.9957V9.36301L13.3449 9.35648Z" fill="#989898"/>
</g>
<defs>
<clipPath id="clip0_1456_3381">
<rect width="16" height="13" fill="white" transform="translate(0 0.5)"/>
</clipPath>
</defs>
</svg>
