<svg width="25" height="25" viewBox="0 0 25 25" fill="none" xmlns="http://www.w3.org/2000/svg">
<g clip-path="url(#clip0_1456_18)">
<path d="M18.9791 21.875C18.8437 21.875 18.7082 21.8646 18.5832 21.8437C10.6041 20.7396 4.26033 14.3958 3.15616 6.41667C3.04158 5.58333 3.29158 4.75 3.84366 4.11458C4.38533 3.48958 5.177 3.125 6.01033 3.125H9.44783C10.3437 3.125 11.0937 3.76042 11.2499 4.63542L11.6562 6.91667C11.8541 8.01042 11.3853 9.125 10.4895 9.77083L10.1457 10.0104C11.4062 11.9271 13.0624 13.5729 14.9999 14.8333L15.2187 14.5312C15.8541 13.625 16.9791 13.1667 18.0728 13.3542L20.3541 13.7604C21.2291 13.9167 21.8645 14.6771 21.8645 15.5625V19C21.8645 19.8333 21.4999 20.625 20.8749 21.1771C20.3541 21.625 19.677 21.875 18.9791 21.875ZM6.01033 4.6875C5.62491 4.6875 5.27075 4.84375 5.01033 5.14583C4.76033 5.4375 4.64575 5.82292 4.69783 6.20833C5.70825 13.4896 11.5103 19.2917 18.7916 20.3021C19.177 20.3542 19.5624 20.2396 19.8541 19.9896C20.1457 19.7292 20.3124 19.3854 20.3124 18.9896V15.5521C20.3124 15.4167 20.2187 15.3125 20.0937 15.2917L17.8124 14.8854C17.302 14.8021 16.802 15.0104 16.5103 15.4271L15.8645 16.3333C15.6249 16.6667 15.177 16.7604 14.8228 16.5521C12.1874 15 9.96866 12.8021 8.427 10.1979C8.21866 9.84375 8.31241 9.39583 8.64575 9.16667L9.57283 8.51042C9.9895 8.21875 10.1978 7.70833 10.1145 7.20833L9.70825 4.90625C9.68741 4.78125 9.57283 4.6875 9.44783 4.6875H6.01033Z" fill="#F27934"/>
</g>
<defs>
<clipPath id="clip0_1456_18">
<rect width="25" height="25" fill="white"/>
</clipPath>
</defs>
</svg>
