<svg width="15" height="16" viewBox="0 0 15 16" fill="none" xmlns="http://www.w3.org/2000/svg">
<path d="M7.5 5.65625C9.82995 5.65625 11.7188 4.81678 11.7188 3.78125C11.7188 2.74572 9.82995 1.90625 7.5 1.90625C5.17005 1.90625 3.28125 2.74572 3.28125 3.78125C3.28125 4.81678 5.17005 5.65625 7.5 5.65625Z" stroke="#989898" stroke-width="1.5" stroke-miterlimit="10" stroke-linecap="round" stroke-linejoin="round"/>
<path d="M11.7188 6.59375C11.7188 7.625 9.84375 8.46875 7.5 8.46875C5.15625 8.46875 3.28125 7.625 3.28125 6.59375" stroke="#989898" stroke-width="1.5" stroke-miterlimit="10" stroke-linecap="round" stroke-linejoin="round"/>
<path d="M11.7188 9.40625C11.7188 10.4375 9.84375 11.2812 7.5 11.2812C5.15625 11.2812 3.28125 10.4375 3.28125 9.40625" stroke="#989898" stroke-width="1.5" stroke-miterlimit="10" stroke-linecap="round" stroke-linejoin="round"/>
<path d="M3.75 4.71875V11.375C3.46875 11.6094 3.28125 11.9375 3.28125 12.2188C3.28125 13.25 5.15625 14.0938 7.5 14.0938C9.84375 14.0938 11.7188 13.25 11.7188 12.2188C11.7188 11.8906 11.5313 11.6094 11.25 11.375V4.71875" stroke="#989898" stroke-width="1.5" stroke-miterlimit="10" stroke-linecap="round" stroke-linejoin="round"/>
</svg>
