<svg width="75" height="75" viewBox="0 0 75 75" fill="none" xmlns="http://www.w3.org/2000/svg">
<path d="M0 4C0 1.79086 1.79086 0 4 0H71C73.2091 0 75 1.79086 75 4V71C75 73.2091 73.2091 75 71 75H4C1.79086 75 0 73.2091 0 71V4Z" fill="#F27934"/>
<path d="M37.501 54.3069C37.381 54.3069 37.2624 54.2832 37.1493 54.2344L11.8837 43.412C11.5558 43.2711 11.3438 42.9488 11.3438 42.593C11.3438 42.2372 11.5558 41.9134 11.8837 41.7739L14.44 40.6786C14.8921 40.4846 15.4168 40.6939 15.6107 41.1474C15.8047 41.5995 15.5954 42.1241 15.1419 42.3181L14.4986 42.5944L37.501 52.4455L60.5033 42.593L59.92 42.3432C59.4679 42.1493 59.2572 41.626 59.4512 41.1725C59.6451 40.7204 60.1684 40.5097 60.6219 40.7037L63.1182 41.7725C63.4461 41.9134 63.6582 42.2358 63.6582 42.5916C63.6582 42.9474 63.4461 43.2711 63.1182 43.4106L37.8526 54.233C37.7396 54.2832 37.621 54.3069 37.501 54.3069Z" fill="white"/>
<path d="M37.501 49.2139C37.381 49.2139 37.2624 49.1902 37.1493 49.1413L11.8837 38.319C11.5558 38.1781 11.3438 37.8558 11.3438 37.5C11.3438 37.1441 11.5558 36.8204 11.8837 36.6809L14.44 35.5855C14.8921 35.3916 15.4168 35.6009 15.6107 36.0544C15.8047 36.5065 15.5954 37.0311 15.1419 37.2251L14.4986 37.5L37.501 47.3525L60.5033 37.5L59.92 37.2502C59.4679 37.0562 59.2572 36.533 59.4512 36.0795C59.6451 35.6274 60.1684 35.4167 60.6219 35.6107L63.1182 36.6795C63.4461 36.8204 63.6582 37.1427 63.6582 37.4986C63.6582 37.8544 63.4461 38.1781 63.1182 38.3176L37.8526 49.14C37.7396 49.1902 37.621 49.2139 37.501 49.2139Z" fill="white"/>
<path d="M37.501 44.1209C37.381 44.1209 37.2624 44.0972 37.1493 44.0484L11.8837 33.226C11.5558 33.0851 11.3438 32.7628 11.3438 32.407C11.3438 32.0511 11.5558 31.7274 11.8837 31.5879L37.1493 20.7656C37.374 20.6693 37.6265 20.6693 37.8512 20.7656L63.1168 31.5879C63.4447 31.7288 63.6568 32.0511 63.6568 32.407C63.6568 32.7628 63.4447 33.0865 63.1168 33.226L37.8512 44.0484C37.7396 44.0972 37.621 44.1209 37.501 44.1209ZM14.4986 32.407L37.501 42.2595L60.5033 32.407L37.501 22.5544L14.4986 32.407Z" fill="white"/>
</svg>
