<svg width="75" height="75" viewBox="0 0 75 75" fill="none" xmlns="http://www.w3.org/2000/svg">
<path d="M0 4C0 1.79086 1.79086 0 4 0H71C73.2091 0 75 1.79086 75 4V71C75 73.2091 73.2091 75 71 75H4C1.79086 75 0 73.2091 0 71V4Z" fill="#F27934"/>
<path d="M54.8489 35.2549C54.5045 35.2549 54.1997 35.0065 54.1397 34.6549C52.8497 27.0613 46.5797 21.3085 38.8937 20.6653C34.4957 20.2981 30.2393 21.4477 27.7865 23.6665C27.4913 23.9329 27.0365 23.9101 26.7689 23.6161C26.5025 23.3209 26.5253 22.8661 26.8193 22.5985C29.5577 20.1205 34.2305 18.8305 39.0137 19.2301C47.3549 19.9273 54.1589 26.1709 55.5593 34.4125C55.6265 34.8049 55.3625 35.1769 54.9701 35.2429C54.9293 35.2513 54.8897 35.2549 54.8489 35.2549Z" fill="white"/>
<path d="M19.7936 39.5592C19.6508 39.5592 19.5068 39.5172 19.3832 39.4308C19.1156 39.2448 19.0064 38.9016 19.1168 38.5944L21.2792 32.6148L18.2036 31.1388C17.9828 31.0332 17.8316 30.822 17.8004 30.5796C17.7704 30.3372 17.8652 30.0948 18.0524 29.9376L26.84 22.5816C27.0896 22.3728 27.4484 22.3572 27.7148 22.5432C27.9812 22.7292 28.0904 23.0724 27.9788 23.3784L25.8608 29.2332L28.9244 30.7056C29.144 30.8112 29.2952 31.0212 29.3264 31.2624C29.3576 31.5048 29.264 31.7448 29.078 31.9032L20.258 39.3888C20.126 39.5016 19.9604 39.5592 19.7936 39.5592ZM19.8344 30.324L22.49 31.5996C22.8236 31.7592 22.9808 32.1456 22.8548 32.4936L21.392 36.54L27.3032 31.5228L24.6524 30.2484C24.3188 30.0888 24.1616 29.7024 24.2876 29.3544L25.718 25.3992L19.8344 30.324Z" fill="white"/>
<path d="M37.5172 55.8324C37.0036 55.8324 36.4888 55.8108 35.9728 55.7676C29.3056 55.2108 23.4724 51.0648 20.7472 44.9472C20.5852 44.5836 20.7484 44.1588 21.112 43.9968C21.4744 43.8348 21.9004 43.998 22.0624 44.3616C24.574 49.998 29.95 53.8188 36.0928 54.3324C39.3988 54.6084 42.6784 53.9196 45.5764 52.3392C47.7052 51.1776 49.5976 49.5372 51.0484 47.5956C51.286 47.2764 51.7372 47.2116 52.0564 47.4492C52.3744 47.6868 52.4404 48.138 52.2028 48.4572C50.6296 50.5632 48.5776 52.3428 46.2676 53.604C43.5724 55.0728 40.5748 55.8324 37.5172 55.8324Z" fill="white"/>
<path d="M47.5463 53.8176C46.9727 53.8176 46.3907 53.7732 45.8039 53.682C45.4967 53.634 45.2543 53.394 45.2039 53.0868C44.6519 49.7208 45.6263 46.4868 47.8799 44.2152C50.1323 41.9448 53.3579 40.9428 56.7287 41.466C57.0359 41.514 57.2783 41.754 57.3287 42.0612C57.8795 45.4272 56.9039 48.6612 54.6515 50.9316C52.7915 52.8072 50.2679 53.8176 47.5463 53.8176ZM46.5527 52.3272C49.2671 52.6032 51.8231 51.7404 53.6303 49.9188C55.4363 48.0972 56.2787 45.5352 55.9799 42.822C53.2643 42.5448 50.7095 43.4076 48.9023 45.2292C47.0951 47.052 46.2527 49.6152 46.5527 52.3272Z" fill="white"/>
<path d="M37.7398 47.2272C34.2298 47.2272 31.375 44.3724 31.375 40.8624C31.375 37.6284 36.5434 29.4312 37.1326 28.5072C37.2646 28.2996 37.4938 28.1748 37.7398 28.1748C37.9858 28.1748 38.215 28.3008 38.347 28.5072C38.9362 29.4312 44.1046 37.6284 44.1046 40.8624C44.1046 44.3724 41.2498 47.2272 37.7398 47.2272ZM37.7398 30.2556C35.9554 33.1728 32.815 38.748 32.815 40.8624C32.815 43.578 35.0242 45.7872 37.7398 45.7872C40.4554 45.7872 42.6646 43.578 42.6646 40.8624C42.6646 38.748 39.5242 33.1728 37.7398 30.2556Z" fill="white"/>
<path d="M37.6721 44.4013C37.2749 44.4013 36.9521 44.0785 36.9521 43.6813C36.9521 43.2841 37.2749 42.9613 37.6721 42.9613C38.8529 42.9613 39.8129 42.0013 39.8129 40.8205C39.8129 40.4233 40.1357 40.1005 40.5329 40.1005C40.9301 40.1005 41.2529 40.4233 41.2529 40.8205C41.2529 42.7945 39.6461 44.4013 37.6721 44.4013Z" fill="white"/>
</svg>
