<svg width="75" height="75" viewBox="0 0 75 75" fill="none" xmlns="http://www.w3.org/2000/svg">
<path d="M0 4C0 1.79086 1.79086 0 4 0H71C73.2091 0 75 1.79086 75 4V71C75 73.2091 73.2091 75 71 75H4C1.79086 75 0 73.2091 0 71V4Z" fill="#F27934"/>
<path d="M31.9142 55.0675H27.3654C26.9007 55.0675 26.5254 54.6908 26.5254 54.2275V42.0378C26.5254 41.5745 26.9007 41.1978 27.3654 41.1978C27.83 41.1978 28.2054 41.5745 28.2054 42.0378V53.3875H31.0742V45.6824C31.0742 45.2192 31.4496 44.8424 31.9142 44.8424C32.3789 44.8424 32.7542 45.2192 32.7542 45.6824V54.2275C32.7542 54.6922 32.3775 55.0675 31.9142 55.0675Z" fill="white"/>
<path d="M27.3654 60.2903C26.9007 60.2903 26.5254 59.9136 26.5254 59.4503V54.2289C26.5254 53.7657 26.9007 53.3889 27.3654 53.3889H47.6342C48.0989 53.3889 48.4742 53.7657 48.4742 54.2289V59.4308C48.4742 59.894 48.0989 60.2708 47.6342 60.2708C47.1696 60.2708 46.7942 59.894 46.7942 59.4308V55.0675H28.2054V59.4489C28.2054 59.9136 27.83 60.2903 27.3654 60.2903Z" fill="white"/>
<path d="M47.6349 55.0675H43.0861C42.6214 55.0675 42.2461 54.6908 42.2461 54.2275V45.7187C42.2461 45.2554 42.6214 44.8787 43.0861 44.8787C43.5507 44.8787 43.9261 45.2554 43.9261 45.7187V53.3875H46.7949V42.0378C46.7949 41.5745 47.1703 41.1978 47.6349 41.1978C48.0996 41.1978 48.4749 41.5745 48.4749 42.0378V54.2275C48.4749 54.6922 48.0996 55.0675 47.6349 55.0675Z" fill="white"/>
<path d="M34.6051 50.4517C34.5967 50.4517 34.5883 50.4517 34.58 50.4517C34.312 50.4433 34.0637 50.3079 33.9116 50.0861L28.3581 41.9763C28.0958 41.594 28.1934 41.0707 28.5772 40.8084C28.9609 40.5461 29.4827 40.6438 29.7451 41.0275L34.6483 48.187L36.8376 45.3642C37.1223 44.9972 37.6497 44.9317 38.0167 45.2149C38.3837 45.4996 38.4507 46.027 38.166 46.394L35.2707 50.1265C35.1088 50.3317 34.8646 50.4517 34.6051 50.4517Z" fill="white"/>
<path d="M40.4215 50.4517C40.162 50.4517 39.9178 50.3317 39.7573 50.1266L36.862 46.394C36.5773 46.027 36.6443 45.4996 37.0113 45.215C37.3782 44.9303 37.9057 44.9973 38.1903 45.3643L40.3796 48.187L45.2773 41.0331C45.5396 40.6508 46.0615 40.5517 46.4452 40.814C46.8275 41.0763 46.9266 41.5982 46.6643 41.9819L41.1164 50.0861C40.9643 50.308 40.7159 50.4433 40.448 50.4517C40.4382 50.4517 40.4299 50.4517 40.4215 50.4517Z" fill="white"/>
<path d="M37.4996 46.7177C37.2848 46.7177 37.0699 46.6353 36.9052 46.4721L32.1792 41.746C32.0215 41.5884 31.9336 41.3749 31.9336 41.1516V38.5102C31.9336 38.047 32.3089 37.6702 32.7736 37.6702C33.2382 37.6702 33.6136 38.047 33.6136 38.5102V40.8042L37.4996 44.6902L41.3871 40.8042V38.5088C41.3871 38.0456 41.7624 37.6688 42.2271 37.6688C42.6917 37.6688 43.0671 38.0456 43.0671 38.5088V41.1516C43.0671 41.3749 42.9792 41.5884 42.8215 41.746L38.0941 46.4721C37.9294 46.6367 37.7145 46.7177 37.4996 46.7177Z" fill="white"/>
<path d="M37.5012 62.5438H37.4579C34.4998 62.5438 31.6156 61.9675 28.8863 60.8331L28.8709 60.8275C27.8607 60.4075 26.8072 60.1326 25.7258 60.0084L21.8858 59.5661C20.4053 59.3959 19.2891 58.1428 19.2891 56.6526V52.7791C19.2891 45.9293 24.8607 40.3577 31.7105 40.3577H32.7751C33.2398 40.3577 33.6151 40.7345 33.6151 41.1977C33.6151 41.661 33.2398 42.0377 32.7751 42.0377H31.7105C25.7872 42.0377 20.9691 46.8559 20.9691 52.7791V56.6526C20.9691 57.2889 21.4463 57.8247 22.0784 57.8973L25.9198 58.3396C27.1574 58.4833 28.363 58.7973 29.5058 59.2717L29.5212 59.2773C32.0579 60.3321 34.7244 60.8638 37.4607 60.8638H37.5026C40.2374 60.8582 42.9039 60.321 45.4267 59.2661C46.5291 58.8056 47.6886 58.5028 48.8732 58.3647L52.9253 57.8959C53.5588 57.8233 54.0346 57.2875 54.0346 56.6512V52.7777C54.0346 46.8545 49.2165 42.0363 43.2932 42.0363H42.23C41.7653 42.0363 41.39 41.6596 41.39 41.1963C41.39 40.7331 41.7653 40.3563 42.23 40.3563H43.2932C50.143 40.3563 55.7146 45.9279 55.7146 52.7777V56.6512C55.7146 58.1414 54.5984 59.3945 53.1179 59.5647L49.0658 60.0335C48.0374 60.1521 47.0314 60.4159 46.0742 60.8149C43.3435 61.9563 40.4607 62.5368 37.5012 62.5438Z" fill="white"/>
<path d="M37.4989 40.8223C32.5399 40.8223 28.5185 36.939 28.3468 31.9828L28.1822 27.2539C28.1655 26.7907 28.5282 26.4014 28.9929 26.3846C29.0027 26.3846 29.0124 26.3846 29.0222 26.3846C29.4729 26.3846 29.8455 26.7418 29.8608 27.1953L30.0255 31.9242C30.1664 35.9721 33.4482 39.1423 37.4989 39.1423C41.5496 39.1423 44.8315 35.9721 44.9724 31.9242L45.1441 26.9958C45.1608 26.5325 45.5459 26.1711 46.0134 26.1851C46.4766 26.2018 46.8394 26.5897 46.8241 27.0544L46.6524 31.9828C46.4794 36.9404 42.458 40.8223 37.4989 40.8223Z" fill="white"/>
<path d="M47.7465 25.2474C47.2818 25.2474 46.9065 24.8707 46.9065 24.4074C46.9065 20.4712 44.5372 17.0065 40.8702 15.5805C40.4376 15.413 40.2241 14.926 40.3916 14.4935C40.5604 14.0609 41.0474 13.8474 41.4786 14.0149C43.5492 14.82 45.3172 16.2125 46.5925 18.0418C47.8972 19.9144 48.5865 22.1163 48.5865 24.4074C48.5865 24.8721 48.2111 25.2474 47.7465 25.2474ZM27.133 25.2474C26.6683 25.2474 26.293 24.8707 26.293 24.4074C26.293 19.747 29.2316 15.5386 33.6046 13.9381C34.0399 13.7791 34.5227 14.0023 34.6818 14.4377C34.8409 14.873 34.6176 15.3558 34.1823 15.5149C30.4679 16.8739 27.973 20.4474 27.973 24.406C27.9716 24.8721 27.5962 25.2474 27.133 25.2474Z" fill="white"/>
<path d="M26.2804 27.9572C25.5883 27.9572 25.0273 27.3963 25.0273 26.7084V24.8372C25.0273 24.1479 25.5869 23.5884 26.2762 23.5884C26.3166 23.5884 30.832 23.5675 37.1459 23.5675C43.6887 23.5675 48.5487 23.5507 48.5976 23.5507C49.2897 23.5507 49.8492 24.1116 49.8492 24.7996V26.6707C49.8492 27.3586 49.2911 27.9182 48.6032 27.9196C48.5557 27.9196 43.8422 27.9363 37.3692 27.9363C30.9869 27.9363 26.3278 27.9572 26.2804 27.9572ZM26.7087 25.2656V26.2744C28.005 26.2689 32.1018 26.2563 37.372 26.2563C42.7218 26.2563 46.8701 26.2451 48.1706 26.2409V25.2321C46.8422 25.2363 42.5725 25.2475 37.1473 25.2475C31.9511 25.2475 27.9757 25.2614 26.7087 25.2656ZM26.2846 25.2684C26.279 25.2684 26.2818 25.2684 26.2846 25.2684V25.2684ZM37.5687 21.113C37.1041 21.113 36.7287 20.7363 36.7287 20.273V14.1363H34.7459V18.5637C34.7459 19.027 34.3706 19.4037 33.9059 19.4037C33.4413 19.4037 33.0659 19.027 33.0659 18.5637V13.2963C33.0659 12.833 33.4413 12.4563 33.9059 12.4563H41.1618C41.6264 12.4563 42.0018 12.833 42.0018 13.2963V18.5289C42.0018 18.9921 41.6264 19.3689 41.1618 19.3689C40.6971 19.3689 40.3218 18.9921 40.3218 18.5289V14.1363H38.4087V20.273C38.4087 20.7377 38.0334 21.113 37.5687 21.113Z" fill="white"/>
</svg>
