<svg width="75" height="75" viewBox="0 0 75 75" fill="none" xmlns="http://www.w3.org/2000/svg">
<path d="M0 4C0 1.79086 1.79086 0 4 0H71C73.2091 0 75 1.79086 75 4V71C75 73.2091 73.2091 75 71 75H4C1.79086 75 0 73.2091 0 71V4Z" fill="#F27934"/>
<path d="M56.0727 45.0041C55.082 45.0041 54.0955 44.6037 53.3783 43.8153L46.1462 35.8688C45.8071 35.4962 45.1373 35.1599 44.4034 35.2492C44.116 35.2841 43.6666 35.4627 43.3653 35.7376C43.0736 36.0027 42.8699 36.3502 42.7778 36.7395C42.6383 37.3339 42.7736 37.9464 43.1504 38.4181C44.3559 39.932 44.1927 42.1269 42.7778 43.412C42.062 44.0636 41.1299 44.3985 40.1559 44.3525C39.182 44.3064 38.2862 43.8864 37.6332 43.1706L31.5899 36.3181C31.2843 35.9706 31.3178 35.4418 31.6639 35.1362C32.0113 34.8306 32.5401 34.8641 32.8457 35.2102L38.8806 42.053C39.2239 42.4297 39.708 42.6557 40.2355 42.6795C40.7629 42.7032 41.2666 42.5246 41.6518 42.173C42.4039 41.4892 42.4876 40.2725 41.8415 39.459C41.1439 38.5827 40.8927 37.4511 41.1494 36.353C41.3197 35.6316 41.6964 34.9897 42.2392 34.4957C42.7666 34.0157 43.5187 33.6669 44.2025 33.5832C45.6187 33.4116 46.7755 34.0674 47.3853 34.7385L54.6173 42.685C55.3485 43.4874 56.5946 43.546 57.3969 42.8148C58.1992 42.0836 58.2578 40.8362 57.528 40.0339L40.8397 21.526C40.5299 21.1827 40.5578 20.6539 40.9011 20.3441C41.2443 20.0343 41.7746 20.0623 42.0829 20.4055L58.7671 38.9148C60.115 40.3967 60.0062 42.706 58.5215 44.0567C57.8266 44.6916 56.9476 45.0041 56.0727 45.0041Z" fill="white"/>
<path d="M30.3814 37.3353C30.1749 37.3353 29.9683 37.2893 29.7772 37.1972C29.4158 37.0228 29.1465 36.7018 29.039 36.3153L26.1186 25.8042C25.9762 25.2921 26.1423 24.7339 26.5428 24.3823L38.9823 13.4958C39.6437 12.9167 40.5479 12.7939 41.3404 13.1749C42.133 13.5558 42.6004 14.34 42.56 15.2177L41.8093 31.7316C41.7856 32.2632 41.4535 32.7418 40.9637 32.9498L30.9256 37.2237C30.7525 37.2991 30.5669 37.3353 30.3814 37.3353ZM27.779 25.5265L30.5656 35.5591L40.146 31.4804L40.8897 15.1437C40.9023 14.8549 40.7028 14.7265 40.6163 14.6846C40.5297 14.6428 40.3037 14.566 40.0874 14.7572L27.779 25.5265Z" fill="white"/>
<path d="M28.1943 41.3191C28.0729 41.3191 27.9487 41.2926 27.8315 41.2368C27.4143 41.0358 27.2399 40.5363 27.4408 40.1191L32.8729 28.8363C33.0739 28.4191 33.5734 28.2447 33.9906 28.4456C34.4078 28.6465 34.5822 29.1461 34.3813 29.5633L28.9492 40.8461C28.8055 41.1447 28.5069 41.3191 28.1943 41.3191Z" fill="white"/>
<path d="M30.1108 46.9479C29.6796 46.9479 29.2512 46.8516 28.8522 46.6591L22.961 43.8223C22.2605 43.4846 21.7331 42.893 21.475 42.1563C21.2168 41.4195 21.2601 40.627 21.5978 39.9265L21.6871 39.7409C22.3847 38.2912 24.1331 37.6786 25.5829 38.3763L31.474 41.213C32.1745 41.5507 32.7019 42.1423 32.9601 42.8791C33.2182 43.6158 33.175 44.4084 32.8373 45.1088L32.748 45.2944C32.4103 45.9949 31.8187 46.5223 31.0819 46.7805C30.7638 46.8921 30.4359 46.9479 30.1108 46.9479ZM29.5778 45.1493C29.875 45.293 30.2126 45.3112 30.528 45.2009C30.8433 45.0907 31.0959 44.866 31.2396 44.5688L31.3289 44.3833C31.4726 44.086 31.4908 43.7484 31.3792 43.433C31.2689 43.1177 31.0443 42.8651 30.7471 42.7214L24.8559 39.8846C24.2378 39.5874 23.4926 39.8484 23.194 40.4665L23.1047 40.6521C22.961 40.9493 22.9429 41.287 23.0545 41.6023C23.1647 41.9177 23.3894 42.1702 23.6866 42.314L29.5778 45.1493Z" fill="white"/>
<path d="M20.1557 62.04C19.4469 62.04 18.7297 61.8852 18.0502 61.5586C16.8767 60.9935 15.9948 60.0056 15.565 58.7777C15.1353 57.5484 15.2092 56.227 15.7744 55.0535L21.9585 42.2093C22.1595 41.7921 22.659 41.6177 23.0762 41.8186C23.4934 42.0196 23.6678 42.5191 23.4669 42.9363L17.2813 55.7791C16.5167 57.3684 17.1864 59.2842 18.7757 60.0489C20.365 60.8135 22.2809 60.1438 23.0455 58.5545L29.2297 45.7103C29.4306 45.2931 29.9302 45.1186 30.3474 45.3196C30.7646 45.5205 30.939 46.02 30.7381 46.4372L24.5539 59.2814C23.7153 61.0228 21.9697 62.04 20.1557 62.04Z" fill="white"/>
</svg>
