<svg width="75" height="75" viewBox="0 0 75 75" fill="none" xmlns="http://www.w3.org/2000/svg">
<path d="M0 4C0 1.79086 1.79086 0 4 0H71C73.2091 0 75 1.79086 75 4V71C75 73.2091 73.2091 75 71 75H4C1.79086 75 0 73.2091 0 71V4Z" fill="#F27934"/>
<path d="M58.1907 27.1298C56.0489 27.1298 54.26 28.6674 53.8679 30.6963H48.634C48.2419 28.6674 46.453 27.1298 44.3112 27.1298C43.8089 27.1298 43.3261 27.2163 42.8754 27.3712L40.3456 22.9884C41.2875 22.1805 41.8861 20.9819 41.8861 19.6465C41.8861 17.2186 39.9103 15.2428 37.4823 15.2428C35.3489 15.2428 33.5656 16.7679 33.1637 18.7856H27.267C26.8051 18.7856 26.4298 19.1609 26.4298 19.6228C26.4298 20.0847 26.8051 20.46 27.267 20.46H33.1554C33.5377 22.5 35.3321 24.0502 37.4823 24.0502C37.9749 24.0502 38.4479 23.9679 38.8916 23.8172L41.427 28.2098C40.4977 29.0177 39.9089 30.2065 39.9089 31.5321C39.9089 32.8577 40.4977 34.0465 41.427 34.8544L38.8721 39.2805C38.4214 39.1242 37.9386 39.0391 37.4349 39.0391C35.293 39.0391 33.5042 40.5767 33.1121 42.6056H28.0233C27.6312 40.5767 25.8423 39.0391 23.7005 39.0391C23.1926 39.0391 22.7042 39.127 22.2507 39.2861L19.693 34.8558C20.6223 34.0479 21.2112 32.8591 21.2112 31.5335C21.2112 30.2079 20.6223 29.0191 19.693 28.2112L22.6205 23.1419C22.8521 22.7414 22.714 22.2293 22.3135 21.9977C21.913 21.7661 21.4009 21.9028 21.1693 22.3047L18.2433 27.3726C17.7926 27.2163 17.3098 27.1312 16.8061 27.1312C14.3782 27.1312 12.4023 29.107 12.4023 31.5349C12.4023 33.9628 14.3782 35.9372 16.8075 35.9372C17.3112 35.9372 17.794 35.8507 18.2447 35.6958L20.8037 40.1302C19.8814 40.9381 19.2968 42.1228 19.2968 43.4428C19.2968 45.8707 21.2726 47.8465 23.7005 47.8465C25.8423 47.8465 27.6312 46.3088 28.0233 44.28H33.1121C33.5042 46.3088 35.293 47.8465 37.4349 47.8465C37.9372 47.8465 38.4214 47.76 38.8707 47.6051L41.8023 52.6828C41.9572 52.9507 42.2391 53.1014 42.5279 53.1014C42.6703 53.1014 42.814 53.0651 42.9465 52.9884C43.347 52.7568 43.4837 52.2447 43.2535 51.8442L40.3205 46.7651C41.2498 45.9572 41.8386 44.7684 41.8386 43.4428C41.8386 42.1172 41.2498 40.9284 40.3205 40.1205L42.8754 35.6944C43.3261 35.8507 43.8089 35.9358 44.3126 35.9358C46.4544 35.9358 48.2433 34.3981 48.6354 32.3693H53.8693C54.2614 34.3981 56.0502 35.9358 58.1921 35.9358C60.62 35.9358 62.5958 33.96 62.5958 31.5321C62.5958 29.1042 60.62 27.1298 58.1907 27.1298ZM34.753 19.6465C34.753 18.1409 35.9768 16.9172 37.4823 16.9172C38.9879 16.9172 40.2116 18.1409 40.2116 19.6465C40.2116 21.1521 38.9879 22.3758 37.4823 22.3758C35.9768 22.3758 34.753 21.1521 34.753 19.6465ZM14.0782 31.5335C14.0782 30.0279 15.3019 28.8042 16.8075 28.8042C18.313 28.8042 19.5368 30.0279 19.5368 31.5335C19.5368 33.0391 18.313 34.2628 16.8075 34.2628C15.3019 34.2628 14.0782 33.0391 14.0782 31.5335ZM23.7005 46.1721C22.1949 46.1721 20.9712 44.9484 20.9712 43.4428C20.9712 41.9386 22.1949 40.7135 23.7005 40.7135C25.2061 40.7135 26.4298 41.9372 26.4298 43.4428C26.4298 44.9484 25.2047 46.1721 23.7005 46.1721ZM34.7056 43.4442C34.7056 43.4428 34.7056 43.4428 34.7056 43.4442C34.7056 41.9386 35.9307 40.7135 37.4349 40.7135C38.9405 40.7135 40.1642 41.9372 40.1642 43.4428C40.1642 44.9484 38.9405 46.1721 37.4349 46.1721C35.9307 46.1721 34.7056 44.9484 34.7056 43.4442ZM44.3112 34.2628C42.8056 34.2628 41.5819 33.0391 41.5819 31.5335C41.5819 30.0279 42.8056 28.8042 44.3112 28.8042C45.8168 28.8042 47.0405 30.0279 47.0405 31.5335C47.0405 33.0391 45.8168 34.2628 44.3112 34.2628ZM58.1907 34.2628C56.6851 34.2628 55.4614 33.0391 55.4614 31.5335C55.4614 30.0279 56.6851 28.8042 58.1907 28.8042C59.6949 28.8042 60.92 30.0279 60.92 31.5335C60.92 33.0391 59.6963 34.2628 58.1907 34.2628Z" fill="white"/>
<path d="M44.3109 50.9498C41.883 50.9498 39.9072 52.9256 39.9072 55.3535C39.9072 57.7815 41.883 59.7573 44.3109 59.7573C46.7389 59.7573 48.7147 57.7815 48.7147 55.3535C48.7147 52.9256 46.7389 50.9498 44.3109 50.9498ZM44.3109 58.0829C42.8054 58.0829 41.5816 56.8591 41.5816 55.3535C41.5816 53.848 42.8054 52.6242 44.3109 52.6242C45.8165 52.6242 47.0403 53.848 47.0403 55.3535C47.0403 56.8591 45.8151 58.0829 44.3109 58.0829Z" fill="white"/>
<path d="M23.7006 15.2428C21.2727 15.2428 19.2969 17.2186 19.2969 19.6465C19.2969 22.0744 21.2727 24.0502 23.7006 24.0502C26.1285 24.0502 28.1043 22.0744 28.1043 19.6465C28.1043 17.2186 26.1285 15.2428 23.7006 15.2428ZM23.7006 22.3758C22.195 22.3758 20.9713 21.1521 20.9713 19.6465C20.9713 18.1409 22.195 16.9172 23.7006 16.9172C25.2062 16.9172 26.4299 18.1409 26.4299 19.6465C26.4299 21.1521 25.2048 22.3758 23.7006 22.3758Z" fill="white"/>
</svg>
