<svg width="75" height="76" viewBox="0 0 75 76" fill="none" xmlns="http://www.w3.org/2000/svg">
<path d="M0 4.5C0 2.29086 1.79086 0.5 4 0.5H71C73.2091 0.5 75 2.29086 75 4.5V71.5C75 73.7091 73.2091 75.5 71 75.5H4C1.79086 75.5 0 73.7091 0 71.5V4.5Z" fill="#F27934"/>
<path d="M37.282 38.1619C36.848 38.0028 36.3666 38.226 36.2075 38.66L28.6113 59.4186C28.4996 59.7242 28.575 60.0674 28.8052 60.2977C29.302 60.7958 30.315 62.0823 30.2703 62.8833C30.2689 62.9181 30.2647 62.9502 30.2578 62.9823L24.368 60.9633L30.7001 42.4819C30.8243 42.1191 30.6847 41.7312 30.3847 41.5233C30.3847 41.5233 30.3834 41.5233 30.3834 41.5219C30.382 41.5205 30.3806 41.5205 30.3792 41.5191C30.3582 41.5051 30.3373 41.4912 30.3164 41.48C30.3094 41.4758 30.301 41.4716 30.2927 41.4674C30.2773 41.4591 30.262 41.4507 30.2452 41.4437C30.2313 41.4367 30.2159 41.4312 30.202 41.4256C30.1936 41.4228 30.1866 41.4186 30.1796 41.4158C30.1768 41.4144 30.174 41.4144 30.1713 41.413C30.1517 41.406 30.1322 41.4019 30.1127 41.3963C30.1057 41.3949 30.0987 41.3921 30.0917 41.3907C30.0708 41.3865 30.0499 41.3823 30.0275 41.3795C30.022 41.3781 30.0164 41.3781 30.0094 41.3767C29.9871 41.3739 29.9647 41.3726 29.941 41.3712C29.9368 41.3712 29.9327 41.3698 29.9271 41.3698C29.902 41.3698 29.8754 41.3698 29.8503 41.3712C29.8489 41.3712 29.8489 41.3712 29.8475 41.3712C29.6034 41.3879 29.3675 41.5107 29.2168 41.7284L24.6903 48.2419C24.2731 48.8419 23.4834 49.0665 22.8122 48.7749L22.2275 48.5209C21.8313 48.3493 21.5341 48.0298 21.3903 47.6223C21.2466 47.2149 21.2759 46.7809 21.4754 46.3972L27.0568 35.6684C27.2703 35.2581 27.1113 34.753 26.701 34.5395C26.2908 34.326 25.7857 34.4851 25.5722 34.8953L19.9908 45.6242C19.5806 46.4126 19.5164 47.3446 19.8122 48.1819C20.1094 49.0191 20.7457 49.7028 21.5606 50.0558L22.1452 50.3098C22.5568 50.4884 22.9908 50.5749 23.4192 50.5749C24.4475 50.5749 25.4508 50.0809 26.0647 49.1963L27.1699 47.6056L22.5094 61.2074C22.3601 61.6442 22.5931 62.1214 23.0299 62.2707L30.2871 64.7586C30.375 64.7893 30.4671 64.8033 30.5578 64.8033C30.7461 64.8033 30.9303 64.7405 31.081 64.6191C31.6057 64.1991 31.9015 63.6284 31.9378 62.9698C32.0117 61.6246 30.9499 60.1972 30.354 59.5093L37.7759 39.2293C37.9392 38.8009 37.7159 38.3209 37.282 38.1619Z" fill="white"/>
<path d="M39.783 21.8307C39.5988 21.8307 39.4118 21.8014 39.2276 21.7372L36.5318 20.8134C34.563 20.1381 33.5095 17.9879 34.1849 16.019L35.0011 13.6386C35.3276 12.6883 36.0058 11.9195 36.9142 11.4758C37.8225 11.0321 38.8453 10.9665 39.7955 11.2916L40.5435 11.5483C42.5123 12.2237 43.5658 14.3739 42.8904 16.3428L41.4072 20.6711C41.1644 21.3828 40.496 21.8307 39.783 21.8307ZM37.076 19.2297L39.7718 20.1535C39.7914 20.1604 39.8179 20.1479 39.8249 20.1283L41.3081 15.8C41.6835 14.7046 41.0974 13.5074 40.0021 13.1321L39.2542 12.8753C38.7267 12.6939 38.1574 12.7316 37.6509 12.9786C37.1444 13.2255 36.7662 13.6525 36.5862 14.1814L35.77 16.5632C35.3946 17.6572 35.9807 18.8544 37.076 19.2297Z" fill="white"/>
<path d="M58.1228 27.5042C57.9526 27.2112 57.6219 27.0507 57.2856 27.0967L49.0461 28.227L41.9898 24.7665C41.9479 24.7456 41.9047 24.7302 41.8614 24.7177L36.654 22.933C36.6512 22.9316 36.647 22.9302 36.6442 22.9288C36.2214 22.7837 35.7902 22.626 35.334 22.46C34.1326 22.0205 32.8907 21.567 31.6754 21.3032C28.3991 20.5902 26.5279 22.5786 24.7461 24.86C24.7405 24.867 24.7363 24.8726 24.7321 24.8795L16.4619 36.1121C16.2107 36.4539 16.254 36.9284 16.5623 37.2186C16.6209 37.273 17.934 38.487 19.7075 38.487C19.8065 38.487 19.907 38.4828 20.0102 38.4758C21.2423 38.3795 22.3475 37.7112 23.2935 36.4916C23.2963 36.4874 23.2991 36.4846 23.3019 36.4805L26.4651 32.2553L25.5205 35.0195C25.3712 35.4563 25.6042 35.9321 26.0409 36.0828L36.7209 39.7442C36.8089 39.7749 36.9009 39.7888 36.993 39.7888C37.12 39.7888 37.2456 39.7595 37.3614 39.7037C37.5609 39.606 37.713 39.433 37.7856 39.2237L40.7033 30.7121L48.2521 34.0805C48.3596 34.1279 48.4768 34.153 48.5926 34.153C48.6302 34.153 48.6679 34.1502 48.7056 34.1446L56.2419 33.1177C56.3382 33.1051 56.4316 33.0744 56.5182 33.0298C57.5926 32.4646 58.2791 31.6805 58.5609 30.6981C59.0256 29.0809 58.1591 27.5684 58.1228 27.5042ZM56.9507 30.2419C56.8056 30.7372 56.4498 31.1419 55.8637 31.4753L48.7168 32.4493L40.5498 28.806C40.5372 28.8005 40.5247 28.7963 40.5121 28.7921C40.5009 28.7879 40.4912 28.7823 40.48 28.7795C40.4786 28.7795 40.4772 28.7781 40.4758 28.7781C40.4591 28.7726 40.4409 28.7684 40.4242 28.7628C40.4144 28.76 40.4047 28.7572 40.3935 28.7544C40.3768 28.7502 40.36 28.7474 40.3433 28.7446C40.3321 28.7432 40.3223 28.7405 40.3112 28.7391C40.2958 28.7377 40.2805 28.7363 40.2665 28.7349C40.254 28.7335 40.2414 28.7321 40.2289 28.7321C40.2163 28.7321 40.2037 28.7321 40.1912 28.7335C40.1758 28.7335 40.1619 28.7335 40.1465 28.7349C40.1354 28.7363 40.1256 28.7377 40.1144 28.7391C40.0977 28.7405 40.0823 28.7419 40.067 28.7446C40.0572 28.746 40.0461 28.7488 40.0363 28.7516C40.0209 28.7544 40.0042 28.7586 39.9889 28.7628C39.9777 28.7656 39.9665 28.7698 39.9554 28.7739C39.9414 28.7781 39.9261 28.7823 39.9121 28.7879C39.8982 28.7935 39.8856 28.7991 39.873 28.8046C39.8619 28.8102 39.8507 28.8144 39.8396 28.82C39.8242 28.827 39.8102 28.8353 39.7949 28.8437C39.7865 28.8479 39.7782 28.8535 39.7698 28.8577C39.7544 28.8674 39.7405 28.8772 39.7251 28.8884C39.7182 28.8939 39.7098 28.8981 39.7028 28.9037C39.6889 28.9149 39.6763 28.926 39.6623 28.9372C39.6554 28.9442 39.647 28.9498 39.64 28.9553C39.6289 28.9665 39.6177 28.9777 39.6065 28.9888C39.5982 28.9972 39.5898 29.0056 39.5828 29.0139C39.5744 29.0237 39.5661 29.0349 39.5577 29.046C39.5493 29.0572 39.5395 29.067 39.5312 29.0795C39.5242 29.0893 39.5186 29.0991 39.5116 29.1088C39.5033 29.1228 39.4935 29.1353 39.4851 29.1493C39.4795 29.1591 39.474 29.1702 39.4684 29.18C39.4614 29.1939 39.453 29.2093 39.4461 29.2232C39.4447 29.2246 39.4447 29.226 39.4433 29.2274C39.4377 29.24 39.4335 29.2525 39.4279 29.2651C39.4237 29.2763 39.4195 29.286 39.4154 29.2972L39.4126 29.307V29.3084L36.474 37.8828L27.3777 34.7642L29.7679 27.7749C29.7721 27.7637 29.7749 27.7512 29.7777 27.74C29.7819 27.726 29.7861 27.7135 29.7889 27.6995C29.793 27.6842 29.7958 27.6688 29.7986 27.6535C29.8 27.6423 29.8028 27.6312 29.8042 27.62C29.807 27.6019 29.8084 27.5837 29.8098 27.5656C29.8098 27.5572 29.8112 27.5488 29.8112 27.5405C29.8126 27.5209 29.8112 27.5014 29.8112 27.4832C29.8112 27.4749 29.8112 27.4679 29.8112 27.4595C29.8098 27.4414 29.8084 27.4219 29.8056 27.4037C29.8042 27.3953 29.8042 27.387 29.8028 27.3786C29.8 27.3619 29.7972 27.3451 29.793 27.3298C29.7902 27.32 29.7889 27.3088 29.7861 27.2991C29.7819 27.2851 29.7777 27.2712 29.7735 27.2586C29.7693 27.246 29.7651 27.2335 29.7609 27.2209C29.7568 27.2098 29.7526 27.2 29.7484 27.1888C29.7428 27.1735 29.7358 27.1595 29.7289 27.1456C29.7247 27.1372 29.7205 27.1288 29.7149 27.1205C29.7065 27.1051 29.6982 27.0898 29.6898 27.0744C29.6856 27.0674 29.68 27.0591 29.6758 27.0521C29.6661 27.0367 29.6563 27.0214 29.6451 27.0074C29.6396 26.9991 29.6326 26.9921 29.627 26.9837C29.6158 26.9712 29.6061 26.9572 29.5949 26.9446C29.5865 26.9349 29.5768 26.9265 29.567 26.9167C29.5572 26.907 29.5475 26.8972 29.5377 26.8874C29.5251 26.8763 29.5126 26.8665 29.5 26.8553C29.4916 26.8498 29.4847 26.8428 29.4777 26.8358C29.4763 26.8344 29.4749 26.8344 29.4735 26.833C29.4623 26.8246 29.4498 26.8163 29.4372 26.8093C29.4247 26.8009 29.4135 26.7926 29.4009 26.7856C29.3968 26.7828 29.3912 26.7814 29.387 26.7786C29.3158 26.7381 29.2405 26.7088 29.1637 26.6907C29.1623 26.6907 29.1595 26.6893 29.1582 26.6893C29.133 26.6837 29.1093 26.6795 29.0842 26.6753C29.0772 26.6739 29.0716 26.6739 29.0647 26.6739C29.0437 26.6712 29.0242 26.6698 29.0033 26.6698C28.9949 26.6698 28.9851 26.6698 28.9768 26.6698C28.9586 26.6698 28.9405 26.6698 28.9223 26.6712C28.9126 26.6712 28.9042 26.6726 28.8944 26.6739C28.8763 26.6753 28.8595 26.6781 28.8414 26.6809C28.833 26.6823 28.8247 26.6837 28.8163 26.6851C28.7982 26.6893 28.7786 26.6921 28.7605 26.6977C28.7535 26.6991 28.7479 26.7019 28.7423 26.7032C28.7228 26.7088 28.7019 26.7158 28.6823 26.7228C28.6782 26.7242 28.674 26.7256 28.6712 26.727C28.6502 26.7353 28.6293 26.7437 28.6084 26.7549C28.6056 26.7563 28.6028 26.7577 28.6014 26.7591C28.5805 26.7702 28.5582 26.7814 28.5386 26.7939C28.5358 26.7953 28.5344 26.7967 28.533 26.7981C28.5121 26.8107 28.4926 26.8246 28.473 26.8386C28.4702 26.8414 28.4675 26.8442 28.4633 26.8456C28.4451 26.8595 28.4284 26.8735 28.4116 26.8888C28.4061 26.8944 28.4005 26.9 28.3949 26.9042C28.3809 26.9181 28.367 26.9307 28.3544 26.9446C28.3461 26.953 28.3391 26.9628 28.3321 26.9725C28.3237 26.9837 28.314 26.9935 28.3056 27.0046L21.9679 35.4688C21.3275 36.2935 20.6284 36.7428 19.8916 36.8042C19.2791 36.8544 18.7168 36.6381 18.3177 36.4163L26.0744 25.88C27.9233 23.5149 29.1819 22.4725 31.3209 22.9386C32.4247 23.1786 33.6121 23.6126 34.7605 24.0326C35.1665 24.1805 35.5851 24.3325 35.9884 24.4735C35.9982 24.4777 36.0079 24.4819 36.0177 24.486L41.3102 26.3L48.5368 29.8442C48.6861 29.9167 48.8535 29.9446 49.0196 29.9223L56.8809 28.8437C57.0009 29.2107 57.0986 29.7339 56.9507 30.2419Z" fill="white"/>
<path d="M47.1514 64.9121C44.2867 64.9121 41.9551 62.5819 41.9551 59.7158C41.9551 56.8498 44.2853 54.5195 47.1514 54.5195C50.0174 54.5195 52.3476 56.8498 52.3476 59.7158C52.3476 62.5819 50.016 64.9121 47.1514 64.9121ZM47.1514 56.1953C45.209 56.1953 43.6295 57.7749 43.6295 59.7172C43.6295 61.6595 45.209 63.2391 47.1514 63.2391C49.0937 63.2391 50.6732 61.6595 50.6732 59.7172C50.6732 57.7749 49.0937 56.1953 47.1514 56.1953Z" fill="white"/>
</svg>
