<svg width="16" height="16" viewBox="0 0 16 16" fill="none" xmlns="http://www.w3.org/2000/svg">
<path fill-rule="evenodd" clip-rule="evenodd" d="M14.1021 2C14.458 2 14.7466 2.28855 14.7466 2.64449V8.37328C14.7466 8.72923 14.458 9.01777 14.1021 9.01777C13.7462 9.01777 13.4576 8.72923 13.4576 8.37328V4.20043L4.20042 13.4576H8.37328C8.72923 13.4576 9.01777 13.7462 9.01777 14.1021C9.01777 14.458 8.72923 14.7466 8.37328 14.7466H2.64449C2.47356 14.7466 2.30963 14.6787 2.18876 14.5578C2.0679 14.4369 2 14.273 2 14.1021V8.37328C2 8.01734 2.28855 7.72879 2.64449 7.72879C3.00043 7.72879 3.28898 8.01734 3.28898 8.37328V12.5462L12.5462 3.28898H8.37328C8.01734 3.28898 7.72879 3.00043 7.72879 2.64449C7.72879 2.28855 8.01734 2 8.37328 2H14.1021Z" fill="#989898"/>
</svg>
