<svg width="166" height="165" viewBox="0 0 166 165" fill="none" xmlns="http://www.w3.org/2000/svg">
<path d="M178.914 140.636C174.572 140.636 170.247 138.881 167.104 135.425L135.403 100.593C133.917 98.9597 130.981 97.4857 127.764 97.8771C126.504 98.03 124.534 98.8129 123.213 100.018C121.935 101.18 121.042 102.703 120.638 104.409C120.027 107.015 120.62 109.7 122.271 111.767C127.556 118.403 126.84 128.024 120.638 133.657C117.501 136.514 113.415 137.982 109.146 137.78C104.877 137.578 100.95 135.737 98.0876 132.599L71.5979 102.562C70.2585 101.039 70.4053 98.7212 71.9221 97.3817C73.4451 96.0423 75.7631 96.189 77.1026 97.7059L103.556 127.7C105.06 129.352 107.182 130.342 109.494 130.446C111.806 130.55 114.014 129.767 115.702 128.226C118.999 125.229 119.366 119.896 116.534 116.33C113.476 112.489 112.375 107.529 113.501 102.715C114.247 99.553 115.898 96.7395 118.277 94.5743C120.589 92.4703 123.886 90.9413 126.883 90.5743C133.091 89.822 138.161 92.6967 140.834 95.6386L172.535 130.471C175.74 133.988 181.202 134.245 184.719 131.04C188.235 127.835 188.492 122.367 185.293 118.85L112.143 37.7235C110.785 36.2189 110.907 33.9009 112.412 32.543C113.916 31.1852 116.241 31.3076 117.592 32.8122L190.725 113.945C196.633 120.44 196.156 130.563 189.648 136.483C186.602 139.266 182.749 140.636 178.914 140.636Z" fill="#D9D9D9"/>
<path d="M66.294 107.021C65.3888 107.021 64.4836 106.819 63.6457 106.415C62.0616 105.651 60.8811 104.244 60.4102 102.55L47.6088 56.476C46.9849 54.2314 47.7128 51.7848 49.4681 50.2435L103.995 2.52433C106.894 -0.0139241 110.857 -0.552158 114.331 1.11759C117.805 2.78733 119.854 6.22468 119.677 10.0718L116.386 82.458C116.282 84.7883 114.827 86.8862 112.68 87.7975L68.6794 106.532C67.921 106.862 67.1075 107.021 66.294 107.021ZM54.8872 55.2589L67.1014 99.2349L109.096 81.3571L112.356 9.74766C112.411 8.48159 111.536 7.91889 111.157 7.7354C110.778 7.55191 109.787 7.21552 108.839 8.05345L54.8872 55.2589Z" fill="#D9D9D9"/>
<path d="M56.7114 124.483C56.1793 124.483 55.6349 124.367 55.1212 124.122C53.2924 123.241 52.5278 121.052 53.4086 119.223L77.2193 69.7667C78.1 67.9379 80.2896 67.1734 82.1184 68.0541C83.9472 68.9349 84.7117 71.1245 83.831 72.9533L60.0203 122.41C59.3903 123.718 58.0814 124.483 56.7114 124.483Z" fill="#D9D9D9"/>
<path d="M65.1083 149.156C63.2184 149.156 61.3407 148.734 59.5914 147.89L33.7685 135.456C30.6981 133.975 28.3862 131.382 27.2547 128.153C26.1231 124.923 26.3127 121.449 27.7929 118.379L28.1843 117.565C31.2425 111.211 38.9062 108.526 45.261 111.584L71.0839 124.018C74.1543 125.498 76.4662 128.092 77.5977 131.321C78.7293 134.55 78.5396 138.024 77.0595 141.095L76.6681 141.908C75.1879 144.979 72.5946 147.291 69.3652 148.422C67.9707 148.911 66.5334 149.156 65.1083 149.156ZM62.7719 141.272C64.0746 141.902 65.5548 141.982 66.9371 141.498C68.3193 141.015 69.4264 140.031 70.0564 138.728L70.4478 137.914C71.0778 136.611 71.1573 135.131 70.668 133.749C70.1848 132.367 69.2001 131.26 67.8973 130.63L42.0744 118.195C39.3649 116.893 36.0988 118.036 34.7899 120.746L34.3985 121.559C33.7685 122.862 33.689 124.342 34.1783 125.725C34.6615 127.107 35.6462 128.214 36.949 128.844L62.7719 141.272Z" fill="#D9D9D9"/>
<path d="M21.4749 215.31C18.3678 215.31 15.224 214.631 12.2454 213.2C7.10162 210.722 3.23613 206.392 1.35232 201.01C-0.531496 195.621 -0.207333 189.829 2.26976 184.685L29.3771 128.385C30.2579 126.556 32.4475 125.792 34.2762 126.673C36.105 127.553 36.8696 129.743 35.9888 131.572L8.87534 187.866C5.52362 194.832 8.45943 203.23 15.4259 206.582C22.3923 209.933 30.79 206.998 34.1417 200.031L61.249 143.731C62.1298 141.902 64.3194 141.138 66.1482 142.018C67.977 142.899 68.7415 145.089 67.8607 146.917L40.7534 203.218C37.0775 210.851 29.426 215.31 21.4749 215.31Z" fill="#D9D9D9"/>
</svg>
