<svg width="184" height="131" viewBox="0 0 184 131" fill="none" xmlns="http://www.w3.org/2000/svg">
<path d="M115.751 147.803C115.224 147.803 114.703 147.699 114.206 147.484L3.24845 99.9564C1.80839 99.3375 0.876953 97.9219 0.876953 96.3593C0.876953 94.7967 1.80839 93.375 3.24845 92.7622L14.4748 87.9518C16.4602 87.1001 18.7643 88.0192 19.6161 90.0108C20.4679 91.9963 19.5487 94.3003 17.5571 95.1521L14.7322 96.3654L115.751 139.628L216.769 96.3593L214.208 95.2624C212.222 94.4107 211.297 92.1127 212.149 90.1211C213.001 88.1357 215.299 87.2104 217.29 88.0621L228.253 92.7561C229.693 93.375 230.624 94.7906 230.624 96.3532C230.624 97.9158 229.693 99.3375 228.253 99.9503L117.295 147.478C116.799 147.699 116.278 147.803 115.751 147.803Z" fill="#D9D9D9"/>
<path d="M115.751 125.436C115.224 125.436 114.703 125.332 114.206 125.118L3.24845 77.5896C1.80839 76.9707 0.876953 75.5551 0.876953 73.9925C0.876953 72.4299 1.80839 71.0082 3.24845 70.3954L14.4748 65.585C16.4602 64.7332 18.7643 65.6524 19.6161 67.644C20.4679 69.6294 19.5487 71.9335 17.5571 72.7853L14.7322 73.9925L115.751 117.262L216.769 73.9925L214.208 72.8956C212.222 72.0438 211.297 69.7459 212.149 67.7543C213.001 65.7689 215.299 64.8435 217.29 65.6953L228.253 70.3893C229.693 71.0082 230.624 72.4238 230.624 73.9864C230.624 75.549 229.693 76.9707 228.253 77.5835L117.295 125.112C116.799 125.332 116.278 125.436 115.751 125.436Z" fill="#D9D9D9"/>
<path d="M115.751 103.07C115.224 103.07 114.703 102.965 114.206 102.751L3.24845 55.2228C1.80839 54.6039 0.876953 53.1884 0.876953 51.6258C0.876953 50.0631 1.80839 48.6415 3.24845 48.0287L114.206 0.500621C115.193 0.0777958 116.302 0.0777958 117.289 0.500621L228.247 48.0287C229.687 48.6476 230.618 50.0631 230.618 51.6258C230.618 53.1884 229.687 54.61 228.247 55.2228L117.289 102.751C116.799 102.965 116.278 103.07 115.751 103.07ZM14.7322 51.6258L115.751 94.8949L216.769 51.6258L115.751 8.3566L14.7322 51.6258Z" fill="#D9D9D9"/>
</svg>
