<svg width="149" height="168" viewBox="0 0 149 168" fill="none" xmlns="http://www.w3.org/2000/svg">
<path d="M56.0156 187.747H36.0765C34.0398 187.747 32.3945 186.095 32.3945 184.065V130.633C32.3945 128.602 34.0398 126.951 36.0765 126.951C38.1132 126.951 39.7585 128.602 39.7585 130.633V180.383H52.3336V146.609C52.3336 144.578 53.9789 142.927 56.0156 142.927C58.0523 142.927 59.6976 144.578 59.6976 146.609V184.065C59.6976 186.101 58.0462 187.747 56.0156 187.747Z" fill="#D9D9D9"/>
<path d="M124.922 187.747H104.983C102.946 187.747 101.301 186.095 101.301 184.065V146.768C101.301 144.737 102.946 143.086 104.983 143.086C107.02 143.086 108.665 144.737 108.665 146.768V180.383H121.24V130.633C121.24 128.602 122.885 126.951 124.922 126.951C126.959 126.951 128.604 128.602 128.604 130.633V184.065C128.604 186.101 126.959 187.747 124.922 187.747Z" fill="#D9D9D9"/>
<path d="M67.8089 167.514C67.7722 167.514 67.7355 167.514 67.6988 167.514C66.5245 167.477 65.4358 166.884 64.7691 165.912L40.4263 130.364C39.2764 128.688 39.7046 126.394 41.3866 125.244C43.0685 124.095 45.356 124.523 46.5059 126.205L67.9985 157.587L77.5949 145.214C78.8426 143.605 81.1546 143.318 82.7632 144.56C84.3718 145.807 84.6653 148.119 83.4176 149.728L70.7263 166.089C70.0169 166.988 68.9465 167.514 67.8089 167.514Z" fill="#D9D9D9"/>
<path d="M93.3075 167.514C92.1699 167.514 91.0996 166.988 90.3962 166.089L77.7049 149.728C76.4572 148.119 76.7508 145.807 78.3593 144.56C79.9679 143.312 82.2799 143.605 83.5276 145.214L93.124 157.587L114.592 126.229C115.742 124.553 118.03 124.119 119.712 125.269C121.387 126.419 121.822 128.706 120.672 130.388L96.3534 165.912C95.6868 166.884 94.5981 167.477 93.4237 167.514C93.3809 167.514 93.3442 167.514 93.3075 167.514Z" fill="#D9D9D9"/>
<path d="M80.4994 151.147C79.5575 151.147 78.6156 150.786 77.8939 150.07L57.178 129.355C56.4869 128.663 56.1016 127.728 56.1016 126.749V115.171C56.1016 113.14 57.7468 111.489 59.7836 111.489C61.8203 111.489 63.4656 113.14 63.4656 115.171V125.226L80.4994 142.26L97.5394 125.226V115.165C97.5394 113.134 99.1846 111.483 101.221 111.483C103.258 111.483 104.903 113.134 104.903 115.165V126.749C104.903 127.728 104.518 128.663 103.827 129.355L83.1049 150.07C82.3832 150.792 81.4413 151.147 80.4994 151.147Z" fill="#D9D9D9"/>
<path d="M80.5054 220.518H80.3158C67.3493 220.518 54.707 217.992 42.7435 213.019L42.6763 212.995C38.2481 211.154 33.6303 209.949 28.8902 209.404L12.0582 207.466C5.5688 206.719 0.675781 201.227 0.675781 194.695V177.716C0.675781 147.691 25.0981 123.269 55.1229 123.269H59.7896C61.8263 123.269 63.4716 124.92 63.4716 126.951C63.4716 128.981 61.8263 130.633 59.7896 130.633H55.1229C29.1593 130.633 8.03978 151.752 8.03978 177.716V194.695C8.03978 197.484 10.1316 199.832 12.9022 200.15L29.7403 202.089C35.1655 202.719 40.4499 204.095 45.4592 206.175L45.5265 206.199C56.6459 210.823 68.3341 213.154 80.3281 213.154H80.5116C92.4995 213.129 104.188 210.774 115.246 206.15C120.078 204.132 125.16 202.805 130.353 202.199L148.115 200.144C150.892 199.826 152.977 197.478 152.977 194.689V177.71C152.977 151.746 131.858 130.627 105.894 130.627H101.234C99.1968 130.627 97.5515 128.975 97.5515 126.945C97.5515 124.914 99.1968 123.263 101.234 123.263H105.894C135.919 123.263 160.341 147.685 160.341 177.71V194.689C160.341 201.221 155.448 206.713 148.959 207.459L131.197 209.514C126.689 210.034 122.28 211.19 118.084 212.94C106.114 217.943 93.4781 220.487 80.5054 220.518Z" fill="#D9D9D9"/>
<path d="M80.499 125.306C58.7618 125.306 41.1347 108.284 40.3824 86.5589L39.6606 65.8308C39.5872 63.8002 41.1775 62.0938 43.2142 62.0204C43.257 62.0204 43.2998 62.0204 43.3426 62.0204C45.3182 62.0204 46.9512 63.5861 47.0185 65.5739L47.7403 86.302C48.358 104.045 62.7435 117.942 80.499 117.942C98.2546 117.942 112.64 104.045 113.258 86.302L114.01 64.6993C114.084 62.6687 115.772 61.0846 117.821 61.1458C119.851 61.2192 121.441 62.9195 121.374 64.9562L120.622 86.5589C119.863 108.29 102.236 125.306 80.499 125.306Z" fill="#D9D9D9"/>
<path d="M125.417 57.0356C123.38 57.0356 121.735 55.3842 121.735 53.3536C121.735 36.0996 111.349 20.9129 95.2757 14.662C93.3796 13.9281 92.4438 11.7935 93.1778 9.89746C93.9179 8.00141 96.0524 7.06562 97.9424 7.79957C107.019 11.3287 114.768 17.4327 120.359 25.4512C126.077 33.6592 129.099 43.3107 129.099 53.3536C129.099 55.3903 127.453 57.0356 125.417 57.0356ZM35.0609 57.0356C33.0242 57.0356 31.3789 55.3842 31.3789 53.3536C31.3789 32.9252 44.2598 14.4786 63.4282 7.46318C65.3365 6.76592 67.4527 7.74453 68.15 9.65281C68.8472 11.5611 67.8686 13.6773 65.9603 14.3746C49.6788 20.3318 38.7429 35.9956 38.7429 53.3475C38.7368 55.3903 37.0915 57.0356 35.0609 57.0356Z" fill="#D9D9D9"/>
<path d="M31.3245 68.9134C28.2908 68.9134 25.832 66.4547 25.832 63.4394V55.2374C25.832 52.216 28.2847 49.7634 31.3061 49.7634C31.4835 49.7634 51.2758 49.6716 78.9519 49.6716C107.631 49.6716 128.934 49.5982 129.148 49.5982C132.182 49.5982 134.635 52.057 134.635 55.0723V63.2742C134.635 66.2896 132.188 68.7422 129.173 68.7483C128.965 68.7483 108.304 68.8217 79.9305 68.8217C51.9547 68.8217 31.5324 68.9134 31.3245 68.9134ZM33.2021 57.1151V61.5372C38.8842 61.5127 56.8416 61.4577 79.9427 61.4577C103.393 61.4577 121.576 61.4088 127.277 61.3904V56.9683C121.454 56.9867 102.738 57.0356 78.958 57.0356C56.181 57.0356 38.7557 57.0968 33.2021 57.1151ZM31.3428 57.1274C31.3183 57.1274 31.3306 57.1274 31.3428 57.1274V57.1274ZM80.8051 38.9131C78.7684 38.9131 77.1231 37.2617 77.1231 35.2311V8.3317H68.4319V27.7386C68.4319 29.7693 66.7866 31.4206 64.7499 31.4206C62.7132 31.4206 61.0679 29.7693 61.0679 27.7386V4.6497C61.0679 2.61909 62.7132 0.967697 64.7499 0.967697H96.5546C98.5913 0.967697 100.237 2.61909 100.237 4.6497V27.5857C100.237 29.6163 98.5913 31.2677 96.5546 31.2677C94.5178 31.2677 92.8726 29.6163 92.8726 27.5857V8.3317H84.4872V35.2311C84.4872 37.2678 82.8419 38.9131 80.8051 38.9131Z" fill="#D9D9D9"/>
</svg>
