<svg width="161" height="175" viewBox="0 0 161 175" fill="none" xmlns="http://www.w3.org/2000/svg">
<path d="M92.0452 118.952C90.1431 118.255 88.0329 119.234 87.3357 121.136L54.0387 212.128C53.5494 213.467 53.8796 214.972 54.8888 215.981C57.0662 218.164 61.5066 223.804 61.3109 227.314C61.3048 227.467 61.2865 227.608 61.2559 227.749L35.4391 218.898L63.1947 137.888C63.7391 136.298 63.1274 134.598 61.8125 133.686C61.8125 133.686 61.8063 133.686 61.8063 133.68C61.8002 133.674 61.7941 133.674 61.788 133.668C61.6962 133.607 61.6045 133.546 61.5128 133.497C61.4822 133.478 61.4455 133.46 61.4088 133.442C61.3415 133.405 61.2742 133.368 61.2008 133.338C61.1397 133.307 61.0724 133.283 61.0112 133.258C60.9745 133.246 60.9439 133.228 60.9134 133.215C60.9011 133.209 60.8889 133.209 60.8767 133.203C60.791 133.173 60.7054 133.154 60.6198 133.13C60.5892 133.124 60.5586 133.111 60.528 133.105C60.4363 133.087 60.3445 133.069 60.2467 133.056C60.2222 133.05 60.1978 133.05 60.1672 133.044C60.0693 133.032 59.9715 133.026 59.8675 133.02C59.8491 133.02 59.8308 133.013 59.8063 133.013C59.6962 133.013 59.58 133.013 59.4699 133.02C59.4638 133.02 59.4638 133.02 59.4577 133.02C58.3873 133.093 57.3537 133.631 56.6931 134.585L36.8519 163.136C35.0231 165.766 31.5613 166.751 28.6194 165.473L26.0567 164.359C24.3197 163.607 23.0169 162.206 22.3869 160.421C21.7569 158.635 21.8854 156.732 22.76 155.05L47.2251 108.022C48.1609 106.224 47.4637 104.01 45.6655 103.074C43.8673 102.139 41.6532 102.836 40.7174 104.634L16.2523 151.662C14.4541 155.118 14.1728 159.203 15.4694 162.873C16.7722 166.543 19.5612 169.54 23.1331 171.087L25.6958 172.2C27.5001 172.983 29.4023 173.363 31.28 173.363C35.7877 173.363 40.1853 171.197 42.8765 167.32L47.7205 160.347L27.2922 219.969C26.6377 221.883 27.6592 223.975 29.5736 224.629L61.3843 235.535C61.7696 235.669 62.1733 235.73 62.5709 235.73C63.3966 235.73 64.2039 235.455 64.8645 234.923C67.1642 233.082 68.4608 230.58 68.6199 227.693C68.944 221.797 64.2895 215.54 61.6779 212.525L94.2104 123.631C94.926 121.753 93.9474 119.649 92.0452 118.952Z" fill="#D9D9D9"/>
<path d="M103.007 47.3672C102.199 47.3672 101.38 47.2388 100.572 46.9574L88.7557 42.9085C80.1257 39.9482 75.5079 30.523 78.4682 21.8929L82.0462 11.4586C83.4774 7.29337 86.4499 3.9233 90.4316 1.97832C94.4133 0.0333452 98.8965 -0.25412 103.062 1.17097L106.34 2.29637C114.97 5.25665 119.588 14.6818 116.628 23.3119L110.126 42.2846C109.062 45.4039 106.132 47.3672 103.007 47.3672ZM91.1411 35.9665L102.958 40.0155C103.043 40.046 103.16 39.991 103.19 39.9054L109.692 20.9327C111.337 16.1314 108.768 10.8836 103.967 9.23834L100.689 8.11295C98.3766 7.31783 95.8812 7.48297 93.661 8.56555C91.4408 9.64814 89.7833 11.5197 88.9943 13.8378L85.4162 24.2783C83.771 29.0734 86.3398 34.3212 91.1411 35.9665Z" fill="#D9D9D9"/>
<path d="M183.399 72.236C182.653 70.9516 181.203 70.2482 179.729 70.4501L143.612 75.4043L112.682 60.2359C112.499 60.1441 112.309 60.0769 112.12 60.0218L89.2937 52.1991C89.2814 52.193 89.2631 52.1869 89.2509 52.1807C87.3976 51.5446 85.5077 50.8535 83.5077 50.1257C78.2416 48.199 72.7981 46.2112 67.4708 45.0553C53.1098 41.9299 44.9078 50.6456 37.0973 60.6457C37.0729 60.6763 37.0545 60.7007 37.0362 60.7313L0.785 109.967C-0.31593 111.466 -0.12633 113.545 1.22537 114.818C1.48225 115.056 7.23767 120.377 15.0115 120.377C15.4457 120.377 15.8861 120.359 16.3387 120.328C21.7394 119.906 26.5835 116.977 30.7303 111.631C30.7425 111.613 30.7548 111.6 30.767 111.582L44.6326 93.062L40.4919 105.178C39.8374 107.093 40.8589 109.178 42.7733 109.839L89.5873 125.888C89.9726 126.023 90.3763 126.084 90.7799 126.084C91.3365 126.084 91.887 125.955 92.3946 125.711C93.2692 125.283 93.9359 124.524 94.254 123.607L107.043 86.2974L140.132 101.062C140.603 101.27 141.117 101.38 141.625 101.38C141.79 101.38 141.955 101.368 142.12 101.343L175.154 96.8418C175.576 96.7868 175.986 96.6522 176.365 96.4565C181.075 93.9794 184.084 90.542 185.319 86.2362C187.356 79.1474 183.558 72.5174 183.399 72.236ZM178.261 84.2362C177.625 86.4074 176.065 88.1812 173.496 89.643L142.169 93.9121L106.37 77.9425C106.315 77.918 106.26 77.8997 106.205 77.8813C106.156 77.863 106.113 77.8385 106.065 77.8263C106.058 77.8263 106.052 77.8202 106.046 77.8202C105.973 77.7957 105.893 77.7774 105.82 77.7529C105.777 77.7407 105.734 77.7284 105.685 77.7162C105.612 77.6979 105.539 77.6856 105.465 77.6734C105.416 77.6673 105.373 77.655 105.324 77.6489C105.257 77.6428 105.19 77.6367 105.129 77.6306C105.074 77.6245 105.019 77.6183 104.964 77.6183C104.909 77.6183 104.853 77.6183 104.798 77.6245C104.731 77.6245 104.67 77.6245 104.603 77.6306C104.554 77.6367 104.511 77.6428 104.462 77.6489C104.389 77.655 104.321 77.6612 104.254 77.6734C104.211 77.6795 104.162 77.6917 104.12 77.704C104.052 77.7162 103.979 77.7346 103.912 77.7529C103.863 77.7651 103.814 77.7835 103.765 77.8018C103.704 77.8202 103.636 77.8385 103.575 77.863C103.514 77.8875 103.459 77.9119 103.404 77.9364C103.355 77.9609 103.306 77.9792 103.257 78.0037C103.19 78.0343 103.129 78.071 103.061 78.1077C103.025 78.126 102.988 78.1505 102.951 78.1688C102.884 78.2116 102.823 78.2544 102.756 78.3034C102.725 78.3278 102.688 78.3462 102.658 78.3706C102.597 78.4196 102.542 78.4685 102.48 78.5174C102.45 78.548 102.413 78.5725 102.383 78.5969C102.334 78.6459 102.285 78.6948 102.236 78.7437C102.199 78.7804 102.162 78.8171 102.132 78.8538C102.095 78.8967 102.058 78.9456 102.022 78.9945C101.985 79.0434 101.942 79.0863 101.905 79.1413C101.875 79.1841 101.85 79.2269 101.82 79.2697C101.783 79.3309 101.74 79.386 101.704 79.4471C101.679 79.4899 101.655 79.5389 101.63 79.5817C101.6 79.6428 101.563 79.7101 101.532 79.7713C101.526 79.7774 101.526 79.7835 101.52 79.7896C101.496 79.8447 101.477 79.8997 101.453 79.9548C101.434 80.0037 101.416 80.0465 101.398 80.0954L101.386 80.1383V80.1444L88.5047 117.729L48.6327 104.059L59.1098 73.4226C59.1282 73.3736 59.1404 73.3186 59.1527 73.2697C59.171 73.2085 59.1894 73.1535 59.2016 73.0923C59.2199 73.025 59.2322 72.9577 59.2444 72.8905C59.2505 72.8415 59.2627 72.7926 59.2689 72.7437C59.2811 72.6642 59.2872 72.5846 59.2933 72.5051C59.2933 72.4684 59.2994 72.4317 59.2994 72.395C59.3056 72.3094 59.2994 72.2238 59.2994 72.1443C59.2994 72.1076 59.2994 72.077 59.2994 72.0403C59.2933 71.9608 59.2872 71.8752 59.275 71.7956C59.2689 71.7589 59.2689 71.7223 59.2627 71.6856C59.2505 71.6122 59.2383 71.5388 59.2199 71.4715C59.2077 71.4287 59.2016 71.3797 59.1894 71.3369C59.171 71.2758 59.1527 71.2146 59.1343 71.1596C59.116 71.1045 59.0976 71.0495 59.0793 70.9944C59.0609 70.9455 59.0426 70.9027 59.0242 70.8537C58.9997 70.7865 58.9692 70.7253 58.9386 70.6641C58.9202 70.6274 58.9019 70.5907 58.8774 70.554C58.8407 70.4868 58.804 70.4195 58.7673 70.3522C58.749 70.3216 58.7245 70.2849 58.7062 70.2543C58.6633 70.1871 58.6205 70.1198 58.5716 70.0586C58.5471 70.0219 58.5166 69.9913 58.4921 69.9546C58.4432 69.8996 58.4004 69.8384 58.3514 69.7834C58.3147 69.7406 58.2719 69.7039 58.2291 69.6611C58.1863 69.6183 58.1435 69.5754 58.1007 69.5326C58.0456 69.4837 57.9906 69.4409 57.9355 69.392C57.8988 69.3675 57.8682 69.3369 57.8377 69.3063C57.8315 69.3002 57.8254 69.3002 57.8193 69.2941C57.7704 69.2574 57.7153 69.2207 57.6603 69.1901C57.6052 69.1534 57.5563 69.1167 57.5013 69.0861C57.4829 69.0739 57.4584 69.0678 57.4401 69.0556C57.1282 68.8782 56.7979 68.7497 56.4615 68.6702C56.4554 68.6702 56.4431 68.6641 56.437 68.6641C56.3269 68.6396 56.223 68.6213 56.1129 68.6029C56.0823 68.5968 56.0578 68.5968 56.0272 68.5968C55.9355 68.5846 55.8499 68.5785 55.7581 68.5785C55.7214 68.5785 55.6786 68.5785 55.6419 68.5785C55.5624 68.5785 55.4829 68.5785 55.4034 68.5846C55.3606 68.5846 55.3239 68.5907 55.281 68.5968C55.2015 68.603 55.1281 68.6152 55.0486 68.6274C55.0119 68.6335 54.9752 68.6396 54.9385 68.6458C54.859 68.6641 54.7734 68.6763 54.6939 68.7008C54.6633 68.7069 54.6388 68.7192 54.6144 68.7253C54.5288 68.7497 54.437 68.7803 54.3514 68.8109C54.333 68.817 54.3147 68.8231 54.3024 68.8293C54.2107 68.866 54.119 68.9026 54.0272 68.9516C54.015 68.9577 54.0027 68.9638 53.9966 68.9699C53.9049 69.0189 53.807 69.0678 53.7214 69.1228C53.7092 69.129 53.7031 69.1351 53.6969 69.1412C53.6052 69.1962 53.5196 69.2574 53.4339 69.3186C53.4217 69.3308 53.4095 69.343 53.3911 69.3491C53.3116 69.4103 53.2382 69.4715 53.1648 69.5387C53.1403 69.5632 53.1159 69.5877 53.0914 69.606C53.0303 69.6672 52.9691 69.7222 52.9141 69.7834C52.8774 69.8201 52.8468 69.8629 52.8162 69.9057C52.7795 69.9546 52.7367 69.9975 52.7 70.0464L24.9198 107.148C22.1125 110.762 19.0482 112.732 15.8188 113.001C13.1338 113.221 10.6689 112.273 8.91965 111.301L42.92 65.1167C51.0241 54.7496 56.541 50.1807 65.9173 52.2236C70.7552 53.2756 75.9602 55.1777 80.9939 57.0187C82.7737 57.667 84.6086 58.3337 86.3762 58.9515C86.419 58.9698 86.4618 58.9882 86.5047 59.0065L109.704 66.9577L141.38 82.493C142.034 82.8111 142.768 82.9334 143.496 82.8355L177.955 78.1077C178.481 79.7162 178.909 82.0098 178.261 84.2362Z" fill="#D9D9D9"/>
</svg>
