<svg width="174" height="169" viewBox="0 0 174 169" fill="none" xmlns="http://www.w3.org/2000/svg">
<path d="M208.049 122.401C206.539 122.401 205.203 121.312 204.94 119.771C199.286 86.4859 171.802 61.2695 138.112 58.4501C118.834 56.8406 100.177 61.8797 89.4255 71.6054C88.1315 72.7731 86.138 72.6732 84.965 71.3845C83.7973 70.0905 83.8972 68.097 85.1859 66.924C97.1893 56.0621 117.672 50.4076 138.638 52.1592C175.2 55.2152 205.025 82.583 211.163 118.709C211.458 120.429 210.3 122.059 208.58 122.349C208.401 122.385 208.228 122.401 208.049 122.401Z" fill="#D9D9D9"/>
<path d="M54.3878 141.269C53.7618 141.269 53.1306 141.085 52.5889 140.706C51.4159 139.891 50.9372 138.386 51.4211 137.04L60.8997 110.829L47.4183 104.359C46.4504 103.897 45.7877 102.971 45.6509 101.908C45.5194 100.846 45.935 99.7832 46.7555 99.0941L85.2745 66.8503C86.3686 65.9351 87.9413 65.8667 89.109 66.682C90.2768 67.4973 90.7554 69.0017 90.2662 70.343L80.9823 96.0065L94.4111 102.461C95.3737 102.923 96.0365 103.844 96.1732 104.901C96.31 105.964 95.8997 107.016 95.0844 107.71L56.4234 140.522C55.8448 141.016 55.1189 141.269 54.3878 141.269ZM54.5666 100.788L66.207 106.379C67.6693 107.079 68.3583 108.773 67.806 110.298L61.3941 128.035L87.3049 106.043L75.6855 100.456C74.2232 99.7569 73.5342 98.0632 74.0865 96.5378L80.3564 79.2008L54.5666 100.788Z" fill="#D9D9D9"/>
<path d="M132.074 212.6C129.823 212.6 127.566 212.505 125.304 212.316C96.0798 209.875 70.5109 191.702 58.5654 164.886C57.8553 163.292 58.5707 161.43 60.1645 160.72C61.753 160.01 63.6203 160.726 64.3304 162.319C75.3396 187.026 98.9044 203.773 125.83 206.025C140.322 207.234 154.697 204.215 167.4 197.288C176.731 192.196 185.026 185.006 191.386 176.495C192.427 175.096 194.405 174.812 195.804 175.853C197.198 176.895 197.487 178.873 196.446 180.272C189.55 189.503 180.555 197.304 170.43 202.832C158.616 209.27 145.476 212.6 132.074 212.6Z" fill="#D9D9D9"/>
<path d="M176.038 203.768C173.523 203.768 170.972 203.574 168.4 203.174C167.054 202.963 165.991 201.911 165.77 200.565C163.351 185.811 167.622 171.635 177.5 161.678C187.373 151.726 201.512 147.334 216.287 149.627C217.634 149.837 218.696 150.889 218.917 152.236C221.332 166.99 217.055 181.166 207.182 191.118C199.029 199.339 187.967 203.768 176.038 203.768ZM171.682 197.235C183.581 198.445 194.784 194.663 202.706 186.678C210.622 178.694 214.315 167.464 213.005 155.571C201.102 154.356 189.903 158.138 181.982 166.122C174.06 174.112 170.367 185.348 171.682 197.235Z" fill="#D9D9D9"/>
<path d="M133.051 174.88C117.666 174.88 105.152 162.367 105.152 146.981C105.152 132.805 127.807 96.8744 130.39 92.8242C130.968 91.9143 131.973 91.3672 133.051 91.3672C134.13 91.3672 135.134 91.9195 135.713 92.8242C138.296 96.8744 160.95 132.805 160.95 146.981C160.95 162.367 148.437 174.88 133.051 174.88ZM133.051 100.488C125.23 113.275 111.464 137.713 111.464 146.981C111.464 158.885 121.148 168.568 133.051 168.568C144.955 168.568 154.638 158.885 154.638 146.981C154.638 137.713 140.873 113.275 133.051 100.488Z" fill="#D9D9D9"/>
<path d="M132.758 162.493C131.017 162.493 129.602 161.078 129.602 159.337C129.602 157.596 131.017 156.181 132.758 156.181C137.933 156.181 142.141 151.973 142.141 146.797C142.141 145.056 143.556 143.641 145.297 143.641C147.038 143.641 148.453 145.056 148.453 146.797C148.453 155.45 141.41 162.493 132.758 162.493Z" fill="#D9D9D9"/>
</svg>
