<svg width="153" height="135" viewBox="0 0 153 135" fill="none" xmlns="http://www.w3.org/2000/svg">
<path d="M201.198 52.2865C191.809 52.2865 183.968 59.0266 182.25 67.9197H159.307C157.589 59.0266 149.748 52.2865 140.359 52.2865C138.157 52.2865 136.041 52.6657 134.066 53.3446L122.977 34.1334C127.105 30.5921 129.729 25.3382 129.729 19.4849C129.729 8.84257 121.069 0.181915 110.426 0.181915C101.074 0.181915 93.2578 6.86701 91.4963 15.7111H65.6489C63.6244 15.7111 61.9791 17.3564 61.9791 19.3809C61.9791 21.4054 63.6244 23.0507 65.6489 23.0507H91.4596C93.1355 31.9927 101.001 38.7879 110.426 38.7879C112.585 38.7879 114.659 38.427 116.604 37.7664L127.717 57.0205C123.643 60.5618 121.062 65.7729 121.062 71.5834C121.062 77.3938 123.643 82.6049 127.717 86.1462L116.518 105.547C114.542 104.862 112.426 104.489 110.218 104.489C100.83 104.489 92.9887 111.229 91.27 120.122H68.9639C67.2453 111.229 59.4042 104.489 50.0157 104.489C47.7894 104.489 45.6487 104.874 43.6609 105.572L32.4497 86.1523C36.5232 82.611 39.1043 77.3999 39.1043 71.5895C39.1043 65.779 36.5232 60.5679 32.4497 57.0266L45.2817 34.8062C46.297 33.0508 45.6915 30.8061 43.9361 29.7908C42.1807 28.7755 39.9361 29.3749 38.9208 31.1364L26.0949 53.3507C24.1194 52.6657 22.0031 52.2926 19.7952 52.2926C9.15284 52.2926 0.492188 60.9533 0.492188 71.5956C0.492188 82.2379 9.15284 90.8924 19.8013 90.8924C22.0093 90.8924 24.1255 90.5132 26.101 89.8343L37.3183 109.272C33.2754 112.813 30.7127 118.006 30.7127 123.792C30.7127 134.434 39.3734 143.095 50.0157 143.095C59.4042 143.095 67.2453 136.355 68.9639 127.462H91.27C92.9887 136.355 100.83 143.095 110.218 143.095C112.42 143.095 114.542 142.716 116.512 142.037L129.362 164.294C130.041 165.468 131.277 166.129 132.543 166.129C133.167 166.129 133.796 165.97 134.378 165.633C136.133 164.618 136.732 162.373 135.723 160.618L122.867 138.355C126.94 134.813 129.521 129.602 129.521 123.792C129.521 117.981 126.94 112.77 122.867 109.229L134.066 89.8282C136.041 90.5132 138.157 90.8863 140.365 90.8863C149.754 90.8863 157.595 84.1462 159.314 75.2531H182.256C183.974 84.1462 191.815 90.8863 201.204 90.8863C211.846 90.8863 220.507 82.2257 220.507 71.5834C220.507 60.941 211.846 52.2865 201.198 52.2865ZM98.4627 19.4849C98.4627 12.8854 103.827 7.52145 110.426 7.52145C117.026 7.52145 122.39 12.8854 122.39 19.4849C122.39 26.0844 117.026 31.4483 110.426 31.4483C103.827 31.4483 98.4627 26.0844 98.4627 19.4849ZM7.83784 71.5895C7.83784 64.99 13.2018 59.626 19.8013 59.626C26.4007 59.626 31.7647 64.99 31.7647 71.5895C31.7647 78.1889 26.4007 83.5529 19.8013 83.5529C13.2018 83.5529 7.83784 78.1889 7.83784 71.5895ZM50.0157 135.755C43.4162 135.755 38.0523 130.391 38.0523 123.792C38.0523 117.199 43.4162 111.828 50.0157 111.828C56.6152 111.828 61.9791 117.192 61.9791 123.792C61.9791 130.391 56.609 135.755 50.0157 135.755ZM98.2548 123.798C98.2548 123.792 98.2548 123.792 98.2548 123.798C98.2548 117.199 103.625 111.828 110.218 111.828C116.818 111.828 122.182 117.192 122.182 123.792C122.182 130.391 116.818 135.755 110.218 135.755C103.625 135.755 98.2548 130.391 98.2548 123.798ZM140.359 83.5529C133.76 83.5529 128.396 78.1889 128.396 71.5895C128.396 64.99 133.76 59.626 140.359 59.626C146.959 59.626 152.323 64.99 152.323 71.5895C152.323 78.1889 146.959 83.5529 140.359 83.5529ZM201.198 83.5529C194.598 83.5529 189.234 78.1889 189.234 71.5895C189.234 64.99 194.598 59.626 201.198 59.626C207.791 59.626 213.161 64.99 213.161 71.5895C213.161 78.1889 207.797 83.5529 201.198 83.5529Z" fill="#D9D9D9"/>
<path d="M50.0159 0.181915C39.3735 0.181915 30.7129 8.84257 30.7129 19.4849C30.7129 30.1272 39.3735 38.7879 50.0159 38.7879C60.6582 38.7879 69.3188 30.1272 69.3188 19.4849C69.3188 8.84257 60.6582 0.181915 50.0159 0.181915ZM50.0159 31.4483C43.4164 31.4483 38.0524 26.0844 38.0524 19.4849C38.0524 12.8854 43.4164 7.52145 50.0159 7.52145C56.6153 7.52145 61.9793 12.8854 61.9793 19.4849C61.9793 26.0844 56.6092 31.4483 50.0159 31.4483Z" fill="#D9D9D9"/>
</svg>
