<svg width="265" height="53" viewBox="0 0 265 53" fill="none" xmlns="http://www.w3.org/2000/svg">
<path d="M47.895 21.2597C47.8861 20.8441 47.7572 20.44 47.5237 20.0962C47.2903 19.7523 46.9623 19.4833 46.5793 19.3217L40.1451 16.5999L46.6504 13.5679C47.0283 13.3921 47.3471 13.1104 47.5681 12.7569C47.789 12.4035 47.9026 11.9935 47.895 11.5767C47.8875 11.1599 47.7592 10.7543 47.5257 10.409C47.2921 10.0638 46.9633 9.79374 46.5793 9.63167L24.7875 0.413206C24.5218 0.300679 24.2362 0.242676 23.9477 0.242676C23.6592 0.242676 23.3736 0.300679 23.1079 0.413206L1.31609 9.63167C0.932053 9.79374 0.603289 10.0638 0.369734 10.409C0.136178 10.7543 0.00787472 11.1599 0.000350984 11.5767C-0.00717276 11.9935 0.106406 12.4035 0.327348 12.7569C0.548289 13.1104 0.867082 13.3921 1.24502 13.5679L7.75026 16.5999L1.31609 19.3217C0.932053 19.4838 0.603289 19.7538 0.369734 20.099C0.136178 20.4443 0.00787472 20.85 0.000350984 21.2667C-0.00717276 21.6835 0.106406 22.0935 0.327348 22.447C0.548289 22.8004 0.867082 23.0821 1.24502 23.258L7.75026 26.2899L1.31609 29.0117C0.932053 29.1738 0.603289 29.4438 0.369734 29.7891C0.136178 30.1343 0.00787472 30.54 0.000350984 30.9568C-0.00717276 31.3735 0.106406 31.7835 0.327348 32.137C0.548289 32.4905 0.867082 32.7722 1.24502 32.948L7.75026 35.9799L1.31609 38.7018C0.932053 38.8638 0.603289 39.1339 0.369734 39.4791C0.136178 39.8244 0.00787472 40.23 0.000350984 40.6468C-0.00717276 41.0636 0.106406 41.4736 0.327348 41.827C0.548289 42.1805 0.867082 42.4622 1.24502 42.638L23.039 52.7975C23.3234 52.9309 23.6336 53 23.9477 53C24.2618 53 24.572 52.9309 24.8564 52.7975L46.6504 42.638C47.0283 42.4622 47.3471 42.1805 47.5681 41.827C47.789 41.4736 47.9026 41.0636 47.895 40.6468C47.8875 40.23 47.7592 39.8244 47.5257 39.4791C47.2921 39.1339 46.9633 38.8638 46.5793 38.7018L40.1451 35.9799L46.6504 32.948C47.0283 32.7722 47.3471 32.4905 47.5681 32.137C47.789 31.7835 47.9026 31.3735 47.895 30.9568C47.8875 30.54 47.7592 30.1343 47.5257 29.7891C47.2921 29.4438 46.9633 29.1738 46.5793 29.0117L40.1451 26.2899L46.6504 23.258C47.0294 23.0816 47.3489 22.7989 47.57 22.444C47.791 22.0892 47.9039 21.6777 47.895 21.2597ZM23.9477 4.72633L40.4401 11.701L23.9477 19.3906L7.45526 11.701L23.9477 4.72633ZM40.4401 40.7711L23.9477 48.4607L7.45526 40.7711L13.0087 38.4239L23.039 43.0989C23.3234 43.2322 23.6336 43.3014 23.9477 43.3014C24.2618 43.3014 24.572 43.2322 24.8564 43.0989L34.8867 38.4239L40.4401 40.7711ZM40.4401 31.0811L23.9477 38.7706L7.45526 31.0811L13.0087 28.7339L23.039 33.4089C23.3234 33.5422 23.6336 33.6113 23.9477 33.6113C24.2618 33.6113 24.572 33.5422 24.8564 33.4089L34.8867 28.7339L40.4401 31.0811ZM23.9477 29.0806L7.45526 21.3911L13.0087 19.0439L23.039 23.7188C23.3234 23.8522 23.6336 23.9213 23.9477 23.9213C24.2618 23.9213 24.572 23.8522 24.8564 23.7188L34.8867 19.0439L40.4401 21.3911L23.9477 29.0806Z" fill="#F27934"/>
<path d="M71.686 33.653V44.6211H65.1722V12.6748H78.6788C82.3508 12.6748 85.2245 13.5209 87.3 15.2133C89.3754 16.9056 90.4132 19.476 90.4132 22.9244C90.4132 26.3729 89.3754 29.0231 87.3 30.8751C85.2245 32.727 82.3508 33.653 78.6788 33.653H71.686ZM71.686 28.4324H77.8645C78.9502 28.4324 79.8602 28.3047 80.5946 28.0492C81.329 27.7619 81.9037 27.3787 82.3188 26.8998C82.7339 26.3889 83.0213 25.8301 83.181 25.2234C83.3725 24.6167 83.4683 23.9622 83.4683 23.2597C83.4683 22.5253 83.3725 21.8388 83.181 21.2002C83.0213 20.5616 82.7339 19.9868 82.3188 19.476C81.9037 18.9651 81.329 18.5819 80.5946 18.3265C79.8602 18.0391 78.9502 17.8954 77.8645 17.8954H71.686V28.4324ZM97.7131 44.6211V12.6748H112.561C116.041 12.6748 118.723 13.505 120.607 15.1654C122.523 16.7938 123.481 19.2524 123.481 22.5413C123.481 24.0739 123.162 25.5427 122.523 26.9477C121.916 28.3207 121.006 29.4701 119.793 30.3961C118.612 31.3221 117.159 31.8969 115.434 32.1204L115.482 30.013L125.109 44.6211H116.919L108.49 30.4919L111.411 33.0783H104.227V44.6211H97.7131ZM104.227 28.0971H111.172C112.928 28.0971 114.269 27.682 115.195 26.8519C116.121 25.9897 116.584 24.6646 116.584 22.8765C116.584 21.28 116.201 20.0507 115.434 19.1886C114.668 18.3265 113.455 17.8954 111.794 17.8954H104.227V28.0971ZM144.565 45.1958C141.404 45.1958 138.689 44.6051 136.422 43.4237C134.155 42.2104 132.415 40.3903 131.202 37.9636C129.988 35.505 129.382 32.4077 129.382 28.6719C129.382 23.2118 130.691 19.0928 133.309 16.3148C135.959 13.505 139.711 12.1 144.565 12.1C147.758 12.1 150.488 12.7067 152.755 13.9201C155.022 15.1334 156.762 16.9535 157.975 19.3802C159.221 21.8069 159.843 24.9041 159.843 28.6719C159.843 34.1 158.518 38.2191 155.868 41.0289C153.25 43.8069 149.482 45.1958 144.565 45.1958ZM144.565 39.7836C146.48 39.7836 148.061 39.4164 149.306 38.6821C150.584 37.9157 151.541 36.7183 152.18 35.0899C152.819 33.4614 153.138 31.3061 153.138 28.624C153.138 25.9418 152.819 23.8025 152.18 22.206C151.541 20.5775 150.584 19.3961 149.306 18.6617C148.061 17.9273 146.48 17.5601 144.565 17.5601C142.713 17.5601 141.148 17.9433 139.871 18.7096C138.626 19.444 137.684 20.6254 137.045 22.2539C136.406 23.8504 136.087 25.9897 136.087 28.6719C136.087 31.354 136.406 33.5093 137.045 35.1378C137.684 36.7662 138.626 37.9477 139.871 38.6821C141.148 39.4164 142.713 39.7836 144.565 39.7836ZM167.145 44.6211V12.6748H172.988L190.422 36.5268L188.554 40.3584V12.6748H194.589V44.6211H189.32L171.455 20.6733L173.227 17.7517V44.6211H167.145ZM210.33 44.6211V17.8954H200.655V12.6748H226.567V17.8954H216.844V44.6211H210.33ZM246.21 45.1958C243.049 45.1958 240.335 44.6051 238.068 43.4237C235.8 42.2104 234.06 40.3903 232.847 37.9636C231.634 35.505 231.027 32.4077 231.027 28.6719C231.027 23.2118 232.336 19.0928 234.954 16.3148C237.605 13.505 241.356 12.1 246.21 12.1C249.403 12.1 252.133 12.7067 254.4 13.9201C256.667 15.1334 258.407 16.9535 259.621 19.3802C260.866 21.8069 261.488 24.9041 261.488 28.6719C261.488 34.1 260.163 38.2191 257.513 41.0289C254.895 43.8069 251.127 45.1958 246.21 45.1958ZM246.21 39.7836C248.126 39.7836 249.706 39.4164 250.951 38.6821C252.229 37.9157 253.187 36.7183 253.825 35.0899C254.464 33.4614 254.783 31.3061 254.783 28.624C254.783 25.9418 254.464 23.8025 253.825 22.206C253.187 20.5775 252.229 19.3961 250.951 18.6617C249.706 17.9273 248.126 17.5601 246.21 17.5601C244.358 17.5601 242.793 17.9433 241.516 18.7096C240.271 19.444 239.329 20.6254 238.69 22.2539C238.052 23.8504 237.732 25.9897 237.732 28.6719C237.732 31.354 238.052 33.5093 238.69 35.1378C239.329 36.7662 240.271 37.9477 241.516 38.6821C242.793 39.4164 244.358 39.7836 246.21 39.7836Z" fill="white"/>
</svg>
