<svg width="193" height="40" viewBox="0 0 193 40" fill="none" xmlns="http://www.w3.org/2000/svg">
<path d="M34.9996 16.082C34.9932 15.7783 34.8989 15.483 34.7283 15.2317C34.5577 14.9804 34.318 14.7839 34.0382 14.6658L29.3364 12.6768L34.0901 10.4612C34.3663 10.3327 34.5993 10.1268 34.7607 9.86852C34.9222 9.61022 35.0052 9.31061 34.9997 9.00606C34.9942 8.7015 34.9004 8.40506 34.7297 8.15276C34.5591 7.90046 34.3188 7.70315 34.0382 7.58471L18.1137 0.848249C17.9195 0.766019 17.7108 0.723633 17.5 0.723633C17.2891 0.723633 17.0804 0.766019 16.8863 0.848249L0.961744 7.58471C0.681105 7.70315 0.440858 7.90046 0.270186 8.15276C0.0995132 8.40506 0.00575451 8.7015 0.000256484 9.00606C-0.00524155 9.31061 0.0777569 9.61022 0.239212 9.86852C0.400667 10.1268 0.633627 10.3327 0.909809 10.4612L5.66356 12.6768L0.961744 14.6658C0.681105 14.7842 0.440858 14.9815 0.270186 15.2338C0.0995132 15.4861 0.00575451 15.7826 0.000256484 16.0871C-0.00524155 16.3917 0.0777569 16.6913 0.239212 16.9496C0.400667 17.2079 0.633627 17.4137 0.909809 17.5422L5.66356 19.7578L0.961744 21.7468C0.681105 21.8653 0.440858 22.0626 0.270186 22.3149C0.0995132 22.5672 0.00575451 22.8636 0.000256484 23.1682C-0.00524155 23.4727 0.0777569 23.7724 0.239212 24.0307C0.400667 24.289 0.633627 24.4948 0.909809 24.6233L5.66356 26.8389L0.961744 28.8279C0.681105 28.9464 0.440858 29.1437 0.270186 29.396C0.0995132 29.6483 0.00575451 29.9447 0.000256484 30.2493C-0.00524155 30.5538 0.0777569 30.8534 0.239212 31.1117C0.400667 31.37 0.633627 31.5759 0.909809 31.7044L16.8359 39.1285C17.0437 39.2259 17.2704 39.2764 17.5 39.2764C17.7295 39.2764 17.9562 39.2259 18.164 39.1285L34.0901 31.7044C34.3663 31.5759 34.5993 31.37 34.7607 31.1117C34.9222 30.8534 35.0052 30.5538 34.9997 30.2493C34.9942 29.9447 34.9004 29.6483 34.7297 29.396C34.5591 29.1437 34.3188 28.9464 34.0382 28.8279L29.3364 26.8389L34.0901 24.6233C34.3663 24.4948 34.5993 24.289 34.7607 24.0307C34.9222 23.7724 35.0052 23.4727 34.9997 23.1682C34.9942 22.8636 34.9004 22.5672 34.7297 22.3149C34.5591 22.0626 34.3188 21.8653 34.0382 21.7468L29.3364 19.7578L34.0901 17.5422C34.3671 17.4134 34.6006 17.2067 34.7621 16.9474C34.9236 16.6881 35.0061 16.3874 34.9996 16.082ZM17.5 4.0001L29.5519 9.09691L17.5 14.7161L5.44799 9.09691L17.5 4.0001ZM29.5519 30.3401L17.5 35.9593L5.44799 30.3401L9.50622 28.6249L16.8359 32.0411C17.0437 32.1386 17.2704 32.1891 17.5 32.1891C17.7295 32.1891 17.9562 32.1386 18.164 32.0411L25.4937 28.6249L29.5519 30.3401ZM29.5519 23.259L17.5 28.8782L5.44799 23.259L9.50622 21.5438L16.8359 24.9601C17.0437 25.0575 17.2704 25.108 17.5 25.108C17.7295 25.108 17.9562 25.0575 18.164 24.9601L25.4937 21.5438L29.5519 23.259ZM17.5 21.7972L5.44799 16.178L9.50622 14.4627L16.8359 17.879C17.0437 17.9764 17.2704 18.027 17.5 18.027C17.7295 18.027 17.9562 17.9764 18.164 17.879L25.4937 14.4627L29.5519 16.178L17.5 21.7972Z" fill="#F27934"/>
<path d="M52.385 25.485V33.5H47.625V10.155H57.495C60.1783 10.155 62.2783 10.7733 63.795 12.01C65.3117 13.2467 66.07 15.125 66.07 17.645C66.07 20.165 65.3117 22.1017 63.795 23.455C62.2783 24.8083 60.1783 25.485 57.495 25.485H52.385ZM52.385 21.67H56.9C57.6933 21.67 58.3583 21.5767 58.895 21.39C59.4317 21.18 59.8517 20.9 60.155 20.55C60.4583 20.1767 60.6683 19.7683 60.785 19.325C60.925 18.8817 60.995 18.4033 60.995 17.89C60.995 17.3533 60.925 16.8517 60.785 16.385C60.6683 15.9183 60.4583 15.4983 60.155 15.125C59.8517 14.7517 59.4317 14.4717 58.895 14.285C58.3583 14.075 57.6933 13.97 56.9 13.97H52.385V21.67ZM71.4045 33.5V10.155H82.2545C84.7978 10.155 86.7578 10.7617 88.1345 11.975C89.5345 13.165 90.2345 14.9617 90.2345 17.365C90.2345 18.485 90.0012 19.5583 89.5345 20.585C89.0912 21.5883 88.4262 22.4283 87.5395 23.105C86.6762 23.7817 85.6145 24.2017 84.3545 24.365L84.3895 22.825L91.4245 33.5H85.4395L79.2795 23.175L81.4145 25.065H76.1645V33.5H71.4045ZM76.1645 21.425H81.2395C82.5228 21.425 83.5028 21.1217 84.1795 20.515C84.8562 19.885 85.1945 18.9167 85.1945 17.61C85.1945 16.4433 84.9145 15.545 84.3545 14.915C83.7945 14.285 82.9078 13.97 81.6945 13.97H76.1645V21.425ZM105.642 33.92C103.332 33.92 101.348 33.4883 99.6916 32.625C98.0349 31.7383 96.7633 30.4083 95.8766 28.635C94.9899 26.8383 94.5466 24.575 94.5466 21.845C94.5466 17.855 95.5033 14.845 97.4166 12.815C99.3533 10.7617 102.095 9.735 105.642 9.735C107.975 9.735 109.97 10.1783 111.627 11.065C113.283 11.9517 114.555 13.2817 115.442 15.055C116.352 16.8283 116.807 19.0917 116.807 21.845C116.807 25.8117 115.838 28.8217 113.902 30.875C111.988 32.905 109.235 33.92 105.642 33.92ZM105.642 29.965C107.042 29.965 108.197 29.6967 109.107 29.16C110.04 28.6 110.74 27.725 111.207 26.535C111.673 25.345 111.907 23.77 111.907 21.81C111.907 19.85 111.673 18.2867 111.207 17.12C110.74 15.93 110.04 15.0667 109.107 14.53C108.197 13.9933 107.042 13.725 105.642 13.725C104.288 13.725 103.145 14.005 102.212 14.565C101.302 15.1017 100.613 15.965 100.147 17.155C99.6799 18.3217 99.4466 19.885 99.4466 21.845C99.4466 23.805 99.6799 25.38 100.147 26.57C100.613 27.76 101.302 28.6233 102.212 29.16C103.145 29.6967 104.288 29.965 105.642 29.965ZM122.142 33.5V10.155H126.412L139.152 27.585L137.787 30.385V10.155H142.197V33.5H138.347L125.292 16L126.587 13.865V33.5H122.142ZM153.7 33.5V13.97H146.63V10.155H165.565V13.97H158.46V33.5H153.7ZM179.92 33.92C177.61 33.92 175.626 33.4883 173.97 32.625C172.313 31.7383 171.041 30.4083 170.155 28.635C169.268 26.8383 168.825 24.575 168.825 21.845C168.825 17.855 169.781 14.845 171.695 12.815C173.631 10.7617 176.373 9.735 179.92 9.735C182.253 9.735 184.248 10.1783 185.905 11.065C187.561 11.9517 188.833 13.2817 189.72 15.055C190.63 16.8283 191.085 19.0917 191.085 21.845C191.085 25.8117 190.116 28.8217 188.18 30.875C186.266 32.905 183.513 33.92 179.92 33.92ZM179.92 29.965C181.32 29.965 182.475 29.6967 183.385 29.16C184.318 28.6 185.018 27.725 185.485 26.535C185.951 25.345 186.185 23.77 186.185 21.81C186.185 19.85 185.951 18.2867 185.485 17.12C185.018 15.93 184.318 15.0667 183.385 14.53C182.475 13.9933 181.32 13.725 179.92 13.725C178.566 13.725 177.423 14.005 176.49 14.565C175.58 15.1017 174.891 15.965 174.425 17.155C173.958 18.3217 173.725 19.885 173.725 21.845C173.725 23.805 173.958 25.38 174.425 26.57C174.891 27.76 175.58 28.6233 176.49 29.16C177.423 29.6967 178.566 29.965 179.92 29.965Z" fill="#232324"/>
</svg>
