<svg width="140" height="29" viewBox="0 0 140 29" fill="none" xmlns="http://www.w3.org/2000/svg">
<path d="M25.207 11.6781C25.2023 11.4594 25.1345 11.2468 25.0116 11.0658C24.8887 10.8848 24.7161 10.7432 24.5145 10.6582L21.1283 9.22568L24.5519 7.62998C24.7509 7.53744 24.9186 7.38919 25.0349 7.20316C25.1512 7.01713 25.211 6.80135 25.207 6.582C25.2031 6.36266 25.1355 6.14916 25.0126 5.96745C24.8897 5.78574 24.7167 5.64364 24.5145 5.55834L13.0456 0.706693C12.9058 0.64747 12.7555 0.616943 12.6036 0.616943C12.4517 0.616943 12.3014 0.64747 12.1616 0.706693L0.692655 5.55834C0.490536 5.64364 0.317509 5.78574 0.19459 5.96745C0.0716701 6.14916 0.00414444 6.36266 0.000184722 6.582C-0.003775 6.80135 0.0560011 7.01713 0.172282 7.20316C0.288563 7.38919 0.456343 7.53744 0.655251 7.62998L4.07894 9.22568L0.692655 10.6582C0.490536 10.7435 0.317509 10.8856 0.19459 11.0673C0.0716701 11.249 0.00414444 11.4625 0.000184722 11.6818C-0.003775 11.9012 0.0560011 12.117 0.172282 12.303C0.288563 12.489 0.456343 12.6373 0.655251 12.7298L4.07894 14.3255L0.692655 15.758C0.490536 15.8433 0.317509 15.9854 0.19459 16.1671C0.0716701 16.3488 0.00414444 16.5623 0.000184722 16.7817C-0.003775 17.001 0.0560011 17.2168 0.172282 17.4028C0.288563 17.5889 0.456343 17.7371 0.655251 17.8297L4.07894 19.4254L0.692655 20.8579C0.490536 20.9431 0.317509 21.0853 0.19459 21.267C0.0716701 21.4487 0.00414444 21.6622 0.000184722 21.8815C-0.003775 22.1009 0.0560011 22.3166 0.172282 22.5027C0.288563 22.6887 0.456343 22.8369 0.655251 22.9295L12.1254 28.2764C12.275 28.3466 12.4383 28.383 12.6036 28.383C12.7689 28.383 12.9322 28.3466 13.0818 28.2764L24.5519 22.9295C24.7509 22.8369 24.9186 22.6887 25.0349 22.5027C25.1512 22.3166 25.211 22.1009 25.207 21.8815C25.2031 21.6622 25.1355 21.4487 25.0126 21.267C24.8897 21.0853 24.7167 20.9431 24.5145 20.8579L21.1283 19.4254L24.5519 17.8297C24.7509 17.7371 24.9186 17.5889 25.0349 17.4028C25.1512 17.2168 25.211 17.001 25.207 16.7817C25.2031 16.5623 25.1355 16.3488 25.0126 16.1671C24.8897 15.9854 24.7167 15.8433 24.5145 15.758L21.1283 14.3255L24.5519 12.7298C24.7514 12.637 24.9196 12.4882 25.0359 12.3014C25.1522 12.1147 25.2117 11.8981 25.207 11.6781ZM12.6036 2.97668L21.2835 6.64744L12.6036 10.6944L3.92368 6.64744L12.6036 2.97668ZM21.2835 21.9469L12.6036 25.9939L3.92368 21.9469L6.84645 20.7116L12.1254 23.172C12.275 23.2422 12.4383 23.2786 12.6036 23.2786C12.7689 23.2786 12.9322 23.2422 13.0818 23.172L18.3608 20.7116L21.2835 21.9469ZM21.2835 16.8471L12.6036 20.8941L3.92368 16.8471L6.84645 15.6118L12.1254 18.0722C12.275 18.1424 12.4383 18.1788 12.6036 18.1788C12.7689 18.1788 12.9322 18.1424 13.0818 18.0722L18.3608 15.6118L21.2835 16.8471ZM12.6036 15.7943L3.92368 11.7473L6.84645 10.512L12.1254 12.9724C12.275 13.0425 12.4383 13.0789 12.6036 13.0789C12.7689 13.0789 12.9322 13.0425 13.0818 12.9724L18.3608 10.512L21.2835 11.7473L12.6036 15.7943Z" fill="#F27934"/>
<path d="M37.7279 18.2275V24H34.2997V7.18676H41.4082C43.3407 7.18676 44.8532 7.63209 45.9455 8.52275C47.0378 9.4134 47.5839 10.7662 47.5839 12.5811C47.5839 14.396 47.0378 15.7908 45.9455 16.7655C44.8532 17.7402 43.3407 18.2275 41.4082 18.2275H37.7279ZM37.7279 15.4799H40.9796C41.551 15.4799 42.0299 15.4127 42.4165 15.2783C42.803 15.127 43.1055 14.9254 43.3239 14.6733C43.5424 14.4044 43.6936 14.1104 43.7777 13.7911C43.8785 13.4718 43.9289 13.1273 43.9289 12.7576C43.9289 12.3711 43.8785 12.0097 43.7777 11.6737C43.6936 11.3376 43.5424 11.0351 43.3239 10.7662C43.1055 10.4973 42.803 10.2957 42.4165 10.1612C42.0299 10.01 41.551 9.93435 40.9796 9.93435H37.7279V15.4799ZM51.4259 24V7.18676H59.2401C61.0719 7.18676 62.4835 7.62369 63.475 8.49754C64.4832 9.35458 64.9874 10.6486 64.9874 12.3795C64.9874 13.1861 64.8193 13.9591 64.4832 14.6985C64.164 15.4211 63.685 16.0261 63.0464 16.5134C62.4247 17.0008 61.66 17.3033 60.7526 17.4209L60.7778 16.3118L65.8444 24H61.534L57.0975 16.5639L58.6352 17.9251H54.8541V24H51.4259ZM54.8541 15.3035H58.5091C59.4334 15.3035 60.1392 15.085 60.6265 14.6481C61.1139 14.1944 61.3575 13.497 61.3575 12.5559C61.3575 11.7157 61.1559 11.0687 60.7526 10.6149C60.3493 10.1612 59.7107 9.93435 58.8368 9.93435H54.8541V15.3035ZM76.0837 24.3025C74.42 24.3025 72.9916 23.9916 71.7985 23.3698C70.6053 22.7312 69.6895 21.7734 69.0509 20.4962C68.4123 19.2022 68.093 17.5721 68.093 15.606C68.093 12.7324 68.782 10.5645 70.16 9.10251C71.5548 7.62369 73.5294 6.88427 76.0837 6.88427C77.7642 6.88427 79.201 7.20357 80.3941 7.84215C81.5873 8.48073 82.5031 9.43861 83.1417 10.7158C83.7971 11.9929 84.1248 13.623 84.1248 15.606C84.1248 18.4628 83.4274 20.6306 82.0326 22.1095C80.6546 23.5715 78.6716 24.3025 76.0837 24.3025ZM76.0837 21.4541C77.092 21.4541 77.9238 21.2608 78.5792 20.8743C79.2514 20.471 79.7556 19.8408 80.0917 18.9838C80.4278 18.1267 80.5958 16.9924 80.5958 15.5808C80.5958 14.1692 80.4278 13.0432 80.0917 12.203C79.7556 11.346 79.2514 10.7242 78.5792 10.3377C77.9238 9.95116 77.092 9.7579 76.0837 9.7579C75.109 9.7579 74.2856 9.95956 73.6134 10.3629C72.958 10.7494 72.4623 11.3712 72.1262 12.2282C71.7901 13.0685 71.622 14.1944 71.622 15.606C71.622 17.0176 71.7901 18.1519 72.1262 19.009C72.4623 19.866 72.958 20.4878 73.6134 20.8743C74.2856 21.2608 75.109 21.4541 76.0837 21.4541ZM87.9675 24V7.18676H91.0428L100.218 19.74L99.2352 21.7566V7.18676H102.411V24H99.6385L90.2362 11.3964L91.1689 9.85873V24H87.9675ZM110.696 24V9.93435H105.604V7.18676H119.241V9.93435H114.124V24H110.696ZM129.579 24.3025C127.916 24.3025 126.487 23.9916 125.294 23.3698C124.101 22.7312 123.185 21.7734 122.546 20.4962C121.908 19.2022 121.589 17.5721 121.589 15.606C121.589 12.7324 122.278 10.5645 123.656 9.10251C125.05 7.62369 127.025 6.88427 129.579 6.88427C131.26 6.88427 132.697 7.20357 133.89 7.84215C135.083 8.48073 135.999 9.43861 136.637 10.7158C137.293 11.9929 137.62 13.623 137.62 15.606C137.62 18.4628 136.923 20.6306 135.528 22.1095C134.15 23.5715 132.167 24.3025 129.579 24.3025ZM129.579 21.4541C130.588 21.4541 131.419 21.2608 132.075 20.8743C132.747 20.471 133.251 19.8408 133.587 18.9838C133.923 18.1267 134.091 16.9924 134.091 15.5808C134.091 14.1692 133.923 13.0432 133.587 12.203C133.251 11.346 132.747 10.7242 132.075 10.3377C131.419 9.95116 130.588 9.7579 129.579 9.7579C128.605 9.7579 127.781 9.95956 127.109 10.3629C126.454 10.7494 125.958 11.3712 125.622 12.2282C125.286 13.0685 125.118 14.1944 125.118 15.606C125.118 17.0176 125.286 18.1519 125.622 19.009C125.958 19.866 126.454 20.4878 127.109 20.8743C127.781 21.2608 128.605 21.4541 129.579 21.4541Z" fill="white"/>
</svg>
