<svg width="503" height="512" viewBox="0 0 503 512" fill="none" xmlns="http://www.w3.org/2000/svg">
<path d="M668.965 202.683C668.841 196.54 667.04 190.567 663.779 185.483C660.519 180.4 655.937 176.424 650.588 174.035L560.72 133.799L651.581 88.9798C656.86 86.3806 661.313 82.2165 664.398 76.9914C667.484 71.7663 669.071 65.7055 668.966 59.5446C668.861 53.3837 667.069 47.3871 663.807 42.2833C660.544 37.1795 655.952 33.1882 650.588 30.7924L346.215 -105.479C342.504 -107.143 338.515 -108 334.485 -108C330.455 -108 326.466 -107.143 322.756 -105.479L18.3823 30.7924C13.0183 33.1882 8.42634 37.1795 5.16419 42.2833C1.90204 47.3871 0.109989 53.3837 0.00490231 59.5446C-0.100184 65.7055 1.48621 71.7663 4.57217 76.9914C7.65814 82.2165 12.1108 86.3806 17.3896 88.9798L108.25 133.799L18.3823 174.035C13.0183 176.431 8.42634 180.422 5.16419 185.526C1.90204 190.63 0.109989 196.626 0.00490231 202.787C-0.100184 208.948 1.48621 215.009 4.57217 220.234C7.65814 225.459 12.1108 229.623 17.3896 232.222L108.25 277.042L18.3823 317.277C13.0183 319.673 8.42634 323.664 5.16419 328.768C1.90204 333.872 0.109989 339.869 0.00490231 346.03C-0.100184 352.19 1.48621 358.251 4.57217 363.476C7.65814 368.701 12.1108 372.866 17.3896 375.465L108.25 420.284L18.3823 460.52C13.0183 462.916 8.42634 466.907 5.16419 472.011C1.90204 477.115 0.109989 483.111 0.00490231 489.272C-0.100184 495.433 1.48621 501.494 4.57217 506.719C7.65814 511.944 12.1108 516.108 17.3896 518.707L321.793 668.889C325.765 670.861 330.098 671.882 334.485 671.882C338.872 671.882 343.206 670.861 347.178 668.889L651.581 518.707C656.86 516.108 661.313 511.944 664.398 506.719C667.484 501.494 669.071 495.433 668.966 489.272C668.861 483.111 667.069 477.115 663.807 472.011C660.544 466.907 655.952 462.916 650.588 460.52L560.72 420.284L651.581 375.465C656.86 372.866 661.313 368.701 664.398 363.476C667.484 358.251 669.071 352.19 668.966 346.03C668.861 339.869 667.069 333.872 663.807 328.768C660.544 323.664 655.952 319.673 650.588 317.277L560.72 277.042L651.581 232.222C656.875 229.616 661.338 225.436 664.425 220.19C667.512 214.945 669.09 208.861 668.965 202.683ZM334.485 -41.7206L564.841 61.3825L334.485 175.053L104.13 61.3825L334.485 -41.7206ZM564.841 491.11L334.485 604.78L104.13 491.11L181.697 456.413L321.793 525.52C325.765 527.491 330.098 528.513 334.485 528.513C338.872 528.513 343.206 527.491 347.178 525.52L487.274 456.413L564.841 491.11ZM564.841 347.867L334.485 461.538L104.13 347.867L181.697 313.17L321.793 382.277C325.765 384.248 330.098 385.27 334.485 385.27C338.872 385.27 343.206 384.248 347.178 382.277L487.274 313.17L564.841 347.867ZM334.485 318.295L104.13 204.625L181.697 169.928L321.793 239.035C325.765 241.006 330.098 242.028 334.485 242.028C338.872 242.028 343.206 241.006 347.178 239.035L487.274 169.928L564.841 204.625L334.485 318.295Z" fill="#989898" fill-opacity="0.1"/>
</svg>
